<ttFont>
<head>
    <!-- Most of this table will be recalculated by the compiler -->
    <tableVersion value="1.0"/>
    <fontRevision value="5.0"/>
    <checkSumAdjustment value="0xaca3c636"/>
    <magicNumber value="0x5f0f3cf5"/>
    <flags value="00000000 00001011"/>
    <unitsPerEm value="2048"/>
    <created value="Sun May 15 08:57:39 2005"/>
    <modified value="Fri Apr 15 06:33:57 2011"/>
    <xMin value="-163"/>
    <yMin value="-1105"/>
    <xMax value="6499"/>
    <yMax value="1974"/>
    <macStyle value="00000000 00000000"/>
    <lowestRecPPEM value="8"/>
    <fontDirectionHint value="2"/>
    <indexToLocFormat value="1"/>
    <glyphDataFormat value="0"/>
  </head>
    <TTGlyph name=".notdef" xMin="142" yMin="226" xMax="842" yMax="1588">
      <contour>
        <pt x="142" y="226" on="1"/>
        <pt x="142" y="1588" on="1"/>
        <pt x="842" y="1588" on="1"/>
        <pt x="842" y="226" on="1"/>
      </contour>
      <contour>
        <pt x="284" y="368" on="1"/>
        <pt x="700" y="368" on="1"/>
        <pt x="700" y="1447" on="1"/>
        <pt x="284" y="1447" on="1"/>
      </contour>
    </TTGlyph>
    <TTGlyph name=".null" xMin="142" yMin="226" xMax="842" yMax="1588">
      <contour>
        <pt x="142" y="226" on="1"/>
        <pt x="142" y="1588" on="1"/>
        <pt x="842" y="1588" on="1"/>
        <pt x="842" y="226" on="1"/>
      </contour>
      <contour>
        <pt x="284" y="368" on="1"/>
        <pt x="700" y="368" on="1"/>
        <pt x="700" y="1447" on="1"/>
        <pt x="284" y="1447" on="1"/>
      </contour>
    </TTGlyph>
    <TTGlyph name="afii57381" xMin="142" yMin="226" xMax="842" yMax="1588">
      <contour>
        <pt x="142" y="226" on="1"/>
        <pt x="142" y="1588" on="1"/>
        <pt x="842" y="1588" on="1"/>
        <pt x="842" y="226" on="1"/>
      </contour>
      <contour>
        <pt x="284" y="368" on="1"/>
        <pt x="700" y="368" on="1"/>
        <pt x="700" y="1447" on="1"/>
        <pt x="284" y="1447" on="1"/>
      </contour>
    </TTGlyph>
    <TTGlyph name="afii57388" xMin="142" yMin="226" xMax="842" yMax="1588">
      <contour>
        <pt x="142" y="226" on="1"/>
        <pt x="142" y="1588" on="1"/>
        <pt x="842" y="1588" on="1"/>
        <pt x="842" y="226" on="1"/>
      </contour>
      <contour>
        <pt x="284" y="368" on="1"/>
        <pt x="700" y="368" on="1"/>
        <pt x="700" y="1447" on="1"/>
        <pt x="284" y="1447" on="1"/>
      </contour>
    </TTGlyph>
    <TTGlyph name="afii57396" xMin="142" yMin="226" xMax="842" yMax="1588">
      <contour>
        <pt x="142" y="226" on="1"/>
        <pt x="142" y="1588" on="1"/>
        <pt x="842" y="1588" on="1"/>
        <pt x="842" y="226" on="1"/>
      </contour>
      <contour>
        <pt x="284" y="368" on="1"/>
        <pt x="700" y="368" on="1"/>
        <pt x="700" y="1447" on="1"/>
        <pt x="284" y="1447" on="1"/>
      </contour>
    </TTGlyph>
    <TTGlyph name="afii57397" xMin="142" yMin="226" xMax="842" yMax="1588">
      <contour>
        <pt x="142" y="226" on="1"/>
        <pt x="142" y="1588" on="1"/>
        <pt x="842" y="1588" on="1"/>
        <pt x="842" y="226" on="1"/>
      </contour>
      <contour>
        <pt x="284" y="368" on="1"/>
        <pt x="700" y="368" on="1"/>
        <pt x="700" y="1447" on="1"/>
        <pt x="284" y="1447" on="1"/>
      </contour>
    </TTGlyph>
    <TTGlyph name="afii57398" xMin="142" yMin="226" xMax="842" yMax="1588">
      <contour>
        <pt x="142" y="226" on="1"/>
        <pt x="142" y="1588" on="1"/>
        <pt x="842" y="1588" on="1"/>
        <pt x="842" y="226" on="1"/>
      </contour>
      <contour>
        <pt x="284" y="368" on="1"/>
        <pt x="700" y="368" on="1"/>
        <pt x="700" y="1447" on="1"/>
        <pt x="284" y="1447" on="1"/>
      </contour>
    </TTGlyph>
    <TTGlyph name="afii57403" xMin="142" yMin="226" xMax="842" yMax="1588">
      <contour>
        <pt x="142" y="226" on="1"/>
        <pt x="142" y="1588" on="1"/>
        <pt x="842" y="1588" on="1"/>
        <pt x="842" y="226" on="1"/>
      </contour>
      <contour>
        <pt x="284" y="368" on="1"/>
        <pt x="700" y="368" on="1"/>
        <pt x="700" y="1447" on="1"/>
        <pt x="284" y="1447" on="1"/>
      </contour>
    </TTGlyph>
    <TTGlyph name="afii57407" xMin="142" yMin="226" xMax="842" yMax="1588">
      <contour>
        <pt x="142" y="226" on="1"/>
        <pt x="142" y="1588" on="1"/>
        <pt x="842" y="1588" on="1"/>
        <pt x="842" y="226" on="1"/>
      </contour>
      <contour>
        <pt x="284" y="368" on="1"/>
        <pt x="700" y="368" on="1"/>
        <pt x="700" y="1447" on="1"/>
        <pt x="284" y="1447" on="1"/>
      </contour>
    </TTGlyph>
    <TTGlyph name="afii57440" xMin="142" yMin="226" xMax="842" yMax="1588">
      <contour>
        <pt x="142" y="226" on="1"/>
        <pt x="142" y="1588" on="1"/>
        <pt x="842" y="1588" on="1"/>
        <pt x="842" y="226" on="1"/>
      </contour>
      <contour>
        <pt x="284" y="368" on="1"/>
        <pt x="700" y="368" on="1"/>
        <pt x="700" y="1447" on="1"/>
        <pt x="284" y="1447" on="1"/>
      </contour>
    </TTGlyph>
    <TTGlyph name="afii57451" xMin="142" yMin="226" xMax="842" yMax="1588">
      <contour>
        <pt x="142" y="226" on="1"/>
        <pt x="142" y="1588" on="1"/>
        <pt x="842" y="1588" on="1"/>
        <pt x="842" y="226" on="1"/>
      </contour>
      <contour>
        <pt x="284" y="368" on="1"/>
        <pt x="700" y="368" on="1"/>
        <pt x="700" y="1447" on="1"/>
        <pt x="284" y="1447" on="1"/>
      </contour>
    </TTGlyph>
    <TTGlyph name="afii57452" xMin="142" yMin="226" xMax="842" yMax="1588">
      <contour>
        <pt x="142" y="226" on="1"/>
        <pt x="142" y="1588" on="1"/>
        <pt x="842" y="1588" on="1"/>
        <pt x="842" y="226" on="1"/>
      </contour>
      <contour>
        <pt x="284" y="368" on="1"/>
        <pt x="700" y="368" on="1"/>
        <pt x="700" y="1447" on="1"/>
        <pt x="284" y="1447" on="1"/>
      </contour>
    </TTGlyph>
    <TTGlyph name="afii57453" xMin="142" yMin="226" xMax="842" yMax="1588">
      <contour>
        <pt x="142" y="226" on="1"/>
        <pt x="142" y="1588" on="1"/>
        <pt x="842" y="1588" on="1"/>
        <pt x="842" y="226" on="1"/>
      </contour>
      <contour>
        <pt x="284" y="368" on="1"/>
        <pt x="700" y="368" on="1"/>
        <pt x="700" y="1447" on="1"/>
        <pt x="284" y="1447" on="1"/>
      </contour>
    </TTGlyph>
    <TTGlyph name="afii57454" xMin="142" yMin="226" xMax="842" yMax="1588">
      <contour>
        <pt x="142" y="226" on="1"/>
        <pt x="142" y="1588" on="1"/>
        <pt x="842" y="1588" on="1"/>
        <pt x="842" y="226" on="1"/>
      </contour>
      <contour>
        <pt x="284" y="368" on="1"/>
        <pt x="700" y="368" on="1"/>
        <pt x="700" y="1447" on="1"/>
        <pt x="284" y="1447" on="1"/>
      </contour>
    </TTGlyph>
    <TTGlyph name="afii57455" xMin="142" yMin="226" xMax="842" yMax="1588">
      <contour>
        <pt x="142" y="226" on="1"/>
        <pt x="142" y="1588" on="1"/>
        <pt x="842" y="1588" on="1"/>
        <pt x="842" y="226" on="1"/>
      </contour>
      <contour>
        <pt x="284" y="368" on="1"/>
        <pt x="700" y="368" on="1"/>
        <pt x="700" y="1447" on="1"/>
        <pt x="284" y="1447" on="1"/>
      </contour>
    </TTGlyph>
    <TTGlyph name="afii57456" xMin="142" yMin="226" xMax="842" yMax="1588">
      <contour>
        <pt x="142" y="226" on="1"/>
        <pt x="142" y="1588" on="1"/>
        <pt x="842" y="1588" on="1"/>
        <pt x="842" y="226" on="1"/>
      </contour>
      <contour>
        <pt x="284" y="368" on="1"/>
        <pt x="700" y="368" on="1"/>
        <pt x="700" y="1447" on="1"/>
        <pt x="284" y="1447" on="1"/>
      </contour>
    </TTGlyph>
    <TTGlyph name="afii57457" xMin="142" yMin="226" xMax="842" yMax="1588">
      <contour>
        <pt x="142" y="226" on="1"/>
        <pt x="142" y="1588" on="1"/>
        <pt x="842" y="1588" on="1"/>
        <pt x="842" y="226" on="1"/>
      </contour>
      <contour>
        <pt x="284" y="368" on="1"/>
        <pt x="700" y="368" on="1"/>
        <pt x="700" y="1447" on="1"/>
        <pt x="284" y="1447" on="1"/>
      </contour>
    </TTGlyph>
    <TTGlyph name="afii57458" xMin="142" yMin="226" xMax="842" yMax="1588">
      <contour>
        <pt x="142" y="226" on="1"/>
        <pt x="142" y="1588" on="1"/>
        <pt x="842" y="1588" on="1"/>
        <pt x="842" y="226" on="1"/>
      </contour>
      <contour>
        <pt x="284" y="368" on="1"/>
        <pt x="700" y="368" on="1"/>
        <pt x="700" y="1447" on="1"/>
        <pt x="284" y="1447" on="1"/>
      </contour>
    </TTGlyph>
    <TTGlyph name="afii57505" xMin="142" yMin="226" xMax="842" yMax="1588">
      <contour>
        <pt x="142" y="226" on="1"/>
        <pt x="142" y="1588" on="1"/>
        <pt x="842" y="1588" on="1"/>
        <pt x="842" y="226" on="1"/>
      </contour>
      <contour>
        <pt x="284" y="368" on="1"/>
        <pt x="700" y="368" on="1"/>
        <pt x="700" y="1447" on="1"/>
        <pt x="284" y="1447" on="1"/>
      </contour>
    </TTGlyph>
    <TTGlyph name="afii57506" xMin="142" yMin="226" xMax="842" yMax="1588">
      <contour>
        <pt x="142" y="226" on="1"/>
        <pt x="142" y="1588" on="1"/>
        <pt x="842" y="1588" on="1"/>
        <pt x="842" y="226" on="1"/>
      </contour>
      <contour>
        <pt x="284" y="368" on="1"/>
        <pt x="700" y="368" on="1"/>
        <pt x="700" y="1447" on="1"/>
        <pt x="284" y="1447" on="1"/>
      </contour>
    </TTGlyph>
    <TTGlyph name="afii57507" xMin="142" yMin="226" xMax="842" yMax="1588">
      <contour>
        <pt x="142" y="226" on="1"/>
        <pt x="142" y="1588" on="1"/>
        <pt x="842" y="1588" on="1"/>
        <pt x="842" y="226" on="1"/>
      </contour>
      <contour>
        <pt x="284" y="368" on="1"/>
        <pt x="700" y="368" on="1"/>
        <pt x="700" y="1447" on="1"/>
        <pt x="284" y="1447" on="1"/>
      </contour>
    </TTGlyph>
    <TTGlyph name="afii57508" xMin="142" yMin="226" xMax="842" yMax="1588">
      <contour>
        <pt x="142" y="226" on="1"/>
        <pt x="142" y="1588" on="1"/>
        <pt x="842" y="1588" on="1"/>
        <pt x="842" y="226" on="1"/>
      </contour>
      <contour>
        <pt x="284" y="368" on="1"/>
        <pt x="700" y="368" on="1"/>
        <pt x="700" y="1447" on="1"/>
        <pt x="284" y="1447" on="1"/>
      </contour>
    </TTGlyph>
    <TTGlyph name="afii57509" xMin="142" yMin="226" xMax="842" yMax="1588">
      <contour>
        <pt x="142" y="226" on="1"/>
        <pt x="142" y="1588" on="1"/>
        <pt x="842" y="1588" on="1"/>
        <pt x="842" y="226" on="1"/>
      </contour>
      <contour>
        <pt x="284" y="368" on="1"/>
        <pt x="700" y="368" on="1"/>
        <pt x="700" y="1447" on="1"/>
        <pt x="284" y="1447" on="1"/>
      </contour>
    </TTGlyph>
    <TTGlyph name="afii57511" xMin="142" yMin="226" xMax="842" yMax="1588">
      <contour>
        <pt x="142" y="226" on="1"/>
        <pt x="142" y="1588" on="1"/>
        <pt x="842" y="1588" on="1"/>
        <pt x="842" y="226" on="1"/>
      </contour>
      <contour>
        <pt x="284" y="368" on="1"/>
        <pt x="700" y="368" on="1"/>
        <pt x="700" y="1447" on="1"/>
        <pt x="284" y="1447" on="1"/>
      </contour>
    </TTGlyph>
    <TTGlyph name="afii57512" xMin="142" yMin="226" xMax="842" yMax="1588">
      <contour>
        <pt x="142" y="226" on="1"/>
        <pt x="142" y="1588" on="1"/>
        <pt x="842" y="1588" on="1"/>
        <pt x="842" y="226" on="1"/>
      </contour>
      <contour>
        <pt x="284" y="368" on="1"/>
        <pt x="700" y="368" on="1"/>
        <pt x="700" y="1447" on="1"/>
        <pt x="284" y="1447" on="1"/>
      </contour>
    </TTGlyph>
    <TTGlyph name="afii57513" xMin="142" yMin="226" xMax="842" yMax="1588">
      <contour>
        <pt x="142" y="226" on="1"/>
        <pt x="142" y="1588" on="1"/>
        <pt x="842" y="1588" on="1"/>
        <pt x="842" y="226" on="1"/>
      </contour>
      <contour>
        <pt x="284" y="368" on="1"/>
        <pt x="700" y="368" on="1"/>
        <pt x="700" y="1447" on="1"/>
        <pt x="284" y="1447" on="1"/>
      </contour>
    </TTGlyph>
    <TTGlyph name="afii57514" xMin="142" yMin="226" xMax="842" yMax="1588">
      <contour>
        <pt x="142" y="226" on="1"/>
        <pt x="142" y="1588" on="1"/>
        <pt x="842" y="1588" on="1"/>
        <pt x="842" y="226" on="1"/>
      </contour>
      <contour>
        <pt x="284" y="368" on="1"/>
        <pt x="700" y="368" on="1"/>
        <pt x="700" y="1447" on="1"/>
        <pt x="284" y="1447" on="1"/>
      </contour>
    </TTGlyph>
    <TTGlyph name="afii57519" xMin="142" yMin="226" xMax="842" yMax="1588">
      <contour>
        <pt x="142" y="226" on="1"/>
        <pt x="142" y="1588" on="1"/>
        <pt x="842" y="1588" on="1"/>
        <pt x="842" y="226" on="1"/>
      </contour>
      <contour>
        <pt x="284" y="368" on="1"/>
        <pt x="700" y="368" on="1"/>
        <pt x="700" y="1447" on="1"/>
        <pt x="284" y="1447" on="1"/>
      </contour>
    </TTGlyph>
    <TTGlyph name="afii57534" xMin="142" yMin="226" xMax="842" yMax="1588">
      <contour>
        <pt x="142" y="226" on="1"/>
        <pt x="142" y="1588" on="1"/>
        <pt x="842" y="1588" on="1"/>
        <pt x="842" y="226" on="1"/>
      </contour>
      <contour>
        <pt x="284" y="368" on="1"/>
        <pt x="700" y="368" on="1"/>
        <pt x="700" y="1447" on="1"/>
        <pt x="284" y="1447" on="1"/>
      </contour>
    </TTGlyph>
    <TTGlyph name="afii63167" xMin="142" yMin="226" xMax="842" yMax="1588">
      <contour>
        <pt x="142" y="226" on="1"/>
        <pt x="142" y="1588" on="1"/>
        <pt x="842" y="1588" on="1"/>
        <pt x="842" y="226" on="1"/>
      </contour>
      <contour>
        <pt x="284" y="368" on="1"/>
        <pt x="700" y="368" on="1"/>
        <pt x="700" y="1447" on="1"/>
        <pt x="284" y="1447" on="1"/>
      </contour>
    </TTGlyph>
    <TTGlyph name="alefmaksurainitial" xMin="142" yMin="226" xMax="842" yMax="1588">
      <contour>
        <pt x="142" y="226" on="1"/>
        <pt x="142" y="1588" on="1"/>
        <pt x="842" y="1588" on="1"/>
        <pt x="842" y="226" on="1"/>
      </contour>
      <contour>
        <pt x="284" y="368" on="1"/>
        <pt x="700" y="368" on="1"/>
        <pt x="700" y="1447" on="1"/>
        <pt x="284" y="1447" on="1"/>
      </contour>
    </TTGlyph>
    <TTGlyph name="alefwaslafinalarabic" xMin="142" yMin="226" xMax="842" yMax="1588">
      <contour>
        <pt x="142" y="226" on="1"/>
        <pt x="142" y="1588" on="1"/>
        <pt x="842" y="1588" on="1"/>
        <pt x="842" y="226" on="1"/>
      </contour>
      <contour>
        <pt x="284" y="368" on="1"/>
        <pt x="700" y="368" on="1"/>
        <pt x="700" y="1447" on="1"/>
        <pt x="284" y="1447" on="1"/>
      </contour>
    </TTGlyph>
    <TTGlyph name="ampersand" xMin="142" yMin="226" xMax="842" yMax="1588">
      <contour>
        <pt x="142" y="226" on="1"/>
        <pt x="142" y="1588" on="1"/>
        <pt x="842" y="1588" on="1"/>
        <pt x="842" y="226" on="1"/>
      </contour>
      <contour>
        <pt x="284" y="368" on="1"/>
        <pt x="700" y="368" on="1"/>
        <pt x="700" y="1447" on="1"/>
        <pt x="284" y="1447" on="1"/>
      </contour>
    </TTGlyph>
    <TTGlyph name="asterisk" xMin="142" yMin="226" xMax="842" yMax="1588">
      <contour>
        <pt x="142" y="226" on="1"/>
        <pt x="142" y="1588" on="1"/>
        <pt x="842" y="1588" on="1"/>
        <pt x="842" y="226" on="1"/>
      </contour>
      <contour>
        <pt x="284" y="368" on="1"/>
        <pt x="700" y="368" on="1"/>
        <pt x="700" y="1447" on="1"/>
        <pt x="284" y="1447" on="1"/>
      </contour>
    </TTGlyph>
    <TTGlyph name="behmeemisolatedarabic" xMin="142" yMin="226" xMax="842" yMax="1588">
      <contour>
        <pt x="142" y="226" on="1"/>
        <pt x="142" y="1588" on="1"/>
        <pt x="842" y="1588" on="1"/>
        <pt x="842" y="226" on="1"/>
      </contour>
      <contour>
        <pt x="284" y="368" on="1"/>
        <pt x="700" y="368" on="1"/>
        <pt x="700" y="1447" on="1"/>
        <pt x="284" y="1447" on="1"/>
      </contour>
    </TTGlyph>
    <TTGlyph name="behnoonfinalarabic" xMin="142" yMin="226" xMax="842" yMax="1588">
      <contour>
        <pt x="142" y="226" on="1"/>
        <pt x="142" y="1588" on="1"/>
        <pt x="842" y="1588" on="1"/>
        <pt x="842" y="226" on="1"/>
      </contour>
      <contour>
        <pt x="284" y="368" on="1"/>
        <pt x="700" y="368" on="1"/>
        <pt x="700" y="1447" on="1"/>
        <pt x="284" y="1447" on="1"/>
      </contour>
    </TTGlyph>
    <TTGlyph name="colon" xMin="142" yMin="226" xMax="842" yMax="1588">
      <contour>
        <pt x="142" y="226" on="1"/>
        <pt x="142" y="1588" on="1"/>
        <pt x="842" y="1588" on="1"/>
        <pt x="842" y="226" on="1"/>
      </contour>
      <contour>
        <pt x="284" y="368" on="1"/>
        <pt x="700" y="368" on="1"/>
        <pt x="700" y="1447" on="1"/>
        <pt x="284" y="1447" on="1"/>
      </contour>
    </TTGlyph>
    <TTGlyph name="dagger" xMin="142" yMin="226" xMax="842" yMax="1588">
      <contour>
        <pt x="142" y="226" on="1"/>
        <pt x="142" y="1588" on="1"/>
        <pt x="842" y="1588" on="1"/>
        <pt x="842" y="226" on="1"/>
      </contour>
      <contour>
        <pt x="284" y="368" on="1"/>
        <pt x="700" y="368" on="1"/>
        <pt x="700" y="1447" on="1"/>
        <pt x="284" y="1447" on="1"/>
      </contour>
    </TTGlyph>
    <TTGlyph name="dalringfinal" xMin="142" yMin="226" xMax="842" yMax="1588">
      <contour>
        <pt x="142" y="226" on="1"/>
        <pt x="142" y="1588" on="1"/>
        <pt x="842" y="1588" on="1"/>
        <pt x="842" y="226" on="1"/>
      </contour>
      <contour>
        <pt x="284" y="368" on="1"/>
        <pt x="700" y="368" on="1"/>
        <pt x="700" y="1447" on="1"/>
        <pt x="284" y="1447" on="1"/>
      </contour>
    </TTGlyph>
    <TTGlyph name="ddalfinalarabic" xMin="142" yMin="226" xMax="842" yMax="1588">
      <contour>
        <pt x="142" y="226" on="1"/>
        <pt x="142" y="1588" on="1"/>
        <pt x="842" y="1588" on="1"/>
        <pt x="842" y="226" on="1"/>
      </contour>
      <contour>
        <pt x="284" y="368" on="1"/>
        <pt x="700" y="368" on="1"/>
        <pt x="700" y="1447" on="1"/>
        <pt x="284" y="1447" on="1"/>
      </contour>
    </TTGlyph>
    <TTGlyph name="divide" xMin="142" yMin="226" xMax="842" yMax="1588">
      <contour>
        <pt x="142" y="226" on="1"/>
        <pt x="142" y="1588" on="1"/>
        <pt x="842" y="1588" on="1"/>
        <pt x="842" y="226" on="1"/>
      </contour>
      <contour>
        <pt x="284" y="368" on="1"/>
        <pt x="700" y="368" on="1"/>
        <pt x="700" y="1447" on="1"/>
        <pt x="284" y="1447" on="1"/>
      </contour>
    </TTGlyph>
    <TTGlyph name="dollar" xMin="142" yMin="226" xMax="842" yMax="1588">
      <contour>
        <pt x="142" y="226" on="1"/>
        <pt x="142" y="1588" on="1"/>
        <pt x="842" y="1588" on="1"/>
        <pt x="842" y="226" on="1"/>
      </contour>
      <contour>
        <pt x="284" y="368" on="1"/>
        <pt x="700" y="368" on="1"/>
        <pt x="700" y="1447" on="1"/>
        <pt x="284" y="1447" on="1"/>
      </contour>
    </TTGlyph>
    <TTGlyph name="dotlessyehfinalarabic" xMin="142" yMin="226" xMax="842" yMax="1588">
      <contour>
        <pt x="142" y="226" on="1"/>
        <pt x="142" y="1588" on="1"/>
        <pt x="842" y="1588" on="1"/>
        <pt x="842" y="226" on="1"/>
      </contour>
      <contour>
        <pt x="284" y="368" on="1"/>
        <pt x="700" y="368" on="1"/>
        <pt x="700" y="1447" on="1"/>
        <pt x="284" y="1447" on="1"/>
      </contour>
    </TTGlyph>
    <TTGlyph name="dotlessyehinitialarabic" xMin="142" yMin="226" xMax="842" yMax="1588">
      <contour>
        <pt x="142" y="226" on="1"/>
        <pt x="142" y="1588" on="1"/>
        <pt x="842" y="1588" on="1"/>
        <pt x="842" y="226" on="1"/>
      </contour>
      <contour>
        <pt x="284" y="368" on="1"/>
        <pt x="700" y="368" on="1"/>
        <pt x="700" y="1447" on="1"/>
        <pt x="284" y="1447" on="1"/>
      </contour>
    </TTGlyph>
    <TTGlyph name="dotlessyehmedialarabic" xMin="142" yMin="226" xMax="842" yMax="1588">
      <contour>
        <pt x="142" y="226" on="1"/>
        <pt x="142" y="1588" on="1"/>
        <pt x="842" y="1588" on="1"/>
        <pt x="842" y="226" on="1"/>
      </contour>
      <contour>
        <pt x="284" y="368" on="1"/>
        <pt x="700" y="368" on="1"/>
        <pt x="700" y="1447" on="1"/>
        <pt x="284" y="1447" on="1"/>
      </contour>
    </TTGlyph>
    <TTGlyph name="elefmaksuramedial" xMin="142" yMin="226" xMax="842" yMax="1588">
      <contour>
        <pt x="142" y="226" on="1"/>
        <pt x="142" y="1588" on="1"/>
        <pt x="842" y="1588" on="1"/>
        <pt x="842" y="226" on="1"/>
      </contour>
      <contour>
        <pt x="284" y="368" on="1"/>
        <pt x="700" y="368" on="1"/>
        <pt x="700" y="1447" on="1"/>
        <pt x="284" y="1447" on="1"/>
      </contour>
    </TTGlyph>
    <TTGlyph name="ellipsis" xMin="142" yMin="226" xMax="842" yMax="1588">
      <contour>
        <pt x="142" y="226" on="1"/>
        <pt x="142" y="1588" on="1"/>
        <pt x="842" y="1588" on="1"/>
        <pt x="842" y="226" on="1"/>
      </contour>
      <contour>
        <pt x="284" y="368" on="1"/>
        <pt x="700" y="368" on="1"/>
        <pt x="700" y="1447" on="1"/>
        <pt x="284" y="1447" on="1"/>
      </contour>
    </TTGlyph>
    <TTGlyph name="emdash" xMin="151" yMin="-461" xMax="2199" yMax="1853">
      <contour>
        <pt x="2166" y="1601" on="1"/>
        <pt x="2166" y="1566" on="0"/>
        <pt x="1997" y="1430" on="1"/>
        <pt x="1847" y="1310" on="0"/>
        <pt x="1764" y="1259" on="1"/>
        <pt x="1757" y="1264" on="0"/>
        <pt x="1744" y="1275" on="0"/>
        <pt x="1744" y="1290" on="1"/>
        <pt x="1744" y="1339" on="0"/>
        <pt x="1778" y="1367" on="1"/>
        <pt x="2101" y="1638" on="0"/>
        <pt x="2123" y="1637" on="1"/>
        <pt x="2166" y="1637" on="1"/>
      </contour>
      <contour>
        <pt x="1727" y="1437" on="1"/>
        <pt x="1727" y="1405" on="0"/>
        <pt x="1627" y="1338" on="1"/>
        <pt x="1535" y="1276" on="0"/>
        <pt x="1479" y="1259" on="1"/>
        <pt x="1459" y="1285" on="1"/>
        <pt x="1470" y="1299" on="0"/>
        <pt x="1523" y="1344" on="1"/>
        <pt x="1559" y="1376" on="0"/>
        <pt x="1566" y="1407" on="1"/>
        <pt x="1552" y="1423" on="0"/>
        <pt x="1537" y="1423" on="1"/>
        <pt x="1529" y="1423" on="0"/>
        <pt x="1442" y="1363" on="0"/>
        <pt x="1433" y="1352" on="1"/>
        <pt x="1403" y="1352" on="1"/>
        <pt x="1403" y="1396" on="1"/>
        <pt x="1403" y="1446" on="0"/>
        <pt x="1478" y="1495" on="1"/>
        <pt x="1541" y="1536" on="0"/>
        <pt x="1570" y="1536" on="1"/>
        <pt x="1642" y="1536" on="0"/>
        <pt x="1727" y="1482" on="1"/>
      </contour>
      <contour>
        <pt x="1281" y="1285" on="1"/>
        <pt x="1281" y="1273" on="0"/>
        <pt x="1272" y="1242" on="0"/>
        <pt x="1272" y="1231" on="1"/>
        <pt x="1271" y="1230" on="0"/>
        <pt x="1270" y="1229" on="1"/>
        <pt x="1263" y="1218" on="0"/>
        <pt x="1248" y="1218" on="1"/>
        <pt x="1239" y="1218" on="0"/>
        <pt x="1173" y="1270" on="0"/>
        <pt x="1163" y="1270" on="1"/>
        <pt x="1153" y="1270" on="0"/>
        <pt x="1113" y="1221" on="1"/>
        <pt x="1061" y="1157" on="0"/>
        <pt x="1043" y="1140" on="1"/>
        <pt x="991" y="1090" on="0"/>
        <pt x="862" y="1024" on="1"/>
        <pt x="826" y="1035" on="1"/>
        <pt x="826" y="1063" on="1"/>
        <pt x="891" y="1119" on="0"/>
        <pt x="956" y="1176" on="1"/>
        <pt x="1077" y="1284" on="0"/>
        <pt x="1077" y="1305" on="1"/>
        <pt x="1077" y="1316" on="0"/>
        <pt x="1020" y="1410" on="0"/>
        <pt x="1020" y="1428" on="1"/>
        <pt x="1020" y="1461" on="0"/>
        <pt x="1063" y="1534" on="1"/>
        <pt x="1112" y="1617" on="0"/>
        <pt x="1154" y="1617" on="1"/>
        <pt x="1204" y="1617" on="0"/>
        <pt x="1208" y="1517" on="1"/>
        <pt x="1208" y="1459" on="0"/>
        <pt x="1209" y="1400" on="1"/>
        <pt x="1215" y="1389" on="0"/>
        <pt x="1255" y="1346" on="1"/>
        <pt x="1281" y="1318" on="0"/>
      </contour>
      <contour>
        <pt x="2028" y="-81" on="1"/>
        <pt x="2028" y="-102" on="0"/>
        <pt x="1982" y="-174" on="0"/>
        <pt x="1967" y="-174" on="1"/>
        <pt x="1956" y="-174" on="0"/>
        <pt x="1917" y="-142" on="1"/>
        <pt x="1874" y="-107" on="0"/>
        <pt x="1874" y="-86" on="1"/>
        <pt x="1874" y="-64" on="0"/>
        <pt x="1936" y="20" on="0"/>
        <pt x="1955" y="20" on="1"/>
        <pt x="1982" y="20" on="0"/>
        <pt x="2007" y="-22" on="1"/>
        <pt x="2028" y="-58" on="0"/>
      </contour>
      <contour>
        <pt x="1289" y="752" on="1"/>
        <pt x="1289" y="732" on="0"/>
        <pt x="1265" y="690" on="1"/>
        <pt x="1239" y="645" on="0"/>
        <pt x="1224" y="645" on="1"/>
        <pt x="1205" y="645" on="0"/>
        <pt x="1177" y="688" on="1"/>
        <pt x="1150" y="728" on="0"/>
        <pt x="1150" y="747" on="1"/>
        <pt x="1150" y="768" on="0"/>
        <pt x="1170" y="806" on="1"/>
        <pt x="1192" y="850" on="0"/>
        <pt x="1212" y="850" on="1"/>
        <pt x="1228" y="850" on="0"/>
        <pt x="1289" y="776" on="0"/>
      </contour>
      <contour>
        <pt x="696" y="1705" on="1"/>
        <pt x="696" y="1687" on="0"/>
        <pt x="674" y="1629" on="1"/>
        <pt x="651" y="1565" on="0"/>
        <pt x="633" y="1556" on="1"/>
        <pt x="628" y="1570" on="0"/>
        <pt x="623" y="1632" on="1"/>
        <pt x="623" y="1642" on="0"/>
        <pt x="619" y="1652" on="1"/>
        <pt x="599" y="1730" on="0"/>
        <pt x="533" y="1730" on="1"/>
        <pt x="459" y="1730" on="0"/>
        <pt x="390" y="1588" on="1"/>
        <pt x="330" y="1467" on="0"/>
        <pt x="330" y="1402" on="1"/>
        <pt x="330" y="1391" on="0"/>
        <pt x="362" y="1298" on="0"/>
        <pt x="362" y="1285" on="1"/>
        <pt x="362" y="1218" on="0"/>
        <pt x="326" y="1218" on="1"/>
        <pt x="272" y="1218" on="0"/>
        <pt x="272" y="1341" on="1"/>
        <pt x="272" y="1494" on="0"/>
        <pt x="358" y="1666" on="1"/>
        <pt x="451" y="1853" on="0"/>
        <pt x="557" y="1853" on="1"/>
        <pt x="610" y="1853" on="0"/>
        <pt x="648" y="1819" on="1"/>
        <pt x="696" y="1778" on="0"/>
      </contour>
      <contour>
        <pt x="2199" y="260" on="1"/>
        <pt x="2199" y="217" on="0"/>
        <pt x="2156" y="188" on="1"/>
        <pt x="2137" y="174" on="0"/>
        <pt x="2069" y="174" on="1"/>
        <pt x="2059" y="174" on="0"/>
        <pt x="1974" y="184" on="0"/>
        <pt x="1963" y="184" on="1"/>
        <pt x="1894" y="184" on="0"/>
        <pt x="1505" y="10" on="0"/>
        <pt x="1443" y="10" on="1"/>
        <pt x="1397" y="10" on="0"/>
        <pt x="1365" y="23" on="1"/>
        <pt x="1353" y="28" on="0"/>
        <pt x="1325" y="61" on="1"/>
        <pt x="1300" y="92" on="0"/>
        <pt x="1289" y="92" on="1"/>
        <pt x="1274" y="92" on="0"/>
        <pt x="1215" y="52" on="1"/>
        <pt x="1153" y="10" on="0"/>
        <pt x="1135" y="-18" on="1"/>
        <pt x="1123" y="-39" on="0"/>
        <pt x="1106" y="-104" on="1"/>
        <pt x="1087" y="-175" on="0"/>
        <pt x="1073" y="-202" on="1"/>
        <pt x="987" y="-379" on="0"/>
        <pt x="880" y="-427" on="1"/>
        <pt x="805" y="-461" on="0"/>
        <pt x="716" y="-461" on="1"/>
        <pt x="654" y="-461" on="0"/>
        <pt x="502" y="-417" on="1"/>
        <pt x="502" y="-405" on="0"/>
        <pt x="484" y="-384" on="1"/>
        <pt x="505" y="-358" on="0"/>
        <pt x="542" y="-358" on="1"/>
        <pt x="551" y="-358" on="0"/>
        <pt x="637" y="-368" on="0"/>
        <pt x="646" y="-368" on="1"/>
        <pt x="757" y="-368" on="0"/>
        <pt x="866" y="-287" on="1"/>
        <pt x="984" y="-200" on="0"/>
        <pt x="1045" y="-54" on="1"/>
        <pt x="1045" y="-45" on="0"/>
        <pt x="1031" y="-34" on="1"/>
        <pt x="955" y="-21" on="0"/>
        <pt x="928" y="-8" on="1"/>
        <pt x="857" y="25" on="0"/>
        <pt x="857" y="102" on="1"/>
        <pt x="857" y="120" on="0"/>
        <pt x="898" y="215" on="1"/>
        <pt x="939" y="315" on="0"/>
        <pt x="957" y="333" on="1"/>
        <pt x="973" y="348" on="0"/>
        <pt x="996" y="348" on="1"/>
        <pt x="1041" y="348" on="0"/>
        <pt x="1127" y="143" on="0"/>
        <pt x="1142" y="143" on="1"/>
        <pt x="1150" y="143" on="0"/>
        <pt x="1301" y="256" on="0"/>
        <pt x="1313" y="256" on="1"/>
        <pt x="1324" y="256" on="0"/>
        <pt x="1359" y="224" on="1"/>
        <pt x="1408" y="182" on="0"/>
        <pt x="1416" y="176" on="1"/>
        <pt x="1434" y="164" on="0"/>
        <pt x="1488" y="164" on="1"/>
        <pt x="1577" y="164" on="0"/>
        <pt x="1631" y="211" on="1"/>
        <pt x="1616" y="266" on="0"/>
        <pt x="1446" y="266" on="1"/>
        <pt x="1444" y="268" on="0"/>
        <pt x="1444" y="269" on="1"/>
        <pt x="1435" y="279" on="0"/>
        <pt x="1435" y="297" on="1"/>
        <pt x="1435" y="364" on="0"/>
        <pt x="1549" y="464" on="1"/>
        <pt x="1624" y="531" on="0"/>
        <pt x="1689" y="569" on="1"/>
        <pt x="1696" y="573" on="0"/>
        <pt x="1801" y="605" on="1"/>
        <pt x="1882" y="631" on="0"/>
        <pt x="1912" y="674" on="1"/>
        <pt x="1916" y="700" on="0"/>
        <pt x="1925" y="744" on="1"/>
        <pt x="1947" y="816" on="0"/>
        <pt x="1981" y="859" on="1"/>
        <pt x="1989" y="864" on="0"/>
        <pt x="2001" y="864" on="1"/>
        <pt x="2041" y="864" on="0"/>
        <pt x="2159" y="753" on="0"/>
        <pt x="2159" y="717" on="1"/>
        <pt x="2159" y="635" on="0"/>
        <pt x="2084" y="589" on="1"/>
        <pt x="2060" y="574" on="0"/>
        <pt x="1960" y="539" on="1"/>
        <pt x="1829" y="492" on="0"/>
        <pt x="1808" y="483" on="1"/>
        <pt x="1719" y="447" on="0"/>
        <pt x="1662" y="403" on="1"/>
        <pt x="1661" y="398" on="0"/>
        <pt x="1669" y="391" on="1"/>
        <pt x="1825" y="335" on="0"/>
        <pt x="2180" y="313" on="1"/>
        <pt x="2185" y="309" on="0"/>
        <pt x="2199" y="293" on="1"/>
      </contour>
      <contour>
        <pt x="623" y="1285" on="1"/>
        <pt x="623" y="1266" on="0"/>
        <pt x="599" y="1229" on="0"/>
        <pt x="586" y="1229" on="1"/>
        <pt x="576" y="1229" on="0"/>
        <pt x="515" y="1259" on="0"/>
        <pt x="505" y="1259" on="1"/>
        <pt x="495" y="1259" on="0"/>
        <pt x="461" y="1210" on="1"/>
        <pt x="415" y="1144" on="0"/>
        <pt x="401" y="1127" on="1"/>
        <pt x="399" y="1125" on="0"/>
        <pt x="270" y="1025" on="1"/>
        <pt x="233" y="1025" on="1"/>
        <pt x="233" y="1058" on="1"/>
        <pt x="232" y="1071" on="0"/>
        <pt x="419" y="1277" on="0"/>
        <pt x="419" y="1290" on="1"/>
        <pt x="419" y="1301" on="0"/>
        <pt x="370" y="1394" on="0"/>
        <pt x="370" y="1407" on="1"/>
        <pt x="370" y="1448" on="0"/>
        <pt x="403" y="1512" on="1"/>
        <pt x="442" y="1587" on="0"/>
        <pt x="484" y="1587" on="1"/>
        <pt x="545" y="1587" on="0"/>
        <pt x="562" y="1511" on="1"/>
        <pt x="563" y="1511" on="0"/>
        <pt x="554" y="1399" on="1"/>
        <pt x="575" y="1370" on="0"/>
        <pt x="596" y="1340" on="1"/>
        <pt x="623" y="1300" on="0"/>
      </contour>
      <contour>
        <pt x="444" y="717" on="1"/>
        <pt x="444" y="679" on="0"/>
        <pt x="401" y="624" on="0"/>
        <pt x="383" y="624" on="1"/>
        <pt x="356" y="624" on="0"/>
        <pt x="334" y="655" on="1"/>
        <pt x="314" y="682" on="0"/>
        <pt x="314" y="706" on="1"/>
        <pt x="314" y="732" on="0"/>
        <pt x="326" y="765" on="1"/>
        <pt x="342" y="809" on="0"/>
        <pt x="366" y="809" on="1"/>
        <pt x="396" y="809" on="0"/>
        <pt x="422" y="773" on="1"/>
        <pt x="444" y="741" on="0"/>
      </contour>
      <contour>
        <pt x="703" y="220" on="1"/>
        <pt x="703" y="153" on="0"/>
        <pt x="700" y="135" on="1"/>
        <pt x="693" y="96" on="0"/>
        <pt x="625" y="-30" on="0"/>
        <pt x="538" y="-68" on="1"/>
        <pt x="416" y="-122" on="0"/>
        <pt x="375" y="-122" on="1"/>
        <pt x="276" y="-122" on="0"/>
        <pt x="215" y="-56" on="1"/>
        <pt x="151" y="14" on="0"/>
        <pt x="151" y="138" on="1"/>
        <pt x="151" y="197" on="0"/>
        <pt x="185" y="288" on="1"/>
        <pt x="226" y="397" on="0"/>
        <pt x="280" y="408" on="1"/>
        <pt x="280" y="362" on="1"/>
        <pt x="280" y="352" on="0"/>
        <pt x="232" y="235" on="0"/>
        <pt x="232" y="220" on="1"/>
        <pt x="232" y="134" on="0"/>
        <pt x="282" y="79" on="1"/>
        <pt x="327" y="30" on="0"/>
        <pt x="391" y="30" on="1"/>
        <pt x="448" y="30" on="0"/>
        <pt x="533" y="79" on="1"/>
        <pt x="630" y="135" on="0"/>
        <pt x="630" y="200" on="1"/>
        <pt x="630" y="212" on="0"/>
        <pt x="542" y="469" on="0"/>
        <pt x="542" y="481" on="1"/>
        <pt x="542" y="516" on="0"/>
        <pt x="576" y="603" on="1"/>
        <pt x="606" y="603" on="0"/>
        <pt x="619" y="570" on="1"/>
        <pt x="670" y="436" on="0"/>
        <pt x="680" y="402" on="1"/>
        <pt x="703" y="317" on="0"/>
      </contour>
      <contour>
        <pt x="1141" y="1434" on="1"/>
        <pt x="1141" y="1471" on="1"/>
        <pt x="1133" y="1483" on="0"/>
        <pt x="1111" y="1483" on="1"/>
        <pt x="1111" y="1466" on="0"/>
      </contour>
      <contour>
        <pt x="492" y="1439" on="1"/>
        <pt x="484" y="1448" on="0"/>
        <pt x="483" y="1462" on="1"/>
        <pt x="452" y="1462" on="1"/>
        <pt x="458" y="1447" on="0"/>
        <pt x="472" y="1439" on="1"/>
        <pt x="486" y="1430" on="0"/>
      </contour>
      <contour>
        <pt x="998" y="153" on="1"/>
        <pt x="969" y="178" on="1"/>
        <pt x="962" y="164" on="1"/>
        <pt x="991" y="139" on="1"/>
      </contour>
    </TTGlyph>
    <TTGlyph name="endash" xMin="151" yMin="-461" xMax="1175" yMax="1853">
      <contour>
        <pt x="1159" y="1601" on="1"/>
        <pt x="1159" y="1566" on="0"/>
        <pt x="1074" y="1430" on="1"/>
        <pt x="999" y="1310" on="0"/>
        <pt x="957" y="1259" on="1"/>
        <pt x="954" y="1264" on="0"/>
        <pt x="948" y="1275" on="0"/>
        <pt x="948" y="1290" on="1"/>
        <pt x="948" y="1339" on="0"/>
        <pt x="965" y="1367" on="1"/>
        <pt x="1126" y="1638" on="0"/>
        <pt x="1137" y="1637" on="1"/>
        <pt x="1159" y="1637" on="1"/>
      </contour>
      <contour>
        <pt x="939" y="1437" on="1"/>
        <pt x="939" y="1405" on="0"/>
        <pt x="889" y="1338" on="1"/>
        <pt x="843" y="1276" on="0"/>
        <pt x="815" y="1259" on="1"/>
        <pt x="805" y="1285" on="1"/>
        <pt x="811" y="1299" on="0"/>
        <pt x="837" y="1344" on="1"/>
        <pt x="855" y="1376" on="0"/>
        <pt x="858" y="1407" on="1"/>
        <pt x="852" y="1423" on="0"/>
        <pt x="844" y="1423" on="1"/>
        <pt x="840" y="1423" on="0"/>
        <pt x="796" y="1363" on="0"/>
        <pt x="792" y="1352" on="1"/>
        <pt x="777" y="1352" on="1"/>
        <pt x="777" y="1396" on="1"/>
        <pt x="777" y="1446" on="0"/>
        <pt x="815" y="1495" on="1"/>
        <pt x="846" y="1536" on="0"/>
        <pt x="860" y="1536" on="1"/>
        <pt x="896" y="1536" on="0"/>
        <pt x="939" y="1482" on="1"/>
      </contour>
      <contour>
        <pt x="716" y="1285" on="1"/>
        <pt x="716" y="1273" on="0"/>
        <pt x="711" y="1242" on="0"/>
        <pt x="711" y="1231" on="1"/>
        <pt x="711" y="1230" on="0"/>
        <pt x="711" y="1229" on="1"/>
        <pt x="707" y="1218" on="0"/>
        <pt x="700" y="1218" on="1"/>
        <pt x="695" y="1218" on="0"/>
        <pt x="662" y="1270" on="0"/>
        <pt x="657" y="1270" on="1"/>
        <pt x="652" y="1270" on="0"/>
        <pt x="632" y="1221" on="1"/>
        <pt x="606" y="1157" on="0"/>
        <pt x="597" y="1140" on="1"/>
        <pt x="571" y="1090" on="0"/>
        <pt x="507" y="1024" on="1"/>
        <pt x="488" y="1035" on="1"/>
        <pt x="488" y="1063" on="1"/>
        <pt x="521" y="1119" on="0"/>
        <pt x="553" y="1176" on="1"/>
        <pt x="614" y="1284" on="0"/>
        <pt x="614" y="1305" on="1"/>
        <pt x="614" y="1316" on="0"/>
        <pt x="586" y="1410" on="0"/>
        <pt x="586" y="1428" on="1"/>
        <pt x="586" y="1461" on="0"/>
        <pt x="607" y="1534" on="1"/>
        <pt x="632" y="1617" on="0"/>
        <pt x="653" y="1617" on="1"/>
        <pt x="678" y="1617" on="0"/>
        <pt x="679" y="1517" on="1"/>
        <pt x="680" y="1459" on="0"/>
        <pt x="680" y="1400" on="1"/>
        <pt x="683" y="1389" on="0"/>
        <pt x="703" y="1346" on="1"/>
        <pt x="716" y="1318" on="0"/>
      </contour>
      <contour>
        <pt x="1090" y="-81" on="1"/>
        <pt x="1090" y="-102" on="0"/>
        <pt x="1067" y="-174" on="0"/>
        <pt x="1059" y="-174" on="1"/>
        <pt x="1054" y="-174" on="0"/>
        <pt x="1034" y="-142" on="1"/>
        <pt x="1013" y="-107" on="0"/>
        <pt x="1013" y="-86" on="1"/>
        <pt x="1013" y="-64" on="0"/>
        <pt x="1044" y="20" on="0"/>
        <pt x="1053" y="20" on="1"/>
        <pt x="1067" y="20" on="0"/>
        <pt x="1079" y="-22" on="1"/>
        <pt x="1090" y="-58" on="0"/>
      </contour>
      <contour>
        <pt x="720" y="752" on="1"/>
        <pt x="720" y="732" on="0"/>
        <pt x="708" y="690" on="1"/>
        <pt x="695" y="645" on="0"/>
        <pt x="688" y="645" on="1"/>
        <pt x="678" y="645" on="0"/>
        <pt x="664" y="688" on="1"/>
        <pt x="651" y="728" on="0"/>
        <pt x="651" y="747" on="1"/>
        <pt x="651" y="768" on="0"/>
        <pt x="661" y="806" on="1"/>
        <pt x="672" y="850" on="0"/>
        <pt x="681" y="850" on="1"/>
        <pt x="690" y="850" on="0"/>
        <pt x="720" y="776" on="0"/>
      </contour>
      <contour>
        <pt x="423" y="1705" on="1"/>
        <pt x="423" y="1687" on="0"/>
        <pt x="413" y="1629" on="1"/>
        <pt x="401" y="1565" on="0"/>
        <pt x="392" y="1556" on="1"/>
        <pt x="390" y="1570" on="0"/>
        <pt x="387" y="1632" on="1"/>
        <pt x="387" y="1642" on="0"/>
        <pt x="385" y="1652" on="1"/>
        <pt x="375" y="1730" on="0"/>
        <pt x="342" y="1730" on="1"/>
        <pt x="305" y="1730" on="0"/>
        <pt x="270" y="1588" on="1"/>
        <pt x="240" y="1467" on="0"/>
        <pt x="240" y="1402" on="1"/>
        <pt x="240" y="1391" on="0"/>
        <pt x="257" y="1298" on="0"/>
        <pt x="257" y="1285" on="1"/>
        <pt x="257" y="1218" on="0"/>
        <pt x="238" y="1218" on="1"/>
        <pt x="212" y="1218" on="0"/>
        <pt x="212" y="1341" on="1"/>
        <pt x="212" y="1494" on="0"/>
        <pt x="255" y="1666" on="1"/>
        <pt x="301" y="1853" on="0"/>
        <pt x="354" y="1853" on="1"/>
        <pt x="380" y="1853" on="0"/>
        <pt x="399" y="1819" on="1"/>
        <pt x="423" y="1778" on="0"/>
      </contour>
      <contour>
        <pt x="1175" y="260" on="1"/>
        <pt x="1175" y="217" on="0"/>
        <pt x="1154" y="188" on="1"/>
        <pt x="1144" y="174" on="0"/>
        <pt x="1110" y="174" on="1"/>
        <pt x="1105" y="174" on="0"/>
        <pt x="1062" y="184" on="0"/>
        <pt x="1057" y="184" on="1"/>
        <pt x="1023" y="184" on="0"/>
        <pt x="828" y="10" on="0"/>
        <pt x="797" y="10" on="1"/>
        <pt x="774" y="10" on="0"/>
        <pt x="758" y="23" on="1"/>
        <pt x="752" y="28" on="0"/>
        <pt x="738" y="61" on="1"/>
        <pt x="725" y="92" on="0"/>
        <pt x="720" y="92" on="1"/>
        <pt x="713" y="92" on="0"/>
        <pt x="683" y="52" on="1"/>
        <pt x="652" y="10" on="0"/>
        <pt x="643" y="-18" on="1"/>
        <pt x="637" y="-39" on="0"/>
        <pt x="628" y="-104" on="1"/>
        <pt x="619" y="-175" on="0"/>
        <pt x="612" y="-202" on="1"/>
        <pt x="569" y="-379" on="0"/>
        <pt x="515" y="-427" on="1"/>
        <pt x="478" y="-461" on="0"/>
        <pt x="434" y="-461" on="1"/>
        <pt x="403" y="-461" on="0"/>
        <pt x="326" y="-417" on="1"/>
        <pt x="326" y="-405" on="0"/>
        <pt x="317" y="-384" on="1"/>
        <pt x="328" y="-358" on="0"/>
        <pt x="346" y="-358" on="1"/>
        <pt x="351" y="-358" on="0"/>
        <pt x="394" y="-368" on="0"/>
        <pt x="399" y="-368" on="1"/>
        <pt x="454" y="-368" on="0"/>
        <pt x="509" y="-287" on="1"/>
        <pt x="567" y="-200" on="0"/>
        <pt x="598" y="-54" on="1"/>
        <pt x="598" y="-45" on="0"/>
        <pt x="591" y="-34" on="1"/>
        <pt x="553" y="-21" on="0"/>
        <pt x="540" y="-8" on="1"/>
        <pt x="504" y="25" on="0"/>
        <pt x="504" y="102" on="1"/>
        <pt x="504" y="120" on="0"/>
        <pt x="524" y="215" on="1"/>
        <pt x="545" y="315" on="0"/>
        <pt x="554" y="333" on="1"/>
        <pt x="562" y="348" on="0"/>
        <pt x="574" y="348" on="1"/>
        <pt x="596" y="348" on="0"/>
        <pt x="639" y="143" on="0"/>
        <pt x="647" y="143" on="1"/>
        <pt x="651" y="143" on="0"/>
        <pt x="726" y="256" on="0"/>
        <pt x="732" y="256" on="1"/>
        <pt x="738" y="256" on="0"/>
        <pt x="755" y="224" on="1"/>
        <pt x="780" y="182" on="0"/>
        <pt x="784" y="176" on="1"/>
        <pt x="792" y="164" on="0"/>
        <pt x="819" y="164" on="1"/>
        <pt x="864" y="164" on="0"/>
        <pt x="891" y="211" on="1"/>
        <pt x="883" y="266" on="0"/>
        <pt x="798" y="266" on="1"/>
        <pt x="798" y="268" on="0"/>
        <pt x="798" y="269" on="1"/>
        <pt x="793" y="279" on="0"/>
        <pt x="793" y="297" on="1"/>
        <pt x="793" y="364" on="0"/>
        <pt x="850" y="464" on="1"/>
        <pt x="888" y="531" on="0"/>
        <pt x="920" y="569" on="1"/>
        <pt x="923" y="573" on="0"/>
        <pt x="976" y="605" on="1"/>
        <pt x="1017" y="631" on="0"/>
        <pt x="1032" y="674" on="1"/>
        <pt x="1033" y="700" on="0"/>
        <pt x="1038" y="744" on="1"/>
        <pt x="1049" y="816" on="0"/>
        <pt x="1066" y="859" on="1"/>
        <pt x="1070" y="864" on="0"/>
        <pt x="1076" y="864" on="1"/>
        <pt x="1096" y="864" on="0"/>
        <pt x="1155" y="753" on="0"/>
        <pt x="1155" y="717" on="1"/>
        <pt x="1155" y="635" on="0"/>
        <pt x="1117" y="589" on="1"/>
        <pt x="1106" y="574" on="0"/>
        <pt x="1056" y="539" on="1"/>
        <pt x="990" y="492" on="0"/>
        <pt x="979" y="483" on="1"/>
        <pt x="935" y="447" on="0"/>
        <pt x="907" y="403" on="1"/>
        <pt x="906" y="398" on="0"/>
        <pt x="910" y="391" on="1"/>
        <pt x="988" y="335" on="0"/>
        <pt x="1165" y="313" on="1"/>
        <pt x="1168" y="309" on="0"/>
        <pt x="1175" y="293" on="1"/>
      </contour>
      <contour>
        <pt x="387" y="1285" on="1"/>
        <pt x="387" y="1266" on="0"/>
        <pt x="375" y="1229" on="0"/>
        <pt x="369" y="1229" on="1"/>
        <pt x="363" y="1229" on="0"/>
        <pt x="333" y="1259" on="0"/>
        <pt x="328" y="1259" on="1"/>
        <pt x="323" y="1259" on="0"/>
        <pt x="306" y="1210" on="1"/>
        <pt x="283" y="1144" on="0"/>
        <pt x="276" y="1127" on="1"/>
        <pt x="275" y="1125" on="0"/>
        <pt x="211" y="1025" on="1"/>
        <pt x="192" y="1025" on="1"/>
        <pt x="192" y="1058" on="1"/>
        <pt x="191" y="1071" on="0"/>
        <pt x="285" y="1277" on="0"/>
        <pt x="285" y="1290" on="1"/>
        <pt x="285" y="1301" on="0"/>
        <pt x="261" y="1394" on="0"/>
        <pt x="261" y="1407" on="1"/>
        <pt x="261" y="1448" on="0"/>
        <pt x="277" y="1512" on="1"/>
        <pt x="296" y="1587" on="0"/>
        <pt x="317" y="1587" on="1"/>
        <pt x="348" y="1587" on="0"/>
        <pt x="357" y="1511" on="1"/>
        <pt x="357" y="1511" on="0"/>
        <pt x="353" y="1399" on="1"/>
        <pt x="363" y="1370" on="0"/>
        <pt x="373" y="1340" on="1"/>
        <pt x="387" y="1300" on="0"/>
      </contour>
      <contour>
        <pt x="297" y="717" on="1"/>
        <pt x="297" y="679" on="0"/>
        <pt x="276" y="624" on="0"/>
        <pt x="267" y="624" on="1"/>
        <pt x="253" y="624" on="0"/>
        <pt x="242" y="655" on="1"/>
        <pt x="232" y="682" on="0"/>
        <pt x="232" y="706" on="1"/>
        <pt x="232" y="732" on="0"/>
        <pt x="238" y="765" on="1"/>
        <pt x="247" y="809" on="0"/>
        <pt x="259" y="809" on="1"/>
        <pt x="274" y="809" on="0"/>
        <pt x="286" y="773" on="1"/>
        <pt x="297" y="741" on="0"/>
      </contour>
      <contour>
        <pt x="427" y="220" on="1"/>
        <pt x="427" y="153" on="0"/>
        <pt x="426" y="135" on="1"/>
        <pt x="422" y="96" on="0"/>
        <pt x="388" y="-30" on="0"/>
        <pt x="345" y="-68" on="1"/>
        <pt x="284" y="-122" on="0"/>
        <pt x="263" y="-122" on="1"/>
        <pt x="213" y="-122" on="0"/>
        <pt x="183" y="-56" on="1"/>
        <pt x="151" y="14" on="0"/>
        <pt x="151" y="138" on="1"/>
        <pt x="151" y="197" on="0"/>
        <pt x="168" y="288" on="1"/>
        <pt x="189" y="397" on="0"/>
        <pt x="216" y="408" on="1"/>
        <pt x="216" y="362" on="1"/>
        <pt x="216" y="352" on="0"/>
        <pt x="191" y="235" on="0"/>
        <pt x="191" y="220" on="1"/>
        <pt x="191" y="134" on="0"/>
        <pt x="216" y="79" on="1"/>
        <pt x="239" y="30" on="0"/>
        <pt x="271" y="30" on="1"/>
        <pt x="299" y="30" on="0"/>
        <pt x="342" y="79" on="1"/>
        <pt x="391" y="135" on="0"/>
        <pt x="391" y="200" on="1"/>
        <pt x="391" y="212" on="0"/>
        <pt x="346" y="469" on="0"/>
        <pt x="346" y="481" on="1"/>
        <pt x="346" y="516" on="0"/>
        <pt x="363" y="603" on="1"/>
        <pt x="378" y="603" on="0"/>
        <pt x="385" y="570" on="1"/>
        <pt x="411" y="436" on="0"/>
        <pt x="415" y="402" on="1"/>
        <pt x="427" y="317" on="0"/>
      </contour>
      <contour>
        <pt x="646" y="1434" on="1"/>
        <pt x="646" y="1471" on="1"/>
        <pt x="642" y="1483" on="0"/>
        <pt x="631" y="1483" on="1"/>
        <pt x="631" y="1466" on="0"/>
      </contour>
      <contour>
        <pt x="322" y="1439" on="1"/>
        <pt x="317" y="1448" on="0"/>
        <pt x="317" y="1462" on="1"/>
        <pt x="301" y="1462" on="1"/>
        <pt x="305" y="1447" on="0"/>
        <pt x="312" y="1439" on="1"/>
        <pt x="318" y="1430" on="0"/>
      </contour>
      <contour>
        <pt x="574" y="153" on="1"/>
        <pt x="560" y="178" on="1"/>
        <pt x="557" y="164" on="1"/>
        <pt x="571" y="139" on="1"/>
      </contour>
    </TTGlyph>
    <TTGlyph name="equal" xMin="142" yMin="226" xMax="842" yMax="1588">
      <contour>
        <pt x="142" y="226" on="1"/>
        <pt x="142" y="1588" on="1"/>
        <pt x="842" y="1588" on="1"/>
        <pt x="842" y="226" on="1"/>
      </contour>
      <contour>
        <pt x="284" y="368" on="1"/>
        <pt x="700" y="368" on="1"/>
        <pt x="700" y="1447" on="1"/>
        <pt x="284" y="1447" on="1"/>
      </contour>
    </TTGlyph>
    <TTGlyph name="exclam" xMin="142" yMin="226" xMax="842" yMax="1588">
      <contour>
        <pt x="142" y="226" on="1"/>
        <pt x="142" y="1588" on="1"/>
        <pt x="842" y="1588" on="1"/>
        <pt x="842" y="226" on="1"/>
      </contour>
      <contour>
        <pt x="284" y="368" on="1"/>
        <pt x="700" y="368" on="1"/>
        <pt x="700" y="1447" on="1"/>
        <pt x="284" y="1447" on="1"/>
      </contour>
    </TTGlyph>
    <TTGlyph name="figuredash" xMin="151" yMin="-461" xMax="2731" yMax="1853">
      <contour>
        <pt x="2690" y="1601" on="1"/>
        <pt x="2690" y="1566" on="0"/>
        <pt x="2476" y="1430" on="1"/>
        <pt x="2288" y="1310" on="0"/>
        <pt x="2183" y="1259" on="1"/>
        <pt x="2174" y="1264" on="0"/>
        <pt x="2158" y="1275" on="0"/>
        <pt x="2158" y="1290" on="1"/>
        <pt x="2158" y="1339" on="0"/>
        <pt x="2201" y="1367" on="1"/>
        <pt x="2607" y="1638" on="0"/>
        <pt x="2635" y="1637" on="1"/>
        <pt x="2690" y="1637" on="1"/>
      </contour>
      <contour>
        <pt x="2137" y="1437" on="1"/>
        <pt x="2137" y="1405" on="0"/>
        <pt x="2010" y="1338" on="1"/>
        <pt x="1894" y="1276" on="0"/>
        <pt x="1824" y="1259" on="1"/>
        <pt x="1799" y="1285" on="1"/>
        <pt x="1813" y="1299" on="0"/>
        <pt x="1879" y="1344" on="1"/>
        <pt x="1925" y="1376" on="0"/>
        <pt x="1933" y="1407" on="1"/>
        <pt x="1916" y="1423" on="0"/>
        <pt x="1897" y="1423" on="1"/>
        <pt x="1887" y="1423" on="0"/>
        <pt x="1777" y="1363" on="0"/>
        <pt x="1766" y="1352" on="1"/>
        <pt x="1728" y="1352" on="1"/>
        <pt x="1728" y="1396" on="1"/>
        <pt x="1728" y="1446" on="0"/>
        <pt x="1823" y="1495" on="1"/>
        <pt x="1902" y="1536" on="0"/>
        <pt x="1938" y="1536" on="1"/>
        <pt x="2029" y="1536" on="0"/>
        <pt x="2137" y="1482" on="1"/>
      </contour>
      <contour>
        <pt x="1574" y="1285" on="1"/>
        <pt x="1574" y="1273" on="0"/>
        <pt x="1563" y="1242" on="0"/>
        <pt x="1563" y="1231" on="1"/>
        <pt x="1562" y="1230" on="0"/>
        <pt x="1561" y="1229" on="1"/>
        <pt x="1552" y="1218" on="0"/>
        <pt x="1533" y="1218" on="1"/>
        <pt x="1521" y="1218" on="0"/>
        <pt x="1439" y="1270" on="0"/>
        <pt x="1426" y="1270" on="1"/>
        <pt x="1413" y="1270" on="0"/>
        <pt x="1363" y="1221" on="1"/>
        <pt x="1298" y="1157" on="0"/>
        <pt x="1275" y="1140" on="1"/>
        <pt x="1209" y="1090" on="0"/>
        <pt x="1047" y="1024" on="1"/>
        <pt x="1001" y="1035" on="1"/>
        <pt x="1001" y="1063" on="1"/>
        <pt x="1083" y="1119" on="0"/>
        <pt x="1165" y="1176" on="1"/>
        <pt x="1318" y="1284" on="0"/>
        <pt x="1318" y="1305" on="1"/>
        <pt x="1318" y="1316" on="0"/>
        <pt x="1246" y="1410" on="0"/>
        <pt x="1246" y="1428" on="1"/>
        <pt x="1246" y="1461" on="0"/>
        <pt x="1300" y="1534" on="1"/>
        <pt x="1362" y="1617" on="0"/>
        <pt x="1415" y="1617" on="1"/>
        <pt x="1478" y="1617" on="0"/>
        <pt x="1482" y="1517" on="1"/>
        <pt x="1483" y="1459" on="0"/>
        <pt x="1484" y="1400" on="1"/>
        <pt x="1491" y="1389" on="0"/>
        <pt x="1542" y="1346" on="1"/>
        <pt x="1574" y="1318" on="0"/>
      </contour>
      <contour>
        <pt x="2516" y="-81" on="1"/>
        <pt x="2516" y="-102" on="0"/>
        <pt x="2458" y="-174" on="0"/>
        <pt x="2439" y="-174" on="1"/>
        <pt x="2425" y="-174" on="0"/>
        <pt x="2376" y="-142" on="1"/>
        <pt x="2322" y="-107" on="0"/>
        <pt x="2322" y="-86" on="1"/>
        <pt x="2322" y="-64" on="0"/>
        <pt x="2400" y="20" on="0"/>
        <pt x="2424" y="20" on="1"/>
        <pt x="2458" y="20" on="0"/>
        <pt x="2489" y="-22" on="1"/>
        <pt x="2516" y="-58" on="0"/>
      </contour>
      <contour>
        <pt x="1585" y="752" on="1"/>
        <pt x="1585" y="732" on="0"/>
        <pt x="1554" y="690" on="1"/>
        <pt x="1522" y="645" on="0"/>
        <pt x="1503" y="645" on="1"/>
        <pt x="1479" y="645" on="0"/>
        <pt x="1444" y="688" on="1"/>
        <pt x="1410" y="728" on="0"/>
        <pt x="1410" y="747" on="1"/>
        <pt x="1410" y="768" on="0"/>
        <pt x="1435" y="806" on="1"/>
        <pt x="1463" y="850" on="0"/>
        <pt x="1487" y="850" on="1"/>
        <pt x="1508" y="850" on="0"/>
        <pt x="1585" y="776" on="0"/>
      </contour>
      <contour>
        <pt x="837" y="1705" on="1"/>
        <pt x="837" y="1687" on="0"/>
        <pt x="810" y="1629" on="1"/>
        <pt x="781" y="1565" on="0"/>
        <pt x="758" y="1556" on="1"/>
        <pt x="752" y="1570" on="0"/>
        <pt x="746" y="1632" on="1"/>
        <pt x="745" y="1642" on="0"/>
        <pt x="741" y="1652" on="1"/>
        <pt x="715" y="1730" on="0"/>
        <pt x="632" y="1730" on="1"/>
        <pt x="539" y="1730" on="0"/>
        <pt x="452" y="1588" on="1"/>
        <pt x="376" y="1467" on="0"/>
        <pt x="376" y="1402" on="1"/>
        <pt x="376" y="1391" on="0"/>
        <pt x="417" y="1298" on="0"/>
        <pt x="417" y="1285" on="1"/>
        <pt x="417" y="1218" on="0"/>
        <pt x="371" y="1218" on="1"/>
        <pt x="304" y="1218" on="0"/>
        <pt x="304" y="1341" on="1"/>
        <pt x="304" y="1494" on="0"/>
        <pt x="412" y="1666" on="1"/>
        <pt x="529" y="1853" on="0"/>
        <pt x="663" y="1853" on="1"/>
        <pt x="729" y="1853" on="0"/>
        <pt x="777" y="1819" on="1"/>
        <pt x="837" y="1778" on="0"/>
      </contour>
      <contour>
        <pt x="2731" y="260" on="1"/>
        <pt x="2731" y="217" on="0"/>
        <pt x="2677" y="188" on="1"/>
        <pt x="2653" y="174" on="0"/>
        <pt x="2567" y="174" on="1"/>
        <pt x="2555" y="174" on="0"/>
        <pt x="2447" y="184" on="0"/>
        <pt x="2434" y="184" on="1"/>
        <pt x="2347" y="184" on="0"/>
        <pt x="1857" y="10" on="0"/>
        <pt x="1779" y="10" on="1"/>
        <pt x="1721" y="10" on="0"/>
        <pt x="1680" y="23" on="1"/>
        <pt x="1665" y="28" on="0"/>
        <pt x="1630" y="61" on="1"/>
        <pt x="1598" y="92" on="0"/>
        <pt x="1585" y="92" on="1"/>
        <pt x="1566" y="92" on="0"/>
        <pt x="1492" y="52" on="1"/>
        <pt x="1413" y="10" on="0"/>
        <pt x="1391" y="-18" on="1"/>
        <pt x="1376" y="-39" on="0"/>
        <pt x="1354" y="-104" on="1"/>
        <pt x="1330" y="-175" on="0"/>
        <pt x="1313" y="-202" on="1"/>
        <pt x="1204" y="-379" on="0"/>
        <pt x="1069" y="-427" on="1"/>
        <pt x="975" y="-461" on="0"/>
        <pt x="863" y="-461" on="1"/>
        <pt x="785" y="-461" on="0"/>
        <pt x="593" y="-417" on="1"/>
        <pt x="593" y="-405" on="0"/>
        <pt x="570" y="-384" on="1"/>
        <pt x="597" y="-358" on="0"/>
        <pt x="643" y="-358" on="1"/>
        <pt x="655" y="-358" on="0"/>
        <pt x="763" y="-368" on="0"/>
        <pt x="775" y="-368" on="1"/>
        <pt x="915" y="-368" on="0"/>
        <pt x="1052" y="-287" on="1"/>
        <pt x="1200" y="-200" on="0"/>
        <pt x="1277" y="-54" on="1"/>
        <pt x="1277" y="-45" on="0"/>
        <pt x="1260" y="-34" on="1"/>
        <pt x="1164" y="-21" on="0"/>
        <pt x="1130" y="-8" on="1"/>
        <pt x="1041" y="25" on="0"/>
        <pt x="1041" y="102" on="1"/>
        <pt x="1041" y="120" on="0"/>
        <pt x="1092" y="215" on="1"/>
        <pt x="1144" y="315" on="0"/>
        <pt x="1167" y="333" on="1"/>
        <pt x="1186" y="348" on="0"/>
        <pt x="1216" y="348" on="1"/>
        <pt x="1272" y="348" on="0"/>
        <pt x="1381" y="143" on="0"/>
        <pt x="1400" y="143" on="1"/>
        <pt x="1410" y="143" on="0"/>
        <pt x="1600" y="256" on="0"/>
        <pt x="1615" y="256" on="1"/>
        <pt x="1629" y="256" on="0"/>
        <pt x="1673" y="224" on="1"/>
        <pt x="1735" y="182" on="0"/>
        <pt x="1745" y="176" on="1"/>
        <pt x="1767" y="164" on="0"/>
        <pt x="1835" y="164" on="1"/>
        <pt x="1948" y="164" on="0"/>
        <pt x="2015" y="211" on="1"/>
        <pt x="1996" y="266" on="0"/>
        <pt x="1782" y="266" on="1"/>
        <pt x="1780" y="268" on="0"/>
        <pt x="1780" y="269" on="1"/>
        <pt x="1769" y="279" on="0"/>
        <pt x="1769" y="297" on="1"/>
        <pt x="1769" y="364" on="0"/>
        <pt x="1912" y="464" on="1"/>
        <pt x="2007" y="531" on="0"/>
        <pt x="2089" y="569" on="1"/>
        <pt x="2097" y="573" on="0"/>
        <pt x="2230" y="605" on="1"/>
        <pt x="2332" y="631" on="0"/>
        <pt x="2370" y="674" on="1"/>
        <pt x="2374" y="700" on="0"/>
        <pt x="2386" y="744" on="1"/>
        <pt x="2414" y="816" on="0"/>
        <pt x="2457" y="859" on="1"/>
        <pt x="2466" y="864" on="0"/>
        <pt x="2481" y="864" on="1"/>
        <pt x="2532" y="864" on="0"/>
        <pt x="2680" y="753" on="0"/>
        <pt x="2680" y="717" on="1"/>
        <pt x="2680" y="635" on="0"/>
        <pt x="2586" y="589" on="1"/>
        <pt x="2556" y="574" on="0"/>
        <pt x="2430" y="539" on="1"/>
        <pt x="2265" y="492" on="0"/>
        <pt x="2238" y="483" on="1"/>
        <pt x="2126" y="447" on="0"/>
        <pt x="2055" y="403" on="1"/>
        <pt x="2053" y="398" on="0"/>
        <pt x="2063" y="391" on="1"/>
        <pt x="2260" y="335" on="0"/>
        <pt x="2707" y="313" on="1"/>
        <pt x="2713" y="309" on="0"/>
        <pt x="2731" y="293" on="1"/>
      </contour>
      <contour>
        <pt x="745" y="1285" on="1"/>
        <pt x="745" y="1266" on="0"/>
        <pt x="715" y="1229" on="0"/>
        <pt x="699" y="1229" on="1"/>
        <pt x="686" y="1229" on="0"/>
        <pt x="609" y="1259" on="0"/>
        <pt x="597" y="1259" on="1"/>
        <pt x="584" y="1259" on="0"/>
        <pt x="541" y="1210" on="1"/>
        <pt x="484" y="1144" on="0"/>
        <pt x="466" y="1127" on="1"/>
        <pt x="463" y="1125" on="0"/>
        <pt x="301" y="1025" on="1"/>
        <pt x="254" y="1025" on="1"/>
        <pt x="254" y="1058" on="1"/>
        <pt x="253" y="1071" on="0"/>
        <pt x="489" y="1277" on="0"/>
        <pt x="489" y="1290" on="1"/>
        <pt x="489" y="1301" on="0"/>
        <pt x="427" y="1394" on="0"/>
        <pt x="427" y="1407" on="1"/>
        <pt x="427" y="1448" on="0"/>
        <pt x="469" y="1512" on="1"/>
        <pt x="517" y="1587" on="0"/>
        <pt x="570" y="1587" on="1"/>
        <pt x="647" y="1587" on="0"/>
        <pt x="669" y="1511" on="1"/>
        <pt x="670" y="1511" on="0"/>
        <pt x="659" y="1399" on="1"/>
        <pt x="685" y="1370" on="0"/>
        <pt x="711" y="1340" on="1"/>
        <pt x="745" y="1300" on="0"/>
      </contour>
      <contour>
        <pt x="520" y="717" on="1"/>
        <pt x="520" y="679" on="0"/>
        <pt x="466" y="624" on="0"/>
        <pt x="443" y="624" on="1"/>
        <pt x="409" y="624" on="0"/>
        <pt x="381" y="655" on="1"/>
        <pt x="356" y="682" on="0"/>
        <pt x="356" y="706" on="1"/>
        <pt x="356" y="732" on="0"/>
        <pt x="371" y="765" on="1"/>
        <pt x="392" y="809" on="0"/>
        <pt x="422" y="809" on="1"/>
        <pt x="460" y="809" on="0"/>
        <pt x="492" y="773" on="1"/>
        <pt x="520" y="741" on="0"/>
      </contour>
      <contour>
        <pt x="847" y="220" on="1"/>
        <pt x="847" y="153" on="0"/>
        <pt x="843" y="135" on="1"/>
        <pt x="834" y="96" on="0"/>
        <pt x="748" y="-30" on="0"/>
        <pt x="639" y="-68" on="1"/>
        <pt x="485" y="-122" on="0"/>
        <pt x="433" y="-122" on="1"/>
        <pt x="308" y="-122" on="0"/>
        <pt x="232" y="-56" on="1"/>
        <pt x="151" y="14" on="0"/>
        <pt x="151" y="138" on="1"/>
        <pt x="151" y="197" on="0"/>
        <pt x="194" y="288" on="1"/>
        <pt x="246" y="397" on="0"/>
        <pt x="314" y="408" on="1"/>
        <pt x="314" y="362" on="1"/>
        <pt x="314" y="352" on="0"/>
        <pt x="253" y="235" on="0"/>
        <pt x="253" y="220" on="1"/>
        <pt x="253" y="134" on="0"/>
        <pt x="316" y="79" on="1"/>
        <pt x="373" y="30" on="0"/>
        <pt x="453" y="30" on="1"/>
        <pt x="525" y="30" on="0"/>
        <pt x="632" y="79" on="1"/>
        <pt x="755" y="135" on="0"/>
        <pt x="755" y="200" on="1"/>
        <pt x="755" y="212" on="0"/>
        <pt x="643" y="469" on="0"/>
        <pt x="643" y="481" on="1"/>
        <pt x="643" y="516" on="0"/>
        <pt x="686" y="603" on="1"/>
        <pt x="724" y="603" on="0"/>
        <pt x="741" y="570" on="1"/>
        <pt x="805" y="436" on="0"/>
        <pt x="817" y="402" on="1"/>
        <pt x="847" y="317" on="0"/>
      </contour>
      <contour>
        <pt x="1398" y="1434" on="1"/>
        <pt x="1398" y="1471" on="1"/>
        <pt x="1388" y="1483" on="0"/>
        <pt x="1361" y="1483" on="1"/>
        <pt x="1361" y="1466" on="0"/>
      </contour>
      <contour>
        <pt x="581" y="1439" on="1"/>
        <pt x="570" y="1448" on="0"/>
        <pt x="569" y="1462" on="1"/>
        <pt x="530" y="1462" on="1"/>
        <pt x="538" y="1447" on="0"/>
        <pt x="556" y="1439" on="1"/>
        <pt x="573" y="1430" on="0"/>
      </contour>
      <contour>
        <pt x="1218" y="153" on="1"/>
        <pt x="1182" y="178" on="1"/>
        <pt x="1173" y="164" on="1"/>
        <pt x="1209" y="139" on="1"/>
      </contour>
    </TTGlyph>
    <TTGlyph name="gaffinalarabic" xMin="142" yMin="226" xMax="842" yMax="1588">
      <contour>
        <pt x="142" y="226" on="1"/>
        <pt x="142" y="1588" on="1"/>
        <pt x="842" y="1588" on="1"/>
        <pt x="842" y="226" on="1"/>
      </contour>
      <contour>
        <pt x="284" y="368" on="1"/>
        <pt x="700" y="368" on="1"/>
        <pt x="700" y="1447" on="1"/>
        <pt x="284" y="1447" on="1"/>
      </contour>
    </TTGlyph>
    <TTGlyph name="gafinitialarabic" xMin="142" yMin="226" xMax="842" yMax="1588">
      <contour>
        <pt x="142" y="226" on="1"/>
        <pt x="142" y="1588" on="1"/>
        <pt x="842" y="1588" on="1"/>
        <pt x="842" y="226" on="1"/>
      </contour>
      <contour>
        <pt x="284" y="368" on="1"/>
        <pt x="700" y="368" on="1"/>
        <pt x="700" y="1447" on="1"/>
        <pt x="284" y="1447" on="1"/>
      </contour>
    </TTGlyph>
    <TTGlyph name="gafmedialarabic" xMin="142" yMin="226" xMax="842" yMax="1588">
      <contour>
        <pt x="142" y="226" on="1"/>
        <pt x="142" y="1588" on="1"/>
        <pt x="842" y="1588" on="1"/>
        <pt x="842" y="226" on="1"/>
      </contour>
      <contour>
        <pt x="284" y="368" on="1"/>
        <pt x="700" y="368" on="1"/>
        <pt x="700" y="1447" on="1"/>
        <pt x="284" y="1447" on="1"/>
      </contour>
    </TTGlyph>
    <TTGlyph name="glyph41" xMin="142" yMin="226" xMax="842" yMax="1588">
      <contour>
        <pt x="142" y="226" on="1"/>
        <pt x="142" y="1588" on="1"/>
        <pt x="842" y="1588" on="1"/>
        <pt x="842" y="226" on="1"/>
      </contour>
      <contour>
        <pt x="284" y="368" on="1"/>
        <pt x="700" y="368" on="1"/>
        <pt x="700" y="1447" on="1"/>
        <pt x="284" y="1447" on="1"/>
      </contour>
    </TTGlyph>
    <TTGlyph name="glyph42" xMin="142" yMin="226" xMax="842" yMax="1588">
      <contour>
        <pt x="142" y="226" on="1"/>
        <pt x="142" y="1588" on="1"/>
        <pt x="842" y="1588" on="1"/>
        <pt x="842" y="226" on="1"/>
      </contour>
      <contour>
        <pt x="284" y="368" on="1"/>
        <pt x="700" y="368" on="1"/>
        <pt x="700" y="1447" on="1"/>
        <pt x="284" y="1447" on="1"/>
      </contour>
    </TTGlyph>
    <TTGlyph name="glyph43" xMin="142" yMin="226" xMax="842" yMax="1588">
      <contour>
        <pt x="142" y="226" on="1"/>
        <pt x="142" y="1588" on="1"/>
        <pt x="842" y="1588" on="1"/>
        <pt x="842" y="226" on="1"/>
      </contour>
      <contour>
        <pt x="284" y="368" on="1"/>
        <pt x="700" y="368" on="1"/>
        <pt x="700" y="1447" on="1"/>
        <pt x="284" y="1447" on="1"/>
      </contour>
    </TTGlyph>
    <TTGlyph name="glyph44" xMin="142" yMin="226" xMax="842" yMax="1588">
      <contour>
        <pt x="142" y="226" on="1"/>
        <pt x="142" y="1588" on="1"/>
        <pt x="842" y="1588" on="1"/>
        <pt x="842" y="226" on="1"/>
      </contour>
      <contour>
        <pt x="284" y="368" on="1"/>
        <pt x="700" y="368" on="1"/>
        <pt x="700" y="1447" on="1"/>
        <pt x="284" y="1447" on="1"/>
      </contour>
    </TTGlyph>
    <TTGlyph name="glyph45" xMin="142" yMin="226" xMax="842" yMax="1588">
      <contour>
        <pt x="142" y="226" on="1"/>
        <pt x="142" y="1588" on="1"/>
        <pt x="842" y="1588" on="1"/>
        <pt x="842" y="226" on="1"/>
      </contour>
      <contour>
        <pt x="284" y="368" on="1"/>
        <pt x="700" y="368" on="1"/>
        <pt x="700" y="1447" on="1"/>
        <pt x="284" y="1447" on="1"/>
      </contour>
    </TTGlyph>
    <TTGlyph name="glyph46" xMin="142" yMin="226" xMax="842" yMax="1588">
      <contour>
        <pt x="142" y="226" on="1"/>
        <pt x="142" y="1588" on="1"/>
        <pt x="842" y="1588" on="1"/>
        <pt x="842" y="226" on="1"/>
      </contour>
      <contour>
        <pt x="284" y="368" on="1"/>
        <pt x="700" y="368" on="1"/>
        <pt x="700" y="1447" on="1"/>
        <pt x="284" y="1447" on="1"/>
      </contour>
    </TTGlyph>
    <TTGlyph name="glyph47" xMin="142" yMin="226" xMax="842" yMax="1588">
      <contour>
        <pt x="142" y="226" on="1"/>
        <pt x="142" y="1588" on="1"/>
        <pt x="842" y="1588" on="1"/>
        <pt x="842" y="226" on="1"/>
      </contour>
      <contour>
        <pt x="284" y="368" on="1"/>
        <pt x="700" y="368" on="1"/>
        <pt x="700" y="1447" on="1"/>
        <pt x="284" y="1447" on="1"/>
      </contour>
    </TTGlyph>
    <TTGlyph name="glyph48" xMin="142" yMin="226" xMax="842" yMax="1588">
      <contour>
        <pt x="142" y="226" on="1"/>
        <pt x="142" y="1588" on="1"/>
        <pt x="842" y="1588" on="1"/>
        <pt x="842" y="226" on="1"/>
      </contour>
      <contour>
        <pt x="284" y="368" on="1"/>
        <pt x="700" y="368" on="1"/>
        <pt x="700" y="1447" on="1"/>
        <pt x="284" y="1447" on="1"/>
      </contour>
    </TTGlyph>
    <TTGlyph name="glyph50" xMin="142" yMin="226" xMax="842" yMax="1588">
      <contour>
        <pt x="142" y="226" on="1"/>
        <pt x="142" y="1588" on="1"/>
        <pt x="842" y="1588" on="1"/>
        <pt x="842" y="226" on="1"/>
      </contour>
      <contour>
        <pt x="284" y="368" on="1"/>
        <pt x="700" y="368" on="1"/>
        <pt x="700" y="1447" on="1"/>
        <pt x="284" y="1447" on="1"/>
      </contour>
    </TTGlyph>
    <TTGlyph name="glyph51" xMin="142" yMin="226" xMax="842" yMax="1588">
      <contour>
        <pt x="142" y="226" on="1"/>
        <pt x="142" y="1588" on="1"/>
        <pt x="842" y="1588" on="1"/>
        <pt x="842" y="226" on="1"/>
      </contour>
      <contour>
        <pt x="284" y="368" on="1"/>
        <pt x="700" y="368" on="1"/>
        <pt x="700" y="1447" on="1"/>
        <pt x="284" y="1447" on="1"/>
      </contour>
    </TTGlyph>
    <TTGlyph name="greater" xMin="142" yMin="226" xMax="842" yMax="1588">
      <contour>
        <pt x="142" y="226" on="1"/>
        <pt x="142" y="1588" on="1"/>
        <pt x="842" y="1588" on="1"/>
        <pt x="842" y="226" on="1"/>
      </contour>
      <contour>
        <pt x="284" y="368" on="1"/>
        <pt x="700" y="368" on="1"/>
        <pt x="700" y="1447" on="1"/>
        <pt x="284" y="1447" on="1"/>
      </contour>
    </TTGlyph>
    <TTGlyph name="hahhamzabovefinal" xMin="142" yMin="226" xMax="842" yMax="1588">
      <contour>
        <pt x="142" y="226" on="1"/>
        <pt x="142" y="1588" on="1"/>
        <pt x="842" y="1588" on="1"/>
        <pt x="842" y="226" on="1"/>
      </contour>
      <contour>
        <pt x="284" y="368" on="1"/>
        <pt x="700" y="368" on="1"/>
        <pt x="700" y="1447" on="1"/>
        <pt x="284" y="1447" on="1"/>
      </contour>
    </TTGlyph>
    <TTGlyph name="hahhamzaboveinitial" xMin="142" yMin="226" xMax="842" yMax="1588">
      <contour>
        <pt x="142" y="226" on="1"/>
        <pt x="142" y="1588" on="1"/>
        <pt x="842" y="1588" on="1"/>
        <pt x="842" y="226" on="1"/>
      </contour>
      <contour>
        <pt x="284" y="368" on="1"/>
        <pt x="700" y="368" on="1"/>
        <pt x="700" y="1447" on="1"/>
        <pt x="284" y="1447" on="1"/>
      </contour>
    </TTGlyph>
    <TTGlyph name="hahhamzabovemedial" xMin="142" yMin="226" xMax="842" yMax="1588">
      <contour>
        <pt x="142" y="226" on="1"/>
        <pt x="142" y="1588" on="1"/>
        <pt x="842" y="1588" on="1"/>
        <pt x="842" y="226" on="1"/>
      </contour>
      <contour>
        <pt x="284" y="368" on="1"/>
        <pt x="700" y="368" on="1"/>
        <pt x="700" y="1447" on="1"/>
        <pt x="284" y="1447" on="1"/>
      </contour>
    </TTGlyph>
    <TTGlyph name="hahthreedotsabovefinal" xMin="142" yMin="226" xMax="842" yMax="1588">
      <contour>
        <pt x="142" y="226" on="1"/>
        <pt x="142" y="1588" on="1"/>
        <pt x="842" y="1588" on="1"/>
        <pt x="842" y="226" on="1"/>
      </contour>
      <contour>
        <pt x="284" y="368" on="1"/>
        <pt x="700" y="368" on="1"/>
        <pt x="700" y="1447" on="1"/>
        <pt x="284" y="1447" on="1"/>
      </contour>
    </TTGlyph>
    <TTGlyph name="hahthreedotsaboveinitial" xMin="142" yMin="226" xMax="842" yMax="1588">
      <contour>
        <pt x="142" y="226" on="1"/>
        <pt x="142" y="1588" on="1"/>
        <pt x="842" y="1588" on="1"/>
        <pt x="842" y="226" on="1"/>
      </contour>
      <contour>
        <pt x="284" y="368" on="1"/>
        <pt x="700" y="368" on="1"/>
        <pt x="700" y="1447" on="1"/>
        <pt x="284" y="1447" on="1"/>
      </contour>
    </TTGlyph>
    <TTGlyph name="hahthreedotsabovemedial" xMin="142" yMin="226" xMax="842" yMax="1588">
      <contour>
        <pt x="142" y="226" on="1"/>
        <pt x="142" y="1588" on="1"/>
        <pt x="842" y="1588" on="1"/>
        <pt x="842" y="226" on="1"/>
      </contour>
      <contour>
        <pt x="284" y="368" on="1"/>
        <pt x="700" y="368" on="1"/>
        <pt x="700" y="1447" on="1"/>
        <pt x="284" y="1447" on="1"/>
      </contour>
    </TTGlyph>
    <TTGlyph name="hehdoachashmeefinalarabic" xMin="142" yMin="226" xMax="842" yMax="1588">
      <contour>
        <pt x="142" y="226" on="1"/>
        <pt x="142" y="1588" on="1"/>
        <pt x="842" y="1588" on="1"/>
        <pt x="842" y="226" on="1"/>
      </contour>
      <contour>
        <pt x="284" y="368" on="1"/>
        <pt x="700" y="368" on="1"/>
        <pt x="700" y="1447" on="1"/>
        <pt x="284" y="1447" on="1"/>
      </contour>
    </TTGlyph>
    <TTGlyph name="hehdoachashmeeinitialarabic" xMin="142" yMin="226" xMax="842" yMax="1588">
      <contour>
        <pt x="142" y="226" on="1"/>
        <pt x="142" y="1588" on="1"/>
        <pt x="842" y="1588" on="1"/>
        <pt x="842" y="226" on="1"/>
      </contour>
      <contour>
        <pt x="284" y="368" on="1"/>
        <pt x="700" y="368" on="1"/>
        <pt x="700" y="1447" on="1"/>
        <pt x="284" y="1447" on="1"/>
      </contour>
    </TTGlyph>
    <TTGlyph name="hehdoachashmeemedialarabic" xMin="142" yMin="226" xMax="842" yMax="1588">
      <contour>
        <pt x="142" y="226" on="1"/>
        <pt x="142" y="1588" on="1"/>
        <pt x="842" y="1588" on="1"/>
        <pt x="842" y="226" on="1"/>
      </contour>
      <contour>
        <pt x="284" y="368" on="1"/>
        <pt x="700" y="368" on="1"/>
        <pt x="700" y="1447" on="1"/>
        <pt x="284" y="1447" on="1"/>
      </contour>
    </TTGlyph>
    <TTGlyph name="hehfinalaltonearabic" xMin="142" yMin="226" xMax="842" yMax="1588">
      <contour>
        <pt x="142" y="226" on="1"/>
        <pt x="142" y="1588" on="1"/>
        <pt x="842" y="1588" on="1"/>
        <pt x="842" y="226" on="1"/>
      </contour>
      <contour>
        <pt x="284" y="368" on="1"/>
        <pt x="700" y="368" on="1"/>
        <pt x="700" y="1447" on="1"/>
        <pt x="284" y="1447" on="1"/>
      </contour>
    </TTGlyph>
    <TTGlyph name="hehhamzaabovefinalarabic" xMin="142" yMin="226" xMax="842" yMax="1588">
      <contour>
        <pt x="142" y="226" on="1"/>
        <pt x="142" y="1588" on="1"/>
        <pt x="842" y="1588" on="1"/>
        <pt x="842" y="226" on="1"/>
      </contour>
      <contour>
        <pt x="284" y="368" on="1"/>
        <pt x="700" y="368" on="1"/>
        <pt x="700" y="1447" on="1"/>
        <pt x="284" y="1447" on="1"/>
      </contour>
    </TTGlyph>
    <TTGlyph name="hehinitialaltonearabic" xMin="142" yMin="226" xMax="842" yMax="1588">
      <contour>
        <pt x="142" y="226" on="1"/>
        <pt x="142" y="1588" on="1"/>
        <pt x="842" y="1588" on="1"/>
        <pt x="842" y="226" on="1"/>
      </contour>
      <contour>
        <pt x="284" y="368" on="1"/>
        <pt x="700" y="368" on="1"/>
        <pt x="700" y="1447" on="1"/>
        <pt x="284" y="1447" on="1"/>
      </contour>
    </TTGlyph>
    <TTGlyph name="hehmedialaltonearabic" xMin="142" yMin="226" xMax="842" yMax="1588">
      <contour>
        <pt x="142" y="226" on="1"/>
        <pt x="142" y="1588" on="1"/>
        <pt x="842" y="1588" on="1"/>
        <pt x="842" y="226" on="1"/>
      </contour>
      <contour>
        <pt x="284" y="368" on="1"/>
        <pt x="700" y="368" on="1"/>
        <pt x="700" y="1447" on="1"/>
        <pt x="284" y="1447" on="1"/>
      </contour>
    </TTGlyph>
    <TTGlyph name="hyphen" xMin="151" yMin="-461" xMax="2731" yMax="1853">
      <contour>
        <pt x="2690" y="1601" on="1"/>
        <pt x="2690" y="1566" on="0"/>
        <pt x="2476" y="1430" on="1"/>
        <pt x="2288" y="1310" on="0"/>
        <pt x="2183" y="1259" on="1"/>
        <pt x="2174" y="1264" on="0"/>
        <pt x="2158" y="1275" on="0"/>
        <pt x="2158" y="1290" on="1"/>
        <pt x="2158" y="1339" on="0"/>
        <pt x="2201" y="1367" on="1"/>
        <pt x="2607" y="1638" on="0"/>
        <pt x="2635" y="1637" on="1"/>
        <pt x="2690" y="1637" on="1"/>
      </contour>
      <contour>
        <pt x="2137" y="1437" on="1"/>
        <pt x="2137" y="1405" on="0"/>
        <pt x="2010" y="1338" on="1"/>
        <pt x="1894" y="1276" on="0"/>
        <pt x="1824" y="1259" on="1"/>
        <pt x="1799" y="1285" on="1"/>
        <pt x="1813" y="1299" on="0"/>
        <pt x="1879" y="1344" on="1"/>
        <pt x="1925" y="1376" on="0"/>
        <pt x="1933" y="1407" on="1"/>
        <pt x="1916" y="1423" on="0"/>
        <pt x="1897" y="1423" on="1"/>
        <pt x="1887" y="1423" on="0"/>
        <pt x="1777" y="1363" on="0"/>
        <pt x="1766" y="1352" on="1"/>
        <pt x="1728" y="1352" on="1"/>
        <pt x="1728" y="1396" on="1"/>
        <pt x="1728" y="1446" on="0"/>
        <pt x="1823" y="1495" on="1"/>
        <pt x="1902" y="1536" on="0"/>
        <pt x="1938" y="1536" on="1"/>
        <pt x="2029" y="1536" on="0"/>
        <pt x="2137" y="1482" on="1"/>
      </contour>
      <contour>
        <pt x="1574" y="1285" on="1"/>
        <pt x="1574" y="1273" on="0"/>
        <pt x="1563" y="1242" on="0"/>
        <pt x="1563" y="1231" on="1"/>
        <pt x="1562" y="1230" on="0"/>
        <pt x="1561" y="1229" on="1"/>
        <pt x="1552" y="1218" on="0"/>
        <pt x="1533" y="1218" on="1"/>
        <pt x="1521" y="1218" on="0"/>
        <pt x="1439" y="1270" on="0"/>
        <pt x="1426" y="1270" on="1"/>
        <pt x="1413" y="1270" on="0"/>
        <pt x="1363" y="1221" on="1"/>
        <pt x="1298" y="1157" on="0"/>
        <pt x="1275" y="1140" on="1"/>
        <pt x="1209" y="1090" on="0"/>
        <pt x="1047" y="1024" on="1"/>
        <pt x="1001" y="1035" on="1"/>
        <pt x="1001" y="1063" on="1"/>
        <pt x="1083" y="1119" on="0"/>
        <pt x="1165" y="1176" on="1"/>
        <pt x="1318" y="1284" on="0"/>
        <pt x="1318" y="1305" on="1"/>
        <pt x="1318" y="1316" on="0"/>
        <pt x="1246" y="1410" on="0"/>
        <pt x="1246" y="1428" on="1"/>
        <pt x="1246" y="1461" on="0"/>
        <pt x="1300" y="1534" on="1"/>
        <pt x="1362" y="1617" on="0"/>
        <pt x="1415" y="1617" on="1"/>
        <pt x="1478" y="1617" on="0"/>
        <pt x="1482" y="1517" on="1"/>
        <pt x="1483" y="1459" on="0"/>
        <pt x="1484" y="1400" on="1"/>
        <pt x="1491" y="1389" on="0"/>
        <pt x="1542" y="1346" on="1"/>
        <pt x="1574" y="1318" on="0"/>
      </contour>
      <contour>
        <pt x="2516" y="-81" on="1"/>
        <pt x="2516" y="-102" on="0"/>
        <pt x="2458" y="-174" on="0"/>
        <pt x="2439" y="-174" on="1"/>
        <pt x="2425" y="-174" on="0"/>
        <pt x="2376" y="-142" on="1"/>
        <pt x="2322" y="-107" on="0"/>
        <pt x="2322" y="-86" on="1"/>
        <pt x="2322" y="-64" on="0"/>
        <pt x="2400" y="20" on="0"/>
        <pt x="2424" y="20" on="1"/>
        <pt x="2458" y="20" on="0"/>
        <pt x="2489" y="-22" on="1"/>
        <pt x="2516" y="-58" on="0"/>
      </contour>
      <contour>
        <pt x="1585" y="752" on="1"/>
        <pt x="1585" y="732" on="0"/>
        <pt x="1554" y="690" on="1"/>
        <pt x="1522" y="645" on="0"/>
        <pt x="1503" y="645" on="1"/>
        <pt x="1479" y="645" on="0"/>
        <pt x="1444" y="688" on="1"/>
        <pt x="1410" y="728" on="0"/>
        <pt x="1410" y="747" on="1"/>
        <pt x="1410" y="768" on="0"/>
        <pt x="1435" y="806" on="1"/>
        <pt x="1463" y="850" on="0"/>
        <pt x="1487" y="850" on="1"/>
        <pt x="1508" y="850" on="0"/>
        <pt x="1585" y="776" on="0"/>
      </contour>
      <contour>
        <pt x="837" y="1705" on="1"/>
        <pt x="837" y="1687" on="0"/>
        <pt x="810" y="1629" on="1"/>
        <pt x="781" y="1565" on="0"/>
        <pt x="758" y="1556" on="1"/>
        <pt x="752" y="1570" on="0"/>
        <pt x="746" y="1632" on="1"/>
        <pt x="745" y="1642" on="0"/>
        <pt x="741" y="1652" on="1"/>
        <pt x="715" y="1730" on="0"/>
        <pt x="632" y="1730" on="1"/>
        <pt x="539" y="1730" on="0"/>
        <pt x="452" y="1588" on="1"/>
        <pt x="376" y="1467" on="0"/>
        <pt x="376" y="1402" on="1"/>
        <pt x="376" y="1391" on="0"/>
        <pt x="417" y="1298" on="0"/>
        <pt x="417" y="1285" on="1"/>
        <pt x="417" y="1218" on="0"/>
        <pt x="371" y="1218" on="1"/>
        <pt x="304" y="1218" on="0"/>
        <pt x="304" y="1341" on="1"/>
        <pt x="304" y="1494" on="0"/>
        <pt x="412" y="1666" on="1"/>
        <pt x="529" y="1853" on="0"/>
        <pt x="663" y="1853" on="1"/>
        <pt x="729" y="1853" on="0"/>
        <pt x="777" y="1819" on="1"/>
        <pt x="837" y="1778" on="0"/>
      </contour>
      <contour>
        <pt x="2731" y="260" on="1"/>
        <pt x="2731" y="217" on="0"/>
        <pt x="2677" y="188" on="1"/>
        <pt x="2653" y="174" on="0"/>
        <pt x="2567" y="174" on="1"/>
        <pt x="2555" y="174" on="0"/>
        <pt x="2447" y="184" on="0"/>
        <pt x="2434" y="184" on="1"/>
        <pt x="2347" y="184" on="0"/>
        <pt x="1857" y="10" on="0"/>
        <pt x="1779" y="10" on="1"/>
        <pt x="1721" y="10" on="0"/>
        <pt x="1680" y="23" on="1"/>
        <pt x="1665" y="28" on="0"/>
        <pt x="1630" y="61" on="1"/>
        <pt x="1598" y="92" on="0"/>
        <pt x="1585" y="92" on="1"/>
        <pt x="1566" y="92" on="0"/>
        <pt x="1492" y="52" on="1"/>
        <pt x="1413" y="10" on="0"/>
        <pt x="1391" y="-18" on="1"/>
        <pt x="1376" y="-39" on="0"/>
        <pt x="1354" y="-104" on="1"/>
        <pt x="1330" y="-175" on="0"/>
        <pt x="1313" y="-202" on="1"/>
        <pt x="1204" y="-379" on="0"/>
        <pt x="1069" y="-427" on="1"/>
        <pt x="975" y="-461" on="0"/>
        <pt x="863" y="-461" on="1"/>
        <pt x="785" y="-461" on="0"/>
        <pt x="593" y="-417" on="1"/>
        <pt x="593" y="-405" on="0"/>
        <pt x="570" y="-384" on="1"/>
        <pt x="597" y="-358" on="0"/>
        <pt x="643" y="-358" on="1"/>
        <pt x="655" y="-358" on="0"/>
        <pt x="763" y="-368" on="0"/>
        <pt x="775" y="-368" on="1"/>
        <pt x="915" y="-368" on="0"/>
        <pt x="1052" y="-287" on="1"/>
        <pt x="1200" y="-200" on="0"/>
        <pt x="1277" y="-54" on="1"/>
        <pt x="1277" y="-45" on="0"/>
        <pt x="1260" y="-34" on="1"/>
        <pt x="1164" y="-21" on="0"/>
        <pt x="1130" y="-8" on="1"/>
        <pt x="1041" y="25" on="0"/>
        <pt x="1041" y="102" on="1"/>
        <pt x="1041" y="120" on="0"/>
        <pt x="1092" y="215" on="1"/>
        <pt x="1144" y="315" on="0"/>
        <pt x="1167" y="333" on="1"/>
        <pt x="1186" y="348" on="0"/>
        <pt x="1216" y="348" on="1"/>
        <pt x="1272" y="348" on="0"/>
        <pt x="1381" y="143" on="0"/>
        <pt x="1400" y="143" on="1"/>
        <pt x="1410" y="143" on="0"/>
        <pt x="1600" y="256" on="0"/>
        <pt x="1615" y="256" on="1"/>
        <pt x="1629" y="256" on="0"/>
        <pt x="1673" y="224" on="1"/>
        <pt x="1735" y="182" on="0"/>
        <pt x="1745" y="176" on="1"/>
        <pt x="1767" y="164" on="0"/>
        <pt x="1835" y="164" on="1"/>
        <pt x="1948" y="164" on="0"/>
        <pt x="2015" y="211" on="1"/>
        <pt x="1996" y="266" on="0"/>
        <pt x="1782" y="266" on="1"/>
        <pt x="1780" y="268" on="0"/>
        <pt x="1780" y="269" on="1"/>
        <pt x="1769" y="279" on="0"/>
        <pt x="1769" y="297" on="1"/>
        <pt x="1769" y="364" on="0"/>
        <pt x="1912" y="464" on="1"/>
        <pt x="2007" y="531" on="0"/>
        <pt x="2089" y="569" on="1"/>
        <pt x="2097" y="573" on="0"/>
        <pt x="2230" y="605" on="1"/>
        <pt x="2332" y="631" on="0"/>
        <pt x="2370" y="674" on="1"/>
        <pt x="2374" y="700" on="0"/>
        <pt x="2386" y="744" on="1"/>
        <pt x="2414" y="816" on="0"/>
        <pt x="2457" y="859" on="1"/>
        <pt x="2466" y="864" on="0"/>
        <pt x="2481" y="864" on="1"/>
        <pt x="2532" y="864" on="0"/>
        <pt x="2680" y="753" on="0"/>
        <pt x="2680" y="717" on="1"/>
        <pt x="2680" y="635" on="0"/>
        <pt x="2586" y="589" on="1"/>
        <pt x="2556" y="574" on="0"/>
        <pt x="2430" y="539" on="1"/>
        <pt x="2265" y="492" on="0"/>
        <pt x="2238" y="483" on="1"/>
        <pt x="2126" y="447" on="0"/>
        <pt x="2055" y="403" on="1"/>
        <pt x="2053" y="398" on="0"/>
        <pt x="2063" y="391" on="1"/>
        <pt x="2260" y="335" on="0"/>
        <pt x="2707" y="313" on="1"/>
        <pt x="2713" y="309" on="0"/>
        <pt x="2731" y="293" on="1"/>
      </contour>
      <contour>
        <pt x="745" y="1285" on="1"/>
        <pt x="745" y="1266" on="0"/>
        <pt x="715" y="1229" on="0"/>
        <pt x="699" y="1229" on="1"/>
        <pt x="686" y="1229" on="0"/>
        <pt x="609" y="1259" on="0"/>
        <pt x="597" y="1259" on="1"/>
        <pt x="584" y="1259" on="0"/>
        <pt x="541" y="1210" on="1"/>
        <pt x="484" y="1144" on="0"/>
        <pt x="466" y="1127" on="1"/>
        <pt x="463" y="1125" on="0"/>
        <pt x="301" y="1025" on="1"/>
        <pt x="254" y="1025" on="1"/>
        <pt x="254" y="1058" on="1"/>
        <pt x="253" y="1071" on="0"/>
        <pt x="489" y="1277" on="0"/>
        <pt x="489" y="1290" on="1"/>
        <pt x="489" y="1301" on="0"/>
        <pt x="427" y="1394" on="0"/>
        <pt x="427" y="1407" on="1"/>
        <pt x="427" y="1448" on="0"/>
        <pt x="469" y="1512" on="1"/>
        <pt x="517" y="1587" on="0"/>
        <pt x="570" y="1587" on="1"/>
        <pt x="647" y="1587" on="0"/>
        <pt x="669" y="1511" on="1"/>
        <pt x="670" y="1511" on="0"/>
        <pt x="659" y="1399" on="1"/>
        <pt x="685" y="1370" on="0"/>
        <pt x="711" y="1340" on="1"/>
        <pt x="745" y="1300" on="0"/>
      </contour>
      <contour>
        <pt x="520" y="717" on="1"/>
        <pt x="520" y="679" on="0"/>
        <pt x="466" y="624" on="0"/>
        <pt x="443" y="624" on="1"/>
        <pt x="409" y="624" on="0"/>
        <pt x="381" y="655" on="1"/>
        <pt x="356" y="682" on="0"/>
        <pt x="356" y="706" on="1"/>
        <pt x="356" y="732" on="0"/>
        <pt x="371" y="765" on="1"/>
        <pt x="392" y="809" on="0"/>
        <pt x="422" y="809" on="1"/>
        <pt x="460" y="809" on="0"/>
        <pt x="492" y="773" on="1"/>
        <pt x="520" y="741" on="0"/>
      </contour>
      <contour>
        <pt x="847" y="220" on="1"/>
        <pt x="847" y="153" on="0"/>
        <pt x="843" y="135" on="1"/>
        <pt x="834" y="96" on="0"/>
        <pt x="748" y="-30" on="0"/>
        <pt x="639" y="-68" on="1"/>
        <pt x="485" y="-122" on="0"/>
        <pt x="433" y="-122" on="1"/>
        <pt x="308" y="-122" on="0"/>
        <pt x="232" y="-56" on="1"/>
        <pt x="151" y="14" on="0"/>
        <pt x="151" y="138" on="1"/>
        <pt x="151" y="197" on="0"/>
        <pt x="194" y="288" on="1"/>
        <pt x="246" y="397" on="0"/>
        <pt x="314" y="408" on="1"/>
        <pt x="314" y="362" on="1"/>
        <pt x="314" y="352" on="0"/>
        <pt x="253" y="235" on="0"/>
        <pt x="253" y="220" on="1"/>
        <pt x="253" y="134" on="0"/>
        <pt x="316" y="79" on="1"/>
        <pt x="373" y="30" on="0"/>
        <pt x="453" y="30" on="1"/>
        <pt x="525" y="30" on="0"/>
        <pt x="632" y="79" on="1"/>
        <pt x="755" y="135" on="0"/>
        <pt x="755" y="200" on="1"/>
        <pt x="755" y="212" on="0"/>
        <pt x="643" y="469" on="0"/>
        <pt x="643" y="481" on="1"/>
        <pt x="643" y="516" on="0"/>
        <pt x="686" y="603" on="1"/>
        <pt x="724" y="603" on="0"/>
        <pt x="741" y="570" on="1"/>
        <pt x="805" y="436" on="0"/>
        <pt x="817" y="402" on="1"/>
        <pt x="847" y="317" on="0"/>
      </contour>
      <contour>
        <pt x="1398" y="1434" on="1"/>
        <pt x="1398" y="1471" on="1"/>
        <pt x="1388" y="1483" on="0"/>
        <pt x="1361" y="1483" on="1"/>
        <pt x="1361" y="1466" on="0"/>
      </contour>
      <contour>
        <pt x="581" y="1439" on="1"/>
        <pt x="570" y="1448" on="0"/>
        <pt x="569" y="1462" on="1"/>
        <pt x="530" y="1462" on="1"/>
        <pt x="538" y="1447" on="0"/>
        <pt x="556" y="1439" on="1"/>
        <pt x="573" y="1430" on="0"/>
      </contour>
      <contour>
        <pt x="1218" y="153" on="1"/>
        <pt x="1182" y="178" on="1"/>
        <pt x="1173" y="164" on="1"/>
        <pt x="1209" y="139" on="1"/>
      </contour>
    </TTGlyph>
    <TTGlyph name="irghizufinal" xMin="142" yMin="226" xMax="842" yMax="1588">
      <contour>
        <pt x="142" y="226" on="1"/>
        <pt x="142" y="1588" on="1"/>
        <pt x="842" y="1588" on="1"/>
        <pt x="842" y="226" on="1"/>
      </contour>
      <contour>
        <pt x="284" y="368" on="1"/>
        <pt x="700" y="368" on="1"/>
        <pt x="700" y="1447" on="1"/>
        <pt x="284" y="1447" on="1"/>
      </contour>
    </TTGlyph>
    <TTGlyph name="jehfinalarabic" xMin="142" yMin="226" xMax="842" yMax="1588">
      <contour>
        <pt x="142" y="226" on="1"/>
        <pt x="142" y="1588" on="1"/>
        <pt x="842" y="1588" on="1"/>
        <pt x="842" y="226" on="1"/>
      </contour>
      <contour>
        <pt x="284" y="368" on="1"/>
        <pt x="700" y="368" on="1"/>
        <pt x="700" y="1447" on="1"/>
        <pt x="284" y="1447" on="1"/>
      </contour>
    </TTGlyph>
    <TTGlyph name="kafringfinal" xMin="142" yMin="226" xMax="842" yMax="1588">
      <contour>
        <pt x="142" y="226" on="1"/>
        <pt x="142" y="1588" on="1"/>
        <pt x="842" y="1588" on="1"/>
        <pt x="842" y="226" on="1"/>
      </contour>
      <contour>
        <pt x="284" y="368" on="1"/>
        <pt x="700" y="368" on="1"/>
        <pt x="700" y="1447" on="1"/>
        <pt x="284" y="1447" on="1"/>
      </contour>
    </TTGlyph>
    <TTGlyph name="kafringinitial" xMin="142" yMin="226" xMax="842" yMax="1588">
      <contour>
        <pt x="142" y="226" on="1"/>
        <pt x="142" y="1588" on="1"/>
        <pt x="842" y="1588" on="1"/>
        <pt x="842" y="226" on="1"/>
      </contour>
      <contour>
        <pt x="284" y="368" on="1"/>
        <pt x="700" y="368" on="1"/>
        <pt x="700" y="1447" on="1"/>
        <pt x="284" y="1447" on="1"/>
      </contour>
    </TTGlyph>
    <TTGlyph name="kafringmedial" xMin="142" yMin="226" xMax="842" yMax="1588">
      <contour>
        <pt x="142" y="226" on="1"/>
        <pt x="142" y="1588" on="1"/>
        <pt x="842" y="1588" on="1"/>
        <pt x="842" y="226" on="1"/>
      </contour>
      <contour>
        <pt x="284" y="368" on="1"/>
        <pt x="700" y="368" on="1"/>
        <pt x="700" y="1447" on="1"/>
        <pt x="284" y="1447" on="1"/>
      </contour>
    </TTGlyph>
    <TTGlyph name="kashidaautoarabic" xMin="142" yMin="226" xMax="842" yMax="1588">
      <contour>
        <pt x="142" y="226" on="1"/>
        <pt x="142" y="1588" on="1"/>
        <pt x="842" y="1588" on="1"/>
        <pt x="842" y="226" on="1"/>
      </contour>
      <contour>
        <pt x="284" y="368" on="1"/>
        <pt x="700" y="368" on="1"/>
        <pt x="700" y="1447" on="1"/>
        <pt x="284" y="1447" on="1"/>
      </contour>
    </TTGlyph>
    <TTGlyph name="kashidaautonosidebearingarabic" xMin="142" yMin="226" xMax="842" yMax="1588">
      <contour>
        <pt x="142" y="226" on="1"/>
        <pt x="142" y="1588" on="1"/>
        <pt x="842" y="1588" on="1"/>
        <pt x="842" y="226" on="1"/>
      </contour>
      <contour>
        <pt x="284" y="368" on="1"/>
        <pt x="700" y="368" on="1"/>
        <pt x="700" y="1447" on="1"/>
        <pt x="284" y="1447" on="1"/>
      </contour>
    </TTGlyph>
    <TTGlyph name="kehehfinalarabic" xMin="142" yMin="226" xMax="842" yMax="1588">
      <contour>
        <pt x="142" y="226" on="1"/>
        <pt x="142" y="1588" on="1"/>
        <pt x="842" y="1588" on="1"/>
        <pt x="842" y="226" on="1"/>
      </contour>
      <contour>
        <pt x="284" y="368" on="1"/>
        <pt x="700" y="368" on="1"/>
        <pt x="700" y="1447" on="1"/>
        <pt x="284" y="1447" on="1"/>
      </contour>
    </TTGlyph>
    <TTGlyph name="kehehinitialarabic" xMin="142" yMin="226" xMax="842" yMax="1588">
      <contour>
        <pt x="142" y="226" on="1"/>
        <pt x="142" y="1588" on="1"/>
        <pt x="842" y="1588" on="1"/>
        <pt x="842" y="226" on="1"/>
      </contour>
      <contour>
        <pt x="284" y="368" on="1"/>
        <pt x="700" y="368" on="1"/>
        <pt x="700" y="1447" on="1"/>
        <pt x="284" y="1447" on="1"/>
      </contour>
    </TTGlyph>
    <TTGlyph name="kehehmedialarabic" xMin="142" yMin="226" xMax="842" yMax="1588">
      <contour>
        <pt x="142" y="226" on="1"/>
        <pt x="142" y="1588" on="1"/>
        <pt x="842" y="1588" on="1"/>
        <pt x="842" y="226" on="1"/>
      </contour>
      <contour>
        <pt x="284" y="368" on="1"/>
        <pt x="700" y="368" on="1"/>
        <pt x="700" y="1447" on="1"/>
        <pt x="284" y="1447" on="1"/>
      </contour>
    </TTGlyph>
    <TTGlyph name="kirghizyifinal" xMin="142" yMin="226" xMax="842" yMax="1588">
      <contour>
        <pt x="142" y="226" on="1"/>
        <pt x="142" y="1588" on="1"/>
        <pt x="842" y="1588" on="1"/>
        <pt x="842" y="226" on="1"/>
      </contour>
      <contour>
        <pt x="284" y="368" on="1"/>
        <pt x="700" y="368" on="1"/>
        <pt x="700" y="1447" on="1"/>
        <pt x="284" y="1447" on="1"/>
      </contour>
    </TTGlyph>
    <TTGlyph name="lammeemjeeminitialarabic" xMin="142" yMin="226" xMax="842" yMax="1588">
      <contour>
        <pt x="142" y="226" on="1"/>
        <pt x="142" y="1588" on="1"/>
        <pt x="842" y="1588" on="1"/>
        <pt x="842" y="226" on="1"/>
      </contour>
      <contour>
        <pt x="284" y="368" on="1"/>
        <pt x="700" y="368" on="1"/>
        <pt x="700" y="1447" on="1"/>
        <pt x="284" y="1447" on="1"/>
      </contour>
    </TTGlyph>
    <TTGlyph name="lammeemkhahinitialarabic" xMin="142" yMin="226" xMax="842" yMax="1588">
      <contour>
        <pt x="142" y="226" on="1"/>
        <pt x="142" y="1588" on="1"/>
        <pt x="842" y="1588" on="1"/>
        <pt x="842" y="226" on="1"/>
      </contour>
      <contour>
        <pt x="284" y="368" on="1"/>
        <pt x="700" y="368" on="1"/>
        <pt x="700" y="1447" on="1"/>
        <pt x="284" y="1447" on="1"/>
      </contour>
    </TTGlyph>
    <TTGlyph name="lamthreedotsabovefinal" xMin="142" yMin="226" xMax="842" yMax="1588">
      <contour>
        <pt x="142" y="226" on="1"/>
        <pt x="142" y="1588" on="1"/>
        <pt x="842" y="1588" on="1"/>
        <pt x="842" y="226" on="1"/>
      </contour>
      <contour>
        <pt x="284" y="368" on="1"/>
        <pt x="700" y="368" on="1"/>
        <pt x="700" y="1447" on="1"/>
        <pt x="284" y="1447" on="1"/>
      </contour>
    </TTGlyph>
    <TTGlyph name="lamthreedotsaboveinitial" xMin="142" yMin="226" xMax="842" yMax="1588">
      <contour>
        <pt x="142" y="226" on="1"/>
        <pt x="142" y="1588" on="1"/>
        <pt x="842" y="1588" on="1"/>
        <pt x="842" y="226" on="1"/>
      </contour>
      <contour>
        <pt x="284" y="368" on="1"/>
        <pt x="700" y="368" on="1"/>
        <pt x="700" y="1447" on="1"/>
        <pt x="284" y="1447" on="1"/>
      </contour>
    </TTGlyph>
    <TTGlyph name="lamthreedotsabovemedial" xMin="142" yMin="226" xMax="842" yMax="1588">
      <contour>
        <pt x="142" y="226" on="1"/>
        <pt x="142" y="1588" on="1"/>
        <pt x="842" y="1588" on="1"/>
        <pt x="842" y="226" on="1"/>
      </contour>
      <contour>
        <pt x="284" y="368" on="1"/>
        <pt x="700" y="368" on="1"/>
        <pt x="700" y="1447" on="1"/>
        <pt x="284" y="1447" on="1"/>
      </contour>
    </TTGlyph>
    <TTGlyph name="less" xMin="142" yMin="226" xMax="842" yMax="1588">
      <contour>
        <pt x="142" y="226" on="1"/>
        <pt x="142" y="1588" on="1"/>
        <pt x="842" y="1588" on="1"/>
        <pt x="842" y="226" on="1"/>
      </contour>
      <contour>
        <pt x="284" y="368" on="1"/>
        <pt x="700" y="368" on="1"/>
        <pt x="700" y="1447" on="1"/>
        <pt x="284" y="1447" on="1"/>
      </contour>
    </TTGlyph>
    <TTGlyph name="meemmeemisolatedarabic" xMin="142" yMin="226" xMax="842" yMax="1588">
      <contour>
        <pt x="142" y="226" on="1"/>
        <pt x="142" y="1588" on="1"/>
        <pt x="842" y="1588" on="1"/>
        <pt x="842" y="226" on="1"/>
      </contour>
      <contour>
        <pt x="284" y="368" on="1"/>
        <pt x="700" y="368" on="1"/>
        <pt x="700" y="1447" on="1"/>
        <pt x="284" y="1447" on="1"/>
      </contour>
    </TTGlyph>
    <TTGlyph name="multiply" xMin="142" yMin="226" xMax="842" yMax="1588">
      <contour>
        <pt x="142" y="226" on="1"/>
        <pt x="142" y="1588" on="1"/>
        <pt x="842" y="1588" on="1"/>
        <pt x="842" y="226" on="1"/>
      </contour>
      <contour>
        <pt x="284" y="368" on="1"/>
        <pt x="700" y="368" on="1"/>
        <pt x="700" y="1447" on="1"/>
        <pt x="284" y="1447" on="1"/>
      </contour>
    </TTGlyph>
    <TTGlyph name="noonghunnafinalarabic" xMin="142" yMin="226" xMax="842" yMax="1588">
      <contour>
        <pt x="142" y="226" on="1"/>
        <pt x="142" y="1588" on="1"/>
        <pt x="842" y="1588" on="1"/>
        <pt x="842" y="226" on="1"/>
      </contour>
      <contour>
        <pt x="284" y="368" on="1"/>
        <pt x="700" y="368" on="1"/>
        <pt x="700" y="1447" on="1"/>
        <pt x="284" y="1447" on="1"/>
      </contour>
    </TTGlyph>
    <TTGlyph name="noonjeemisolatedarabic" xMin="142" yMin="226" xMax="842" yMax="1588">
      <contour>
        <pt x="142" y="226" on="1"/>
        <pt x="142" y="1588" on="1"/>
        <pt x="842" y="1588" on="1"/>
        <pt x="842" y="226" on="1"/>
      </contour>
      <contour>
        <pt x="284" y="368" on="1"/>
        <pt x="700" y="368" on="1"/>
        <pt x="700" y="1447" on="1"/>
        <pt x="284" y="1447" on="1"/>
      </contour>
    </TTGlyph>
    <TTGlyph name="noonmeemisolatedarabic" xMin="142" yMin="226" xMax="842" yMax="1588">
      <contour>
        <pt x="142" y="226" on="1"/>
        <pt x="142" y="1588" on="1"/>
        <pt x="842" y="1588" on="1"/>
        <pt x="842" y="226" on="1"/>
      </contour>
      <contour>
        <pt x="284" y="368" on="1"/>
        <pt x="700" y="368" on="1"/>
        <pt x="700" y="1447" on="1"/>
        <pt x="284" y="1447" on="1"/>
      </contour>
    </TTGlyph>
    <TTGlyph name="noonringfinal" xMin="142" yMin="226" xMax="842" yMax="1588">
      <contour>
        <pt x="142" y="226" on="1"/>
        <pt x="142" y="1588" on="1"/>
        <pt x="842" y="1588" on="1"/>
        <pt x="842" y="226" on="1"/>
      </contour>
      <contour>
        <pt x="284" y="368" on="1"/>
        <pt x="700" y="368" on="1"/>
        <pt x="700" y="1447" on="1"/>
        <pt x="284" y="1447" on="1"/>
      </contour>
    </TTGlyph>
    <TTGlyph name="noonringinitial" xMin="142" yMin="226" xMax="842" yMax="1588">
      <contour>
        <pt x="142" y="226" on="1"/>
        <pt x="142" y="1588" on="1"/>
        <pt x="842" y="1588" on="1"/>
        <pt x="842" y="226" on="1"/>
      </contour>
      <contour>
        <pt x="284" y="368" on="1"/>
        <pt x="700" y="368" on="1"/>
        <pt x="700" y="1447" on="1"/>
        <pt x="284" y="1447" on="1"/>
      </contour>
    </TTGlyph>
    <TTGlyph name="noonringmedial" xMin="142" yMin="226" xMax="842" yMax="1588">
      <contour>
        <pt x="142" y="226" on="1"/>
        <pt x="142" y="1588" on="1"/>
        <pt x="842" y="1588" on="1"/>
        <pt x="842" y="226" on="1"/>
      </contour>
      <contour>
        <pt x="284" y="368" on="1"/>
        <pt x="700" y="368" on="1"/>
        <pt x="700" y="1447" on="1"/>
        <pt x="284" y="1447" on="1"/>
      </contour>
    </TTGlyph>
    <TTGlyph name="numbersign" xMin="142" yMin="226" xMax="842" yMax="1588">
      <contour>
        <pt x="142" y="226" on="1"/>
        <pt x="142" y="1588" on="1"/>
        <pt x="842" y="1588" on="1"/>
        <pt x="842" y="226" on="1"/>
      </contour>
      <contour>
        <pt x="284" y="368" on="1"/>
        <pt x="700" y="368" on="1"/>
        <pt x="700" y="1447" on="1"/>
        <pt x="284" y="1447" on="1"/>
      </contour>
    </TTGlyph>
    <TTGlyph name="parenleft" xMin="142" yMin="226" xMax="842" yMax="1588">
      <contour>
        <pt x="142" y="226" on="1"/>
        <pt x="142" y="1588" on="1"/>
        <pt x="842" y="1588" on="1"/>
        <pt x="842" y="226" on="1"/>
      </contour>
      <contour>
        <pt x="284" y="368" on="1"/>
        <pt x="700" y="368" on="1"/>
        <pt x="700" y="1447" on="1"/>
        <pt x="284" y="1447" on="1"/>
      </contour>
    </TTGlyph>
    <TTGlyph name="parenright" xMin="142" yMin="226" xMax="842" yMax="1588">
      <contour>
        <pt x="142" y="226" on="1"/>
        <pt x="142" y="1588" on="1"/>
        <pt x="842" y="1588" on="1"/>
        <pt x="842" y="226" on="1"/>
      </contour>
      <contour>
        <pt x="284" y="368" on="1"/>
        <pt x="700" y="368" on="1"/>
        <pt x="700" y="1447" on="1"/>
        <pt x="284" y="1447" on="1"/>
      </contour>
    </TTGlyph>
    <TTGlyph name="pashtoefinal" xMin="142" yMin="226" xMax="842" yMax="1588">
      <contour>
        <pt x="142" y="226" on="1"/>
        <pt x="142" y="1588" on="1"/>
        <pt x="842" y="1588" on="1"/>
        <pt x="842" y="226" on="1"/>
      </contour>
      <contour>
        <pt x="284" y="368" on="1"/>
        <pt x="700" y="368" on="1"/>
        <pt x="700" y="1447" on="1"/>
        <pt x="284" y="1447" on="1"/>
      </contour>
    </TTGlyph>
    <TTGlyph name="pashtoeinitial" xMin="142" yMin="226" xMax="842" yMax="1588">
      <contour>
        <pt x="142" y="226" on="1"/>
        <pt x="142" y="1588" on="1"/>
        <pt x="842" y="1588" on="1"/>
        <pt x="842" y="226" on="1"/>
      </contour>
      <contour>
        <pt x="284" y="368" on="1"/>
        <pt x="700" y="368" on="1"/>
        <pt x="700" y="1447" on="1"/>
        <pt x="284" y="1447" on="1"/>
      </contour>
    </TTGlyph>
    <TTGlyph name="pashtoemedial" xMin="142" yMin="226" xMax="842" yMax="1588">
      <contour>
        <pt x="142" y="226" on="1"/>
        <pt x="142" y="1588" on="1"/>
        <pt x="842" y="1588" on="1"/>
        <pt x="842" y="226" on="1"/>
      </contour>
      <contour>
        <pt x="284" y="368" on="1"/>
        <pt x="700" y="368" on="1"/>
        <pt x="700" y="1447" on="1"/>
        <pt x="284" y="1447" on="1"/>
      </contour>
    </TTGlyph>
    <TTGlyph name="pehfinalarabic" xMin="142" yMin="226" xMax="842" yMax="1588">
      <contour>
        <pt x="142" y="226" on="1"/>
        <pt x="142" y="1588" on="1"/>
        <pt x="842" y="1588" on="1"/>
        <pt x="842" y="226" on="1"/>
      </contour>
      <contour>
        <pt x="284" y="368" on="1"/>
        <pt x="700" y="368" on="1"/>
        <pt x="700" y="1447" on="1"/>
        <pt x="284" y="1447" on="1"/>
      </contour>
    </TTGlyph>
    <TTGlyph name="pehinitialarabic" xMin="142" yMin="226" xMax="842" yMax="1588">
      <contour>
        <pt x="142" y="226" on="1"/>
        <pt x="142" y="1588" on="1"/>
        <pt x="842" y="1588" on="1"/>
        <pt x="842" y="226" on="1"/>
      </contour>
      <contour>
        <pt x="284" y="368" on="1"/>
        <pt x="700" y="368" on="1"/>
        <pt x="700" y="1447" on="1"/>
        <pt x="284" y="1447" on="1"/>
      </contour>
    </TTGlyph>
    <TTGlyph name="pehmedialarabic" xMin="142" yMin="226" xMax="842" yMax="1588">
      <contour>
        <pt x="142" y="226" on="1"/>
        <pt x="142" y="1588" on="1"/>
        <pt x="842" y="1588" on="1"/>
        <pt x="842" y="226" on="1"/>
      </contour>
      <contour>
        <pt x="284" y="368" on="1"/>
        <pt x="700" y="368" on="1"/>
        <pt x="700" y="1447" on="1"/>
        <pt x="284" y="1447" on="1"/>
      </contour>
    </TTGlyph>
    <TTGlyph name="percent" xMin="142" yMin="226" xMax="842" yMax="1588">
      <contour>
        <pt x="142" y="226" on="1"/>
        <pt x="142" y="1588" on="1"/>
        <pt x="842" y="1588" on="1"/>
        <pt x="842" y="226" on="1"/>
      </contour>
      <contour>
        <pt x="284" y="368" on="1"/>
        <pt x="700" y="368" on="1"/>
        <pt x="700" y="1447" on="1"/>
        <pt x="284" y="1447" on="1"/>
      </contour>
    </TTGlyph>
    <TTGlyph name="period" xMin="142" yMin="226" xMax="842" yMax="1588">
      <contour>
        <pt x="142" y="226" on="1"/>
        <pt x="142" y="1588" on="1"/>
        <pt x="842" y="1588" on="1"/>
        <pt x="842" y="226" on="1"/>
      </contour>
      <contour>
        <pt x="284" y="368" on="1"/>
        <pt x="700" y="368" on="1"/>
        <pt x="700" y="1447" on="1"/>
        <pt x="284" y="1447" on="1"/>
      </contour>
    </TTGlyph>
    <TTGlyph name="plus" xMin="142" yMin="226" xMax="842" yMax="1588">
      <contour>
        <pt x="142" y="226" on="1"/>
        <pt x="142" y="1588" on="1"/>
        <pt x="842" y="1588" on="1"/>
        <pt x="842" y="226" on="1"/>
      </contour>
      <contour>
        <pt x="284" y="368" on="1"/>
        <pt x="700" y="368" on="1"/>
        <pt x="700" y="1447" on="1"/>
        <pt x="284" y="1447" on="1"/>
      </contour>
    </TTGlyph>
    <TTGlyph name="quotedbl" xMin="142" yMin="226" xMax="842" yMax="1588">
      <contour>
        <pt x="142" y="226" on="1"/>
        <pt x="142" y="1588" on="1"/>
        <pt x="842" y="1588" on="1"/>
        <pt x="842" y="226" on="1"/>
      </contour>
      <contour>
        <pt x="284" y="368" on="1"/>
        <pt x="700" y="368" on="1"/>
        <pt x="700" y="1447" on="1"/>
        <pt x="284" y="1447" on="1"/>
      </contour>
    </TTGlyph>
    <TTGlyph name="quotesingle" xMin="142" yMin="226" xMax="842" yMax="1588">
      <contour>
        <pt x="142" y="226" on="1"/>
        <pt x="142" y="1588" on="1"/>
        <pt x="842" y="1588" on="1"/>
        <pt x="842" y="226" on="1"/>
      </contour>
      <contour>
        <pt x="284" y="368" on="1"/>
        <pt x="700" y="368" on="1"/>
        <pt x="700" y="1447" on="1"/>
        <pt x="284" y="1447" on="1"/>
      </contour>
    </TTGlyph>
    <TTGlyph name="rehdotbelowdotabovefinal" xMin="142" yMin="226" xMax="842" yMax="1588">
      <contour>
        <pt x="142" y="226" on="1"/>
        <pt x="142" y="1588" on="1"/>
        <pt x="842" y="1588" on="1"/>
        <pt x="842" y="226" on="1"/>
      </contour>
      <contour>
        <pt x="284" y="368" on="1"/>
        <pt x="700" y="368" on="1"/>
        <pt x="700" y="1447" on="1"/>
        <pt x="284" y="1447" on="1"/>
      </contour>
    </TTGlyph>
    <TTGlyph name="rehringfinal" xMin="142" yMin="226" xMax="842" yMax="1588">
      <contour>
        <pt x="142" y="226" on="1"/>
        <pt x="142" y="1588" on="1"/>
        <pt x="842" y="1588" on="1"/>
        <pt x="842" y="226" on="1"/>
      </contour>
      <contour>
        <pt x="284" y="368" on="1"/>
        <pt x="700" y="368" on="1"/>
        <pt x="700" y="1447" on="1"/>
        <pt x="284" y="1447" on="1"/>
      </contour>
    </TTGlyph>
    <TTGlyph name="rrehfinalarabic" xMin="142" yMin="226" xMax="842" yMax="1588">
      <contour>
        <pt x="142" y="226" on="1"/>
        <pt x="142" y="1588" on="1"/>
        <pt x="842" y="1588" on="1"/>
        <pt x="842" y="226" on="1"/>
      </contour>
      <contour>
        <pt x="284" y="368" on="1"/>
        <pt x="700" y="368" on="1"/>
        <pt x="700" y="1447" on="1"/>
        <pt x="284" y="1447" on="1"/>
      </contour>
    </TTGlyph>
    <TTGlyph name="seendotbelowdotabovefinal" xMin="142" yMin="226" xMax="842" yMax="1588">
      <contour>
        <pt x="142" y="226" on="1"/>
        <pt x="142" y="1588" on="1"/>
        <pt x="842" y="1588" on="1"/>
        <pt x="842" y="226" on="1"/>
      </contour>
      <contour>
        <pt x="284" y="368" on="1"/>
        <pt x="700" y="368" on="1"/>
        <pt x="700" y="1447" on="1"/>
        <pt x="284" y="1447" on="1"/>
      </contour>
    </TTGlyph>
    <TTGlyph name="seendotbelowdotaboveinitial" xMin="142" yMin="226" xMax="842" yMax="1588">
      <contour>
        <pt x="142" y="226" on="1"/>
        <pt x="142" y="1588" on="1"/>
        <pt x="842" y="1588" on="1"/>
        <pt x="842" y="226" on="1"/>
      </contour>
      <contour>
        <pt x="284" y="368" on="1"/>
        <pt x="700" y="368" on="1"/>
        <pt x="700" y="1447" on="1"/>
        <pt x="284" y="1447" on="1"/>
      </contour>
    </TTGlyph>
    <TTGlyph name="seendotbelowdotabovemedial" xMin="142" yMin="226" xMax="842" yMax="1588">
      <contour>
        <pt x="142" y="226" on="1"/>
        <pt x="142" y="1588" on="1"/>
        <pt x="842" y="1588" on="1"/>
        <pt x="842" y="226" on="1"/>
      </contour>
      <contour>
        <pt x="284" y="368" on="1"/>
        <pt x="700" y="368" on="1"/>
        <pt x="700" y="1447" on="1"/>
        <pt x="284" y="1447" on="1"/>
      </contour>
    </TTGlyph>
    <TTGlyph name="shaddadammaarabic" xMin="142" yMin="226" xMax="842" yMax="1588">
      <contour>
        <pt x="142" y="226" on="1"/>
        <pt x="142" y="1588" on="1"/>
        <pt x="842" y="1588" on="1"/>
        <pt x="842" y="226" on="1"/>
      </contour>
      <contour>
        <pt x="284" y="368" on="1"/>
        <pt x="700" y="368" on="1"/>
        <pt x="700" y="1447" on="1"/>
        <pt x="284" y="1447" on="1"/>
      </contour>
    </TTGlyph>
    <TTGlyph name="shaddadammatanarabic" xMin="142" yMin="226" xMax="842" yMax="1588">
      <contour>
        <pt x="142" y="226" on="1"/>
        <pt x="142" y="1588" on="1"/>
        <pt x="842" y="1588" on="1"/>
        <pt x="842" y="226" on="1"/>
      </contour>
      <contour>
        <pt x="284" y="368" on="1"/>
        <pt x="700" y="368" on="1"/>
        <pt x="700" y="1447" on="1"/>
        <pt x="284" y="1447" on="1"/>
      </contour>
    </TTGlyph>
    <TTGlyph name="shaddafathaarabic" xMin="142" yMin="226" xMax="842" yMax="1588">
      <contour>
        <pt x="142" y="226" on="1"/>
        <pt x="142" y="1588" on="1"/>
        <pt x="842" y="1588" on="1"/>
        <pt x="842" y="226" on="1"/>
      </contour>
      <contour>
        <pt x="284" y="368" on="1"/>
        <pt x="700" y="368" on="1"/>
        <pt x="700" y="1447" on="1"/>
        <pt x="284" y="1447" on="1"/>
      </contour>
    </TTGlyph>
    <TTGlyph name="shaddakasraarabic" xMin="142" yMin="226" xMax="842" yMax="1588">
      <contour>
        <pt x="142" y="226" on="1"/>
        <pt x="142" y="1588" on="1"/>
        <pt x="842" y="1588" on="1"/>
        <pt x="842" y="226" on="1"/>
      </contour>
      <contour>
        <pt x="284" y="368" on="1"/>
        <pt x="700" y="368" on="1"/>
        <pt x="700" y="1447" on="1"/>
        <pt x="284" y="1447" on="1"/>
      </contour>
    </TTGlyph>
    <TTGlyph name="shaddakasratanarabic" xMin="142" yMin="226" xMax="842" yMax="1588">
      <contour>
        <pt x="142" y="226" on="1"/>
        <pt x="142" y="1588" on="1"/>
        <pt x="842" y="1588" on="1"/>
        <pt x="842" y="226" on="1"/>
      </contour>
      <contour>
        <pt x="284" y="368" on="1"/>
        <pt x="700" y="368" on="1"/>
        <pt x="700" y="1447" on="1"/>
        <pt x="284" y="1447" on="1"/>
      </contour>
    </TTGlyph>
    <TTGlyph name="slash" xMin="142" yMin="226" xMax="842" yMax="1588">
      <contour>
        <pt x="142" y="226" on="1"/>
        <pt x="142" y="1588" on="1"/>
        <pt x="842" y="1588" on="1"/>
        <pt x="842" y="226" on="1"/>
      </contour>
      <contour>
        <pt x="284" y="368" on="1"/>
        <pt x="700" y="368" on="1"/>
        <pt x="700" y="1447" on="1"/>
        <pt x="284" y="1447" on="1"/>
      </contour>
    </TTGlyph>
    <TTGlyph name="space" xMin="142" yMin="226" xMax="842" yMax="1588">
      <contour>
        <pt x="142" y="226" on="1"/>
        <pt x="142" y="1588" on="1"/>
        <pt x="842" y="1588" on="1"/>
        <pt x="842" y="226" on="1"/>
      </contour>
      <contour>
        <pt x="284" y="368" on="1"/>
        <pt x="700" y="368" on="1"/>
        <pt x="700" y="1447" on="1"/>
        <pt x="284" y="1447" on="1"/>
      </contour>
    </TTGlyph>
    <TTGlyph name="tchehfinalarabic" xMin="142" yMin="226" xMax="842" yMax="1588">
      <contour>
        <pt x="142" y="226" on="1"/>
        <pt x="142" y="1588" on="1"/>
        <pt x="842" y="1588" on="1"/>
        <pt x="842" y="226" on="1"/>
      </contour>
      <contour>
        <pt x="284" y="368" on="1"/>
        <pt x="700" y="368" on="1"/>
        <pt x="700" y="1447" on="1"/>
        <pt x="284" y="1447" on="1"/>
      </contour>
    </TTGlyph>
    <TTGlyph name="tchehinitialarabic" xMin="142" yMin="226" xMax="842" yMax="1588">
      <contour>
        <pt x="142" y="226" on="1"/>
        <pt x="142" y="1588" on="1"/>
        <pt x="842" y="1588" on="1"/>
        <pt x="842" y="226" on="1"/>
      </contour>
      <contour>
        <pt x="284" y="368" on="1"/>
        <pt x="700" y="368" on="1"/>
        <pt x="700" y="1447" on="1"/>
        <pt x="284" y="1447" on="1"/>
      </contour>
    </TTGlyph>
    <TTGlyph name="tchehmedialarabic" xMin="142" yMin="226" xMax="842" yMax="1588">
      <contour>
        <pt x="142" y="226" on="1"/>
        <pt x="142" y="1588" on="1"/>
        <pt x="842" y="1588" on="1"/>
        <pt x="842" y="226" on="1"/>
      </contour>
      <contour>
        <pt x="284" y="368" on="1"/>
        <pt x="700" y="368" on="1"/>
        <pt x="700" y="1447" on="1"/>
        <pt x="284" y="1447" on="1"/>
      </contour>
    </TTGlyph>
    <TTGlyph name="tehhahisolatedarabic" xMin="142" yMin="226" xMax="842" yMax="1588">
      <contour>
        <pt x="142" y="226" on="1"/>
        <pt x="142" y="1588" on="1"/>
        <pt x="842" y="1588" on="1"/>
        <pt x="842" y="226" on="1"/>
      </contour>
      <contour>
        <pt x="284" y="368" on="1"/>
        <pt x="700" y="368" on="1"/>
        <pt x="700" y="1447" on="1"/>
        <pt x="284" y="1447" on="1"/>
      </contour>
    </TTGlyph>
    <TTGlyph name="tehjeemisolatedarabic" xMin="142" yMin="226" xMax="842" yMax="1588">
      <contour>
        <pt x="142" y="226" on="1"/>
        <pt x="142" y="1588" on="1"/>
        <pt x="842" y="1588" on="1"/>
        <pt x="842" y="226" on="1"/>
      </contour>
      <contour>
        <pt x="284" y="368" on="1"/>
        <pt x="700" y="368" on="1"/>
        <pt x="700" y="1447" on="1"/>
        <pt x="284" y="1447" on="1"/>
      </contour>
    </TTGlyph>
    <TTGlyph name="tehmeemisolatedarabic" xMin="142" yMin="226" xMax="842" yMax="1588">
      <contour>
        <pt x="142" y="226" on="1"/>
        <pt x="142" y="1588" on="1"/>
        <pt x="842" y="1588" on="1"/>
        <pt x="842" y="226" on="1"/>
      </contour>
      <contour>
        <pt x="284" y="368" on="1"/>
        <pt x="700" y="368" on="1"/>
        <pt x="700" y="1447" on="1"/>
        <pt x="284" y="1447" on="1"/>
      </contour>
    </TTGlyph>
    <TTGlyph name="tehnoonfinalarabic" xMin="142" yMin="226" xMax="842" yMax="1588">
      <contour>
        <pt x="142" y="226" on="1"/>
        <pt x="142" y="1588" on="1"/>
        <pt x="842" y="1588" on="1"/>
        <pt x="842" y="226" on="1"/>
      </contour>
      <contour>
        <pt x="284" y="368" on="1"/>
        <pt x="700" y="368" on="1"/>
        <pt x="700" y="1447" on="1"/>
        <pt x="284" y="1447" on="1"/>
      </contour>
    </TTGlyph>
    <TTGlyph name="tehringfinal" xMin="142" yMin="226" xMax="842" yMax="1588">
      <contour>
        <pt x="142" y="226" on="1"/>
        <pt x="142" y="1588" on="1"/>
        <pt x="842" y="1588" on="1"/>
        <pt x="842" y="226" on="1"/>
      </contour>
      <contour>
        <pt x="284" y="368" on="1"/>
        <pt x="700" y="368" on="1"/>
        <pt x="700" y="1447" on="1"/>
        <pt x="284" y="1447" on="1"/>
      </contour>
    </TTGlyph>
    <TTGlyph name="tehringinitial" xMin="142" yMin="226" xMax="842" yMax="1588">
      <contour>
        <pt x="142" y="226" on="1"/>
        <pt x="142" y="1588" on="1"/>
        <pt x="842" y="1588" on="1"/>
        <pt x="842" y="226" on="1"/>
      </contour>
      <contour>
        <pt x="284" y="368" on="1"/>
        <pt x="700" y="368" on="1"/>
        <pt x="700" y="1447" on="1"/>
        <pt x="284" y="1447" on="1"/>
      </contour>
    </TTGlyph>
    <TTGlyph name="tehringmedial" xMin="142" yMin="226" xMax="842" yMax="1588">
      <contour>
        <pt x="142" y="226" on="1"/>
        <pt x="142" y="1588" on="1"/>
        <pt x="842" y="1588" on="1"/>
        <pt x="842" y="226" on="1"/>
      </contour>
      <contour>
        <pt x="284" y="368" on="1"/>
        <pt x="700" y="368" on="1"/>
        <pt x="700" y="1447" on="1"/>
        <pt x="284" y="1447" on="1"/>
      </contour>
    </TTGlyph>
    <TTGlyph name="ttehfinalarabic" xMin="142" yMin="226" xMax="842" yMax="1588">
      <contour>
        <pt x="142" y="226" on="1"/>
        <pt x="142" y="1588" on="1"/>
        <pt x="842" y="1588" on="1"/>
        <pt x="842" y="226" on="1"/>
      </contour>
      <contour>
        <pt x="284" y="368" on="1"/>
        <pt x="700" y="368" on="1"/>
        <pt x="700" y="1447" on="1"/>
        <pt x="284" y="1447" on="1"/>
      </contour>
    </TTGlyph>
    <TTGlyph name="ttehinitialarabic" xMin="142" yMin="226" xMax="842" yMax="1588">
      <contour>
        <pt x="142" y="226" on="1"/>
        <pt x="142" y="1588" on="1"/>
        <pt x="842" y="1588" on="1"/>
        <pt x="842" y="226" on="1"/>
      </contour>
      <contour>
        <pt x="284" y="368" on="1"/>
        <pt x="700" y="368" on="1"/>
        <pt x="700" y="1447" on="1"/>
        <pt x="284" y="1447" on="1"/>
      </contour>
    </TTGlyph>
    <TTGlyph name="ttehmedialarabic" xMin="142" yMin="226" xMax="842" yMax="1588">
      <contour>
        <pt x="142" y="226" on="1"/>
        <pt x="142" y="1588" on="1"/>
        <pt x="842" y="1588" on="1"/>
        <pt x="842" y="226" on="1"/>
      </contour>
      <contour>
        <pt x="284" y="368" on="1"/>
        <pt x="700" y="368" on="1"/>
        <pt x="700" y="1447" on="1"/>
        <pt x="284" y="1447" on="1"/>
      </contour>
    </TTGlyph>
    <TTGlyph name="uni000D" xMin="142" yMin="226" xMax="842" yMax="1588">
      <contour>
        <pt x="142" y="226" on="1"/>
        <pt x="142" y="1588" on="1"/>
        <pt x="842" y="1588" on="1"/>
        <pt x="842" y="226" on="1"/>
      </contour>
      <contour>
        <pt x="284" y="368" on="1"/>
        <pt x="700" y="368" on="1"/>
        <pt x="700" y="1447" on="1"/>
        <pt x="284" y="1447" on="1"/>
      </contour>
    </TTGlyph>
    <TTGlyph name="uni00A0" xMin="142" yMin="226" xMax="842" yMax="1588">
      <contour>
        <pt x="142" y="226" on="1"/>
        <pt x="142" y="1588" on="1"/>
        <pt x="842" y="1588" on="1"/>
        <pt x="842" y="226" on="1"/>
      </contour>
      <contour>
        <pt x="284" y="368" on="1"/>
        <pt x="700" y="368" on="1"/>
        <pt x="700" y="1447" on="1"/>
        <pt x="284" y="1447" on="1"/>
      </contour>
    </TTGlyph>
    <TTGlyph name="uni00AD" xMin="142" yMin="226" xMax="842" yMax="1588">
      <contour>
        <pt x="142" y="226" on="1"/>
        <pt x="142" y="1588" on="1"/>
        <pt x="842" y="1588" on="1"/>
        <pt x="842" y="226" on="1"/>
      </contour>
      <contour>
        <pt x="284" y="368" on="1"/>
        <pt x="700" y="368" on="1"/>
        <pt x="700" y="1447" on="1"/>
        <pt x="284" y="1447" on="1"/>
      </contour>
    </TTGlyph>
    <TTGlyph name="uni0653" xMin="142" yMin="226" xMax="842" yMax="1588">
      <contour>
        <pt x="142" y="226" on="1"/>
        <pt x="142" y="1588" on="1"/>
        <pt x="842" y="1588" on="1"/>
        <pt x="842" y="226" on="1"/>
      </contour>
      <contour>
        <pt x="284" y="368" on="1"/>
        <pt x="700" y="368" on="1"/>
        <pt x="700" y="1447" on="1"/>
        <pt x="284" y="1447" on="1"/>
      </contour>
    </TTGlyph>
    <TTGlyph name="uni0654" xMin="142" yMin="226" xMax="842" yMax="1588">
      <contour>
        <pt x="142" y="226" on="1"/>
        <pt x="142" y="1588" on="1"/>
        <pt x="842" y="1588" on="1"/>
        <pt x="842" y="226" on="1"/>
      </contour>
      <contour>
        <pt x="284" y="368" on="1"/>
        <pt x="700" y="368" on="1"/>
        <pt x="700" y="1447" on="1"/>
        <pt x="284" y="1447" on="1"/>
      </contour>
    </TTGlyph>
    <TTGlyph name="uni0655" xMin="142" yMin="226" xMax="842" yMax="1588">
      <contour>
        <pt x="142" y="226" on="1"/>
        <pt x="142" y="1588" on="1"/>
        <pt x="842" y="1588" on="1"/>
        <pt x="842" y="226" on="1"/>
      </contour>
      <contour>
        <pt x="284" y="368" on="1"/>
        <pt x="700" y="368" on="1"/>
        <pt x="700" y="1447" on="1"/>
        <pt x="284" y="1447" on="1"/>
      </contour>
    </TTGlyph>
    <TTGlyph name="uni066B" xMin="142" yMin="226" xMax="842" yMax="1588">
      <contour>
        <pt x="142" y="226" on="1"/>
        <pt x="142" y="1588" on="1"/>
        <pt x="842" y="1588" on="1"/>
        <pt x="842" y="226" on="1"/>
      </contour>
      <contour>
        <pt x="284" y="368" on="1"/>
        <pt x="700" y="368" on="1"/>
        <pt x="700" y="1447" on="1"/>
        <pt x="284" y="1447" on="1"/>
      </contour>
    </TTGlyph>
    <TTGlyph name="uni066C" xMin="142" yMin="226" xMax="842" yMax="1588">
      <contour>
        <pt x="142" y="226" on="1"/>
        <pt x="142" y="1588" on="1"/>
        <pt x="842" y="1588" on="1"/>
        <pt x="842" y="226" on="1"/>
      </contour>
      <contour>
        <pt x="284" y="368" on="1"/>
        <pt x="700" y="368" on="1"/>
        <pt x="700" y="1447" on="1"/>
        <pt x="284" y="1447" on="1"/>
      </contour>
    </TTGlyph>
    <TTGlyph name="uni0671" xMin="142" yMin="226" xMax="842" yMax="1588">
      <contour>
        <pt x="142" y="226" on="1"/>
        <pt x="142" y="1588" on="1"/>
        <pt x="842" y="1588" on="1"/>
        <pt x="842" y="226" on="1"/>
      </contour>
      <contour>
        <pt x="284" y="368" on="1"/>
        <pt x="700" y="368" on="1"/>
        <pt x="700" y="1447" on="1"/>
        <pt x="284" y="1447" on="1"/>
      </contour>
    </TTGlyph>
    <TTGlyph name="uni067C" xMin="142" yMin="226" xMax="842" yMax="1588">
      <contour>
        <pt x="142" y="226" on="1"/>
        <pt x="142" y="1588" on="1"/>
        <pt x="842" y="1588" on="1"/>
        <pt x="842" y="226" on="1"/>
      </contour>
      <contour>
        <pt x="284" y="368" on="1"/>
        <pt x="700" y="368" on="1"/>
        <pt x="700" y="1447" on="1"/>
        <pt x="284" y="1447" on="1"/>
      </contour>
    </TTGlyph>
    <TTGlyph name="uni0681" xMin="142" yMin="226" xMax="842" yMax="1588">
      <contour>
        <pt x="142" y="226" on="1"/>
        <pt x="142" y="1588" on="1"/>
        <pt x="842" y="1588" on="1"/>
        <pt x="842" y="226" on="1"/>
      </contour>
      <contour>
        <pt x="284" y="368" on="1"/>
        <pt x="700" y="368" on="1"/>
        <pt x="700" y="1447" on="1"/>
        <pt x="284" y="1447" on="1"/>
      </contour>
    </TTGlyph>
    <TTGlyph name="uni0685" xMin="142" yMin="226" xMax="842" yMax="1588">
      <contour>
        <pt x="142" y="226" on="1"/>
        <pt x="142" y="1588" on="1"/>
        <pt x="842" y="1588" on="1"/>
        <pt x="842" y="226" on="1"/>
      </contour>
      <contour>
        <pt x="284" y="368" on="1"/>
        <pt x="700" y="368" on="1"/>
        <pt x="700" y="1447" on="1"/>
        <pt x="284" y="1447" on="1"/>
      </contour>
    </TTGlyph>
    <TTGlyph name="uni0689" xMin="142" yMin="226" xMax="842" yMax="1588">
      <contour>
        <pt x="142" y="226" on="1"/>
        <pt x="142" y="1588" on="1"/>
        <pt x="842" y="1588" on="1"/>
        <pt x="842" y="226" on="1"/>
      </contour>
      <contour>
        <pt x="284" y="368" on="1"/>
        <pt x="700" y="368" on="1"/>
        <pt x="700" y="1447" on="1"/>
        <pt x="284" y="1447" on="1"/>
      </contour>
    </TTGlyph>
    <TTGlyph name="uni0693" xMin="142" yMin="226" xMax="842" yMax="1588">
      <contour>
        <pt x="142" y="226" on="1"/>
        <pt x="142" y="1588" on="1"/>
        <pt x="842" y="1588" on="1"/>
        <pt x="842" y="226" on="1"/>
      </contour>
      <contour>
        <pt x="284" y="368" on="1"/>
        <pt x="700" y="368" on="1"/>
        <pt x="700" y="1447" on="1"/>
        <pt x="284" y="1447" on="1"/>
      </contour>
    </TTGlyph>
    <TTGlyph name="uni0696" xMin="142" yMin="226" xMax="842" yMax="1588">
      <contour>
        <pt x="142" y="226" on="1"/>
        <pt x="142" y="1588" on="1"/>
        <pt x="842" y="1588" on="1"/>
        <pt x="842" y="226" on="1"/>
      </contour>
      <contour>
        <pt x="284" y="368" on="1"/>
        <pt x="700" y="368" on="1"/>
        <pt x="700" y="1447" on="1"/>
        <pt x="284" y="1447" on="1"/>
      </contour>
    </TTGlyph>
    <TTGlyph name="uni069A" xMin="142" yMin="226" xMax="842" yMax="1588">
      <contour>
        <pt x="142" y="226" on="1"/>
        <pt x="142" y="1588" on="1"/>
        <pt x="842" y="1588" on="1"/>
        <pt x="842" y="226" on="1"/>
      </contour>
      <contour>
        <pt x="284" y="368" on="1"/>
        <pt x="700" y="368" on="1"/>
        <pt x="700" y="1447" on="1"/>
        <pt x="284" y="1447" on="1"/>
      </contour>
    </TTGlyph>
    <TTGlyph name="uni06A9" xMin="142" yMin="226" xMax="842" yMax="1588">
      <contour>
        <pt x="142" y="226" on="1"/>
        <pt x="142" y="1588" on="1"/>
        <pt x="842" y="1588" on="1"/>
        <pt x="842" y="226" on="1"/>
      </contour>
      <contour>
        <pt x="284" y="368" on="1"/>
        <pt x="700" y="368" on="1"/>
        <pt x="700" y="1447" on="1"/>
        <pt x="284" y="1447" on="1"/>
      </contour>
    </TTGlyph>
    <TTGlyph name="uni06AB" xMin="142" yMin="226" xMax="842" yMax="1588">
      <contour>
        <pt x="142" y="226" on="1"/>
        <pt x="142" y="1588" on="1"/>
        <pt x="842" y="1588" on="1"/>
        <pt x="842" y="226" on="1"/>
      </contour>
      <contour>
        <pt x="284" y="368" on="1"/>
        <pt x="700" y="368" on="1"/>
        <pt x="700" y="1447" on="1"/>
        <pt x="284" y="1447" on="1"/>
      </contour>
    </TTGlyph>
    <TTGlyph name="uni06B7" xMin="142" yMin="226" xMax="842" yMax="1588">
      <contour>
        <pt x="142" y="226" on="1"/>
        <pt x="142" y="1588" on="1"/>
        <pt x="842" y="1588" on="1"/>
        <pt x="842" y="226" on="1"/>
      </contour>
      <contour>
        <pt x="284" y="368" on="1"/>
        <pt x="700" y="368" on="1"/>
        <pt x="700" y="1447" on="1"/>
        <pt x="284" y="1447" on="1"/>
      </contour>
    </TTGlyph>
    <TTGlyph name="uni06BC" xMin="142" yMin="226" xMax="842" yMax="1588">
      <contour>
        <pt x="142" y="226" on="1"/>
        <pt x="142" y="1588" on="1"/>
        <pt x="842" y="1588" on="1"/>
        <pt x="842" y="226" on="1"/>
      </contour>
      <contour>
        <pt x="284" y="368" on="1"/>
        <pt x="700" y="368" on="1"/>
        <pt x="700" y="1447" on="1"/>
        <pt x="284" y="1447" on="1"/>
      </contour>
    </TTGlyph>
    <TTGlyph name="uni06BE" xMin="142" yMin="226" xMax="842" yMax="1588">
      <contour>
        <pt x="142" y="226" on="1"/>
        <pt x="142" y="1588" on="1"/>
        <pt x="842" y="1588" on="1"/>
        <pt x="842" y="226" on="1"/>
      </contour>
      <contour>
        <pt x="284" y="368" on="1"/>
        <pt x="700" y="368" on="1"/>
        <pt x="700" y="1447" on="1"/>
        <pt x="284" y="1447" on="1"/>
      </contour>
    </TTGlyph>
    <TTGlyph name="uni06C2" xMin="142" yMin="226" xMax="842" yMax="1588">
      <contour>
        <pt x="142" y="226" on="1"/>
        <pt x="142" y="1588" on="1"/>
        <pt x="842" y="1588" on="1"/>
        <pt x="842" y="226" on="1"/>
      </contour>
      <contour>
        <pt x="284" y="368" on="1"/>
        <pt x="700" y="368" on="1"/>
        <pt x="700" y="1447" on="1"/>
        <pt x="284" y="1447" on="1"/>
      </contour>
    </TTGlyph>
    <TTGlyph name="uni06C7" xMin="142" yMin="226" xMax="842" yMax="1588">
      <contour>
        <pt x="142" y="226" on="1"/>
        <pt x="142" y="1588" on="1"/>
        <pt x="842" y="1588" on="1"/>
        <pt x="842" y="226" on="1"/>
      </contour>
      <contour>
        <pt x="284" y="368" on="1"/>
        <pt x="700" y="368" on="1"/>
        <pt x="700" y="1447" on="1"/>
        <pt x="284" y="1447" on="1"/>
      </contour>
    </TTGlyph>
    <TTGlyph name="uni06C9" xMin="142" yMin="226" xMax="842" yMax="1588">
      <contour>
        <pt x="142" y="226" on="1"/>
        <pt x="142" y="1588" on="1"/>
        <pt x="842" y="1588" on="1"/>
        <pt x="842" y="226" on="1"/>
      </contour>
      <contour>
        <pt x="284" y="368" on="1"/>
        <pt x="700" y="368" on="1"/>
        <pt x="700" y="1447" on="1"/>
        <pt x="284" y="1447" on="1"/>
      </contour>
    </TTGlyph>
    <TTGlyph name="uni06CC" xMin="142" yMin="226" xMax="842" yMax="1588">
      <contour>
        <pt x="142" y="226" on="1"/>
        <pt x="142" y="1588" on="1"/>
        <pt x="842" y="1588" on="1"/>
        <pt x="842" y="226" on="1"/>
      </contour>
      <contour>
        <pt x="284" y="368" on="1"/>
        <pt x="700" y="368" on="1"/>
        <pt x="700" y="1447" on="1"/>
        <pt x="284" y="1447" on="1"/>
      </contour>
    </TTGlyph>
    <TTGlyph name="uni06CD" xMin="142" yMin="226" xMax="842" yMax="1588">
      <contour>
        <pt x="142" y="226" on="1"/>
        <pt x="142" y="1588" on="1"/>
        <pt x="842" y="1588" on="1"/>
        <pt x="842" y="226" on="1"/>
      </contour>
      <contour>
        <pt x="284" y="368" on="1"/>
        <pt x="700" y="368" on="1"/>
        <pt x="700" y="1447" on="1"/>
        <pt x="284" y="1447" on="1"/>
      </contour>
    </TTGlyph>
    <TTGlyph name="uni06D0" xMin="142" yMin="226" xMax="842" yMax="1588">
      <contour>
        <pt x="142" y="226" on="1"/>
        <pt x="142" y="1588" on="1"/>
        <pt x="842" y="1588" on="1"/>
        <pt x="842" y="226" on="1"/>
      </contour>
      <contour>
        <pt x="284" y="368" on="1"/>
        <pt x="700" y="368" on="1"/>
        <pt x="700" y="1447" on="1"/>
        <pt x="284" y="1447" on="1"/>
      </contour>
    </TTGlyph>
    <TTGlyph name="uni06D1" xMin="142" yMin="226" xMax="842" yMax="1588">
      <contour>
        <pt x="142" y="226" on="1"/>
        <pt x="142" y="1588" on="1"/>
        <pt x="842" y="1588" on="1"/>
        <pt x="842" y="226" on="1"/>
      </contour>
      <contour>
        <pt x="284" y="368" on="1"/>
        <pt x="700" y="368" on="1"/>
        <pt x="700" y="1447" on="1"/>
        <pt x="284" y="1447" on="1"/>
      </contour>
    </TTGlyph>
    <TTGlyph name="uni06D3" xMin="142" yMin="226" xMax="842" yMax="1588">
      <contour>
        <pt x="142" y="226" on="1"/>
        <pt x="142" y="1588" on="1"/>
        <pt x="842" y="1588" on="1"/>
        <pt x="842" y="226" on="1"/>
      </contour>
      <contour>
        <pt x="284" y="368" on="1"/>
        <pt x="700" y="368" on="1"/>
        <pt x="700" y="1447" on="1"/>
        <pt x="284" y="1447" on="1"/>
      </contour>
    </TTGlyph>
    <TTGlyph name="uni06D4" xMin="142" yMin="226" xMax="842" yMax="1588">
      <contour>
        <pt x="142" y="226" on="1"/>
        <pt x="142" y="1588" on="1"/>
        <pt x="842" y="1588" on="1"/>
        <pt x="842" y="226" on="1"/>
      </contour>
      <contour>
        <pt x="284" y="368" on="1"/>
        <pt x="700" y="368" on="1"/>
        <pt x="700" y="1447" on="1"/>
        <pt x="284" y="1447" on="1"/>
      </contour>
    </TTGlyph>
    <TTGlyph name="uni06F0" xMin="142" yMin="226" xMax="842" yMax="1588">
      <contour>
        <pt x="142" y="226" on="1"/>
        <pt x="142" y="1588" on="1"/>
        <pt x="842" y="1588" on="1"/>
        <pt x="842" y="226" on="1"/>
      </contour>
      <contour>
        <pt x="284" y="368" on="1"/>
        <pt x="700" y="368" on="1"/>
        <pt x="700" y="1447" on="1"/>
        <pt x="284" y="1447" on="1"/>
      </contour>
    </TTGlyph>
    <TTGlyph name="uni06F1" xMin="142" yMin="226" xMax="842" yMax="1588">
      <contour>
        <pt x="142" y="226" on="1"/>
        <pt x="142" y="1588" on="1"/>
        <pt x="842" y="1588" on="1"/>
        <pt x="842" y="226" on="1"/>
      </contour>
      <contour>
        <pt x="284" y="368" on="1"/>
        <pt x="700" y="368" on="1"/>
        <pt x="700" y="1447" on="1"/>
        <pt x="284" y="1447" on="1"/>
      </contour>
    </TTGlyph>
    <TTGlyph name="uni06F2" xMin="142" yMin="226" xMax="842" yMax="1588">
      <contour>
        <pt x="142" y="226" on="1"/>
        <pt x="142" y="1588" on="1"/>
        <pt x="842" y="1588" on="1"/>
        <pt x="842" y="226" on="1"/>
      </contour>
      <contour>
        <pt x="284" y="368" on="1"/>
        <pt x="700" y="368" on="1"/>
        <pt x="700" y="1447" on="1"/>
        <pt x="284" y="1447" on="1"/>
      </contour>
    </TTGlyph>
    <TTGlyph name="uni06F3" xMin="142" yMin="226" xMax="842" yMax="1588">
      <contour>
        <pt x="142" y="226" on="1"/>
        <pt x="142" y="1588" on="1"/>
        <pt x="842" y="1588" on="1"/>
        <pt x="842" y="226" on="1"/>
      </contour>
      <contour>
        <pt x="284" y="368" on="1"/>
        <pt x="700" y="368" on="1"/>
        <pt x="700" y="1447" on="1"/>
        <pt x="284" y="1447" on="1"/>
      </contour>
    </TTGlyph>
    <TTGlyph name="uni06F4" xMin="142" yMin="226" xMax="842" yMax="1588">
      <contour>
        <pt x="142" y="226" on="1"/>
        <pt x="142" y="1588" on="1"/>
        <pt x="842" y="1588" on="1"/>
        <pt x="842" y="226" on="1"/>
      </contour>
      <contour>
        <pt x="284" y="368" on="1"/>
        <pt x="700" y="368" on="1"/>
        <pt x="700" y="1447" on="1"/>
        <pt x="284" y="1447" on="1"/>
      </contour>
    </TTGlyph>
    <TTGlyph name="uni06F5" xMin="142" yMin="226" xMax="842" yMax="1588">
      <contour>
        <pt x="142" y="226" on="1"/>
        <pt x="142" y="1588" on="1"/>
        <pt x="842" y="1588" on="1"/>
        <pt x="842" y="226" on="1"/>
      </contour>
      <contour>
        <pt x="284" y="368" on="1"/>
        <pt x="700" y="368" on="1"/>
        <pt x="700" y="1447" on="1"/>
        <pt x="284" y="1447" on="1"/>
      </contour>
    </TTGlyph>
    <TTGlyph name="uni06F6" xMin="142" yMin="226" xMax="842" yMax="1588">
      <contour>
        <pt x="142" y="226" on="1"/>
        <pt x="142" y="1588" on="1"/>
        <pt x="842" y="1588" on="1"/>
        <pt x="842" y="226" on="1"/>
      </contour>
      <contour>
        <pt x="284" y="368" on="1"/>
        <pt x="700" y="368" on="1"/>
        <pt x="700" y="1447" on="1"/>
        <pt x="284" y="1447" on="1"/>
      </contour>
    </TTGlyph>
    <TTGlyph name="uni06F7" xMin="142" yMin="226" xMax="842" yMax="1588">
      <contour>
        <pt x="142" y="226" on="1"/>
        <pt x="142" y="1588" on="1"/>
        <pt x="842" y="1588" on="1"/>
        <pt x="842" y="226" on="1"/>
      </contour>
      <contour>
        <pt x="284" y="368" on="1"/>
        <pt x="700" y="368" on="1"/>
        <pt x="700" y="1447" on="1"/>
        <pt x="284" y="1447" on="1"/>
      </contour>
    </TTGlyph>
    <TTGlyph name="uni06F8" xMin="142" yMin="226" xMax="842" yMax="1588">
      <contour>
        <pt x="142" y="226" on="1"/>
        <pt x="142" y="1588" on="1"/>
        <pt x="842" y="1588" on="1"/>
        <pt x="842" y="226" on="1"/>
      </contour>
      <contour>
        <pt x="284" y="368" on="1"/>
        <pt x="700" y="368" on="1"/>
        <pt x="700" y="1447" on="1"/>
        <pt x="284" y="1447" on="1"/>
      </contour>
    </TTGlyph>
    <TTGlyph name="uni06F9" xMin="142" yMin="226" xMax="842" yMax="1588">
      <contour>
        <pt x="142" y="226" on="1"/>
        <pt x="142" y="1588" on="1"/>
        <pt x="842" y="1588" on="1"/>
        <pt x="842" y="226" on="1"/>
      </contour>
      <contour>
        <pt x="284" y="368" on="1"/>
        <pt x="700" y="368" on="1"/>
        <pt x="700" y="1447" on="1"/>
        <pt x="284" y="1447" on="1"/>
      </contour>
    </TTGlyph>
    <TTGlyph name="uni2010" xMin="151" yMin="-461" xMax="2731" yMax="1853">
      <contour>
        <pt x="2690" y="1601" on="1"/>
        <pt x="2690" y="1566" on="0"/>
        <pt x="2476" y="1430" on="1"/>
        <pt x="2288" y="1310" on="0"/>
        <pt x="2183" y="1259" on="1"/>
        <pt x="2174" y="1264" on="0"/>
        <pt x="2158" y="1275" on="0"/>
        <pt x="2158" y="1290" on="1"/>
        <pt x="2158" y="1339" on="0"/>
        <pt x="2201" y="1367" on="1"/>
        <pt x="2607" y="1638" on="0"/>
        <pt x="2635" y="1637" on="1"/>
        <pt x="2690" y="1637" on="1"/>
      </contour>
      <contour>
        <pt x="2137" y="1437" on="1"/>
        <pt x="2137" y="1405" on="0"/>
        <pt x="2010" y="1338" on="1"/>
        <pt x="1894" y="1276" on="0"/>
        <pt x="1824" y="1259" on="1"/>
        <pt x="1799" y="1285" on="1"/>
        <pt x="1813" y="1299" on="0"/>
        <pt x="1879" y="1344" on="1"/>
        <pt x="1925" y="1376" on="0"/>
        <pt x="1933" y="1407" on="1"/>
        <pt x="1916" y="1423" on="0"/>
        <pt x="1897" y="1423" on="1"/>
        <pt x="1887" y="1423" on="0"/>
        <pt x="1777" y="1363" on="0"/>
        <pt x="1766" y="1352" on="1"/>
        <pt x="1728" y="1352" on="1"/>
        <pt x="1728" y="1396" on="1"/>
        <pt x="1728" y="1446" on="0"/>
        <pt x="1823" y="1495" on="1"/>
        <pt x="1902" y="1536" on="0"/>
        <pt x="1938" y="1536" on="1"/>
        <pt x="2029" y="1536" on="0"/>
        <pt x="2137" y="1482" on="1"/>
      </contour>
      <contour>
        <pt x="1574" y="1285" on="1"/>
        <pt x="1574" y="1273" on="0"/>
        <pt x="1563" y="1242" on="0"/>
        <pt x="1563" y="1231" on="1"/>
        <pt x="1562" y="1230" on="0"/>
        <pt x="1561" y="1229" on="1"/>
        <pt x="1552" y="1218" on="0"/>
        <pt x="1533" y="1218" on="1"/>
        <pt x="1521" y="1218" on="0"/>
        <pt x="1439" y="1270" on="0"/>
        <pt x="1426" y="1270" on="1"/>
        <pt x="1413" y="1270" on="0"/>
        <pt x="1363" y="1221" on="1"/>
        <pt x="1298" y="1157" on="0"/>
        <pt x="1275" y="1140" on="1"/>
        <pt x="1209" y="1090" on="0"/>
        <pt x="1047" y="1024" on="1"/>
        <pt x="1001" y="1035" on="1"/>
        <pt x="1001" y="1063" on="1"/>
        <pt x="1083" y="1119" on="0"/>
        <pt x="1165" y="1176" on="1"/>
        <pt x="1318" y="1284" on="0"/>
        <pt x="1318" y="1305" on="1"/>
        <pt x="1318" y="1316" on="0"/>
        <pt x="1246" y="1410" on="0"/>
        <pt x="1246" y="1428" on="1"/>
        <pt x="1246" y="1461" on="0"/>
        <pt x="1300" y="1534" on="1"/>
        <pt x="1362" y="1617" on="0"/>
        <pt x="1415" y="1617" on="1"/>
        <pt x="1478" y="1617" on="0"/>
        <pt x="1482" y="1517" on="1"/>
        <pt x="1483" y="1459" on="0"/>
        <pt x="1484" y="1400" on="1"/>
        <pt x="1491" y="1389" on="0"/>
        <pt x="1542" y="1346" on="1"/>
        <pt x="1574" y="1318" on="0"/>
      </contour>
      <contour>
        <pt x="2516" y="-81" on="1"/>
        <pt x="2516" y="-102" on="0"/>
        <pt x="2458" y="-174" on="0"/>
        <pt x="2439" y="-174" on="1"/>
        <pt x="2425" y="-174" on="0"/>
        <pt x="2376" y="-142" on="1"/>
        <pt x="2322" y="-107" on="0"/>
        <pt x="2322" y="-86" on="1"/>
        <pt x="2322" y="-64" on="0"/>
        <pt x="2400" y="20" on="0"/>
        <pt x="2424" y="20" on="1"/>
        <pt x="2458" y="20" on="0"/>
        <pt x="2489" y="-22" on="1"/>
        <pt x="2516" y="-58" on="0"/>
      </contour>
      <contour>
        <pt x="1585" y="752" on="1"/>
        <pt x="1585" y="732" on="0"/>
        <pt x="1554" y="690" on="1"/>
        <pt x="1522" y="645" on="0"/>
        <pt x="1503" y="645" on="1"/>
        <pt x="1479" y="645" on="0"/>
        <pt x="1444" y="688" on="1"/>
        <pt x="1410" y="728" on="0"/>
        <pt x="1410" y="747" on="1"/>
        <pt x="1410" y="768" on="0"/>
        <pt x="1435" y="806" on="1"/>
        <pt x="1463" y="850" on="0"/>
        <pt x="1487" y="850" on="1"/>
        <pt x="1508" y="850" on="0"/>
        <pt x="1585" y="776" on="0"/>
      </contour>
      <contour>
        <pt x="837" y="1705" on="1"/>
        <pt x="837" y="1687" on="0"/>
        <pt x="810" y="1629" on="1"/>
        <pt x="781" y="1565" on="0"/>
        <pt x="758" y="1556" on="1"/>
        <pt x="752" y="1570" on="0"/>
        <pt x="746" y="1632" on="1"/>
        <pt x="745" y="1642" on="0"/>
        <pt x="741" y="1652" on="1"/>
        <pt x="715" y="1730" on="0"/>
        <pt x="632" y="1730" on="1"/>
        <pt x="539" y="1730" on="0"/>
        <pt x="452" y="1588" on="1"/>
        <pt x="376" y="1467" on="0"/>
        <pt x="376" y="1402" on="1"/>
        <pt x="376" y="1391" on="0"/>
        <pt x="417" y="1298" on="0"/>
        <pt x="417" y="1285" on="1"/>
        <pt x="417" y="1218" on="0"/>
        <pt x="371" y="1218" on="1"/>
        <pt x="304" y="1218" on="0"/>
        <pt x="304" y="1341" on="1"/>
        <pt x="304" y="1494" on="0"/>
        <pt x="412" y="1666" on="1"/>
        <pt x="529" y="1853" on="0"/>
        <pt x="663" y="1853" on="1"/>
        <pt x="729" y="1853" on="0"/>
        <pt x="777" y="1819" on="1"/>
        <pt x="837" y="1778" on="0"/>
      </contour>
      <contour>
        <pt x="2731" y="260" on="1"/>
        <pt x="2731" y="217" on="0"/>
        <pt x="2677" y="188" on="1"/>
        <pt x="2653" y="174" on="0"/>
        <pt x="2567" y="174" on="1"/>
        <pt x="2555" y="174" on="0"/>
        <pt x="2447" y="184" on="0"/>
        <pt x="2434" y="184" on="1"/>
        <pt x="2347" y="184" on="0"/>
        <pt x="1857" y="10" on="0"/>
        <pt x="1779" y="10" on="1"/>
        <pt x="1721" y="10" on="0"/>
        <pt x="1680" y="23" on="1"/>
        <pt x="1665" y="28" on="0"/>
        <pt x="1630" y="61" on="1"/>
        <pt x="1598" y="92" on="0"/>
        <pt x="1585" y="92" on="1"/>
        <pt x="1566" y="92" on="0"/>
        <pt x="1492" y="52" on="1"/>
        <pt x="1413" y="10" on="0"/>
        <pt x="1391" y="-18" on="1"/>
        <pt x="1376" y="-39" on="0"/>
        <pt x="1354" y="-104" on="1"/>
        <pt x="1330" y="-175" on="0"/>
        <pt x="1313" y="-202" on="1"/>
        <pt x="1204" y="-379" on="0"/>
        <pt x="1069" y="-427" on="1"/>
        <pt x="975" y="-461" on="0"/>
        <pt x="863" y="-461" on="1"/>
        <pt x="785" y="-461" on="0"/>
        <pt x="593" y="-417" on="1"/>
        <pt x="593" y="-405" on="0"/>
        <pt x="570" y="-384" on="1"/>
        <pt x="597" y="-358" on="0"/>
        <pt x="643" y="-358" on="1"/>
        <pt x="655" y="-358" on="0"/>
        <pt x="763" y="-368" on="0"/>
        <pt x="775" y="-368" on="1"/>
        <pt x="915" y="-368" on="0"/>
        <pt x="1052" y="-287" on="1"/>
        <pt x="1200" y="-200" on="0"/>
        <pt x="1277" y="-54" on="1"/>
        <pt x="1277" y="-45" on="0"/>
        <pt x="1260" y="-34" on="1"/>
        <pt x="1164" y="-21" on="0"/>
        <pt x="1130" y="-8" on="1"/>
        <pt x="1041" y="25" on="0"/>
        <pt x="1041" y="102" on="1"/>
        <pt x="1041" y="120" on="0"/>
        <pt x="1092" y="215" on="1"/>
        <pt x="1144" y="315" on="0"/>
        <pt x="1167" y="333" on="1"/>
        <pt x="1186" y="348" on="0"/>
        <pt x="1216" y="348" on="1"/>
        <pt x="1272" y="348" on="0"/>
        <pt x="1381" y="143" on="0"/>
        <pt x="1400" y="143" on="1"/>
        <pt x="1410" y="143" on="0"/>
        <pt x="1600" y="256" on="0"/>
        <pt x="1615" y="256" on="1"/>
        <pt x="1629" y="256" on="0"/>
        <pt x="1673" y="224" on="1"/>
        <pt x="1735" y="182" on="0"/>
        <pt x="1745" y="176" on="1"/>
        <pt x="1767" y="164" on="0"/>
        <pt x="1835" y="164" on="1"/>
        <pt x="1948" y="164" on="0"/>
        <pt x="2015" y="211" on="1"/>
        <pt x="1996" y="266" on="0"/>
        <pt x="1782" y="266" on="1"/>
        <pt x="1780" y="268" on="0"/>
        <pt x="1780" y="269" on="1"/>
        <pt x="1769" y="279" on="0"/>
        <pt x="1769" y="297" on="1"/>
        <pt x="1769" y="364" on="0"/>
        <pt x="1912" y="464" on="1"/>
        <pt x="2007" y="531" on="0"/>
        <pt x="2089" y="569" on="1"/>
        <pt x="2097" y="573" on="0"/>
        <pt x="2230" y="605" on="1"/>
        <pt x="2332" y="631" on="0"/>
        <pt x="2370" y="674" on="1"/>
        <pt x="2374" y="700" on="0"/>
        <pt x="2386" y="744" on="1"/>
        <pt x="2414" y="816" on="0"/>
        <pt x="2457" y="859" on="1"/>
        <pt x="2466" y="864" on="0"/>
        <pt x="2481" y="864" on="1"/>
        <pt x="2532" y="864" on="0"/>
        <pt x="2680" y="753" on="0"/>
        <pt x="2680" y="717" on="1"/>
        <pt x="2680" y="635" on="0"/>
        <pt x="2586" y="589" on="1"/>
        <pt x="2556" y="574" on="0"/>
        <pt x="2430" y="539" on="1"/>
        <pt x="2265" y="492" on="0"/>
        <pt x="2238" y="483" on="1"/>
        <pt x="2126" y="447" on="0"/>
        <pt x="2055" y="403" on="1"/>
        <pt x="2053" y="398" on="0"/>
        <pt x="2063" y="391" on="1"/>
        <pt x="2260" y="335" on="0"/>
        <pt x="2707" y="313" on="1"/>
        <pt x="2713" y="309" on="0"/>
        <pt x="2731" y="293" on="1"/>
      </contour>
      <contour>
        <pt x="745" y="1285" on="1"/>
        <pt x="745" y="1266" on="0"/>
        <pt x="715" y="1229" on="0"/>
        <pt x="699" y="1229" on="1"/>
        <pt x="686" y="1229" on="0"/>
        <pt x="609" y="1259" on="0"/>
        <pt x="597" y="1259" on="1"/>
        <pt x="584" y="1259" on="0"/>
        <pt x="541" y="1210" on="1"/>
        <pt x="484" y="1144" on="0"/>
        <pt x="466" y="1127" on="1"/>
        <pt x="463" y="1125" on="0"/>
        <pt x="301" y="1025" on="1"/>
        <pt x="254" y="1025" on="1"/>
        <pt x="254" y="1058" on="1"/>
        <pt x="253" y="1071" on="0"/>
        <pt x="489" y="1277" on="0"/>
        <pt x="489" y="1290" on="1"/>
        <pt x="489" y="1301" on="0"/>
        <pt x="427" y="1394" on="0"/>
        <pt x="427" y="1407" on="1"/>
        <pt x="427" y="1448" on="0"/>
        <pt x="469" y="1512" on="1"/>
        <pt x="517" y="1587" on="0"/>
        <pt x="570" y="1587" on="1"/>
        <pt x="647" y="1587" on="0"/>
        <pt x="669" y="1511" on="1"/>
        <pt x="670" y="1511" on="0"/>
        <pt x="659" y="1399" on="1"/>
        <pt x="685" y="1370" on="0"/>
        <pt x="711" y="1340" on="1"/>
        <pt x="745" y="1300" on="0"/>
      </contour>
      <contour>
        <pt x="520" y="717" on="1"/>
        <pt x="520" y="679" on="0"/>
        <pt x="466" y="624" on="0"/>
        <pt x="443" y="624" on="1"/>
        <pt x="409" y="624" on="0"/>
        <pt x="381" y="655" on="1"/>
        <pt x="356" y="682" on="0"/>
        <pt x="356" y="706" on="1"/>
        <pt x="356" y="732" on="0"/>
        <pt x="371" y="765" on="1"/>
        <pt x="392" y="809" on="0"/>
        <pt x="422" y="809" on="1"/>
        <pt x="460" y="809" on="0"/>
        <pt x="492" y="773" on="1"/>
        <pt x="520" y="741" on="0"/>
      </contour>
      <contour>
        <pt x="847" y="220" on="1"/>
        <pt x="847" y="153" on="0"/>
        <pt x="843" y="135" on="1"/>
        <pt x="834" y="96" on="0"/>
        <pt x="748" y="-30" on="0"/>
        <pt x="639" y="-68" on="1"/>
        <pt x="485" y="-122" on="0"/>
        <pt x="433" y="-122" on="1"/>
        <pt x="308" y="-122" on="0"/>
        <pt x="232" y="-56" on="1"/>
        <pt x="151" y="14" on="0"/>
        <pt x="151" y="138" on="1"/>
        <pt x="151" y="197" on="0"/>
        <pt x="194" y="288" on="1"/>
        <pt x="246" y="397" on="0"/>
        <pt x="314" y="408" on="1"/>
        <pt x="314" y="362" on="1"/>
        <pt x="314" y="352" on="0"/>
        <pt x="253" y="235" on="0"/>
        <pt x="253" y="220" on="1"/>
        <pt x="253" y="134" on="0"/>
        <pt x="316" y="79" on="1"/>
        <pt x="373" y="30" on="0"/>
        <pt x="453" y="30" on="1"/>
        <pt x="525" y="30" on="0"/>
        <pt x="632" y="79" on="1"/>
        <pt x="755" y="135" on="0"/>
        <pt x="755" y="200" on="1"/>
        <pt x="755" y="212" on="0"/>
        <pt x="643" y="469" on="0"/>
        <pt x="643" y="481" on="1"/>
        <pt x="643" y="516" on="0"/>
        <pt x="686" y="603" on="1"/>
        <pt x="724" y="603" on="0"/>
        <pt x="741" y="570" on="1"/>
        <pt x="805" y="436" on="0"/>
        <pt x="817" y="402" on="1"/>
        <pt x="847" y="317" on="0"/>
      </contour>
      <contour>
        <pt x="1398" y="1434" on="1"/>
        <pt x="1398" y="1471" on="1"/>
        <pt x="1388" y="1483" on="0"/>
        <pt x="1361" y="1483" on="1"/>
        <pt x="1361" y="1466" on="0"/>
      </contour>
      <contour>
        <pt x="581" y="1439" on="1"/>
        <pt x="570" y="1448" on="0"/>
        <pt x="569" y="1462" on="1"/>
        <pt x="530" y="1462" on="1"/>
        <pt x="538" y="1447" on="0"/>
        <pt x="556" y="1439" on="1"/>
        <pt x="573" y="1430" on="0"/>
      </contour>
      <contour>
        <pt x="1218" y="153" on="1"/>
        <pt x="1182" y="178" on="1"/>
        <pt x="1173" y="164" on="1"/>
        <pt x="1209" y="139" on="1"/>
      </contour>
    </TTGlyph>
    <TTGlyph name="uni2011" xMin="151" yMin="-461" xMax="2731" yMax="1853">
      <contour>
        <pt x="2690" y="1601" on="1"/>
        <pt x="2690" y="1566" on="0"/>
        <pt x="2476" y="1430" on="1"/>
        <pt x="2288" y="1310" on="0"/>
        <pt x="2183" y="1259" on="1"/>
        <pt x="2174" y="1264" on="0"/>
        <pt x="2158" y="1275" on="0"/>
        <pt x="2158" y="1290" on="1"/>
        <pt x="2158" y="1339" on="0"/>
        <pt x="2201" y="1367" on="1"/>
        <pt x="2607" y="1638" on="0"/>
        <pt x="2635" y="1637" on="1"/>
        <pt x="2690" y="1637" on="1"/>
      </contour>
      <contour>
        <pt x="2137" y="1437" on="1"/>
        <pt x="2137" y="1405" on="0"/>
        <pt x="2010" y="1338" on="1"/>
        <pt x="1894" y="1276" on="0"/>
        <pt x="1824" y="1259" on="1"/>
        <pt x="1799" y="1285" on="1"/>
        <pt x="1813" y="1299" on="0"/>
        <pt x="1879" y="1344" on="1"/>
        <pt x="1925" y="1376" on="0"/>
        <pt x="1933" y="1407" on="1"/>
        <pt x="1916" y="1423" on="0"/>
        <pt x="1897" y="1423" on="1"/>
        <pt x="1887" y="1423" on="0"/>
        <pt x="1777" y="1363" on="0"/>
        <pt x="1766" y="1352" on="1"/>
        <pt x="1728" y="1352" on="1"/>
        <pt x="1728" y="1396" on="1"/>
        <pt x="1728" y="1446" on="0"/>
        <pt x="1823" y="1495" on="1"/>
        <pt x="1902" y="1536" on="0"/>
        <pt x="1938" y="1536" on="1"/>
        <pt x="2029" y="1536" on="0"/>
        <pt x="2137" y="1482" on="1"/>
      </contour>
      <contour>
        <pt x="1574" y="1285" on="1"/>
        <pt x="1574" y="1273" on="0"/>
        <pt x="1563" y="1242" on="0"/>
        <pt x="1563" y="1231" on="1"/>
        <pt x="1562" y="1230" on="0"/>
        <pt x="1561" y="1229" on="1"/>
        <pt x="1552" y="1218" on="0"/>
        <pt x="1533" y="1218" on="1"/>
        <pt x="1521" y="1218" on="0"/>
        <pt x="1439" y="1270" on="0"/>
        <pt x="1426" y="1270" on="1"/>
        <pt x="1413" y="1270" on="0"/>
        <pt x="1363" y="1221" on="1"/>
        <pt x="1298" y="1157" on="0"/>
        <pt x="1275" y="1140" on="1"/>
        <pt x="1209" y="1090" on="0"/>
        <pt x="1047" y="1024" on="1"/>
        <pt x="1001" y="1035" on="1"/>
        <pt x="1001" y="1063" on="1"/>
        <pt x="1083" y="1119" on="0"/>
        <pt x="1165" y="1176" on="1"/>
        <pt x="1318" y="1284" on="0"/>
        <pt x="1318" y="1305" on="1"/>
        <pt x="1318" y="1316" on="0"/>
        <pt x="1246" y="1410" on="0"/>
        <pt x="1246" y="1428" on="1"/>
        <pt x="1246" y="1461" on="0"/>
        <pt x="1300" y="1534" on="1"/>
        <pt x="1362" y="1617" on="0"/>
        <pt x="1415" y="1617" on="1"/>
        <pt x="1478" y="1617" on="0"/>
        <pt x="1482" y="1517" on="1"/>
        <pt x="1483" y="1459" on="0"/>
        <pt x="1484" y="1400" on="1"/>
        <pt x="1491" y="1389" on="0"/>
        <pt x="1542" y="1346" on="1"/>
        <pt x="1574" y="1318" on="0"/>
      </contour>
      <contour>
        <pt x="2516" y="-81" on="1"/>
        <pt x="2516" y="-102" on="0"/>
        <pt x="2458" y="-174" on="0"/>
        <pt x="2439" y="-174" on="1"/>
        <pt x="2425" y="-174" on="0"/>
        <pt x="2376" y="-142" on="1"/>
        <pt x="2322" y="-107" on="0"/>
        <pt x="2322" y="-86" on="1"/>
        <pt x="2322" y="-64" on="0"/>
        <pt x="2400" y="20" on="0"/>
        <pt x="2424" y="20" on="1"/>
        <pt x="2458" y="20" on="0"/>
        <pt x="2489" y="-22" on="1"/>
        <pt x="2516" y="-58" on="0"/>
      </contour>
      <contour>
        <pt x="1585" y="752" on="1"/>
        <pt x="1585" y="732" on="0"/>
        <pt x="1554" y="690" on="1"/>
        <pt x="1522" y="645" on="0"/>
        <pt x="1503" y="645" on="1"/>
        <pt x="1479" y="645" on="0"/>
        <pt x="1444" y="688" on="1"/>
        <pt x="1410" y="728" on="0"/>
        <pt x="1410" y="747" on="1"/>
        <pt x="1410" y="768" on="0"/>
        <pt x="1435" y="806" on="1"/>
        <pt x="1463" y="850" on="0"/>
        <pt x="1487" y="850" on="1"/>
        <pt x="1508" y="850" on="0"/>
        <pt x="1585" y="776" on="0"/>
      </contour>
      <contour>
        <pt x="837" y="1705" on="1"/>
        <pt x="837" y="1687" on="0"/>
        <pt x="810" y="1629" on="1"/>
        <pt x="781" y="1565" on="0"/>
        <pt x="758" y="1556" on="1"/>
        <pt x="752" y="1570" on="0"/>
        <pt x="746" y="1632" on="1"/>
        <pt x="745" y="1642" on="0"/>
        <pt x="741" y="1652" on="1"/>
        <pt x="715" y="1730" on="0"/>
        <pt x="632" y="1730" on="1"/>
        <pt x="539" y="1730" on="0"/>
        <pt x="452" y="1588" on="1"/>
        <pt x="376" y="1467" on="0"/>
        <pt x="376" y="1402" on="1"/>
        <pt x="376" y="1391" on="0"/>
        <pt x="417" y="1298" on="0"/>
        <pt x="417" y="1285" on="1"/>
        <pt x="417" y="1218" on="0"/>
        <pt x="371" y="1218" on="1"/>
        <pt x="304" y="1218" on="0"/>
        <pt x="304" y="1341" on="1"/>
        <pt x="304" y="1494" on="0"/>
        <pt x="412" y="1666" on="1"/>
        <pt x="529" y="1853" on="0"/>
        <pt x="663" y="1853" on="1"/>
        <pt x="729" y="1853" on="0"/>
        <pt x="777" y="1819" on="1"/>
        <pt x="837" y="1778" on="0"/>
      </contour>
      <contour>
        <pt x="2731" y="260" on="1"/>
        <pt x="2731" y="217" on="0"/>
        <pt x="2677" y="188" on="1"/>
        <pt x="2653" y="174" on="0"/>
        <pt x="2567" y="174" on="1"/>
        <pt x="2555" y="174" on="0"/>
        <pt x="2447" y="184" on="0"/>
        <pt x="2434" y="184" on="1"/>
        <pt x="2347" y="184" on="0"/>
        <pt x="1857" y="10" on="0"/>
        <pt x="1779" y="10" on="1"/>
        <pt x="1721" y="10" on="0"/>
        <pt x="1680" y="23" on="1"/>
        <pt x="1665" y="28" on="0"/>
        <pt x="1630" y="61" on="1"/>
        <pt x="1598" y="92" on="0"/>
        <pt x="1585" y="92" on="1"/>
        <pt x="1566" y="92" on="0"/>
        <pt x="1492" y="52" on="1"/>
        <pt x="1413" y="10" on="0"/>
        <pt x="1391" y="-18" on="1"/>
        <pt x="1376" y="-39" on="0"/>
        <pt x="1354" y="-104" on="1"/>
        <pt x="1330" y="-175" on="0"/>
        <pt x="1313" y="-202" on="1"/>
        <pt x="1204" y="-379" on="0"/>
        <pt x="1069" y="-427" on="1"/>
        <pt x="975" y="-461" on="0"/>
        <pt x="863" y="-461" on="1"/>
        <pt x="785" y="-461" on="0"/>
        <pt x="593" y="-417" on="1"/>
        <pt x="593" y="-405" on="0"/>
        <pt x="570" y="-384" on="1"/>
        <pt x="597" y="-358" on="0"/>
        <pt x="643" y="-358" on="1"/>
        <pt x="655" y="-358" on="0"/>
        <pt x="763" y="-368" on="0"/>
        <pt x="775" y="-368" on="1"/>
        <pt x="915" y="-368" on="0"/>
        <pt x="1052" y="-287" on="1"/>
        <pt x="1200" y="-200" on="0"/>
        <pt x="1277" y="-54" on="1"/>
        <pt x="1277" y="-45" on="0"/>
        <pt x="1260" y="-34" on="1"/>
        <pt x="1164" y="-21" on="0"/>
        <pt x="1130" y="-8" on="1"/>
        <pt x="1041" y="25" on="0"/>
        <pt x="1041" y="102" on="1"/>
        <pt x="1041" y="120" on="0"/>
        <pt x="1092" y="215" on="1"/>
        <pt x="1144" y="315" on="0"/>
        <pt x="1167" y="333" on="1"/>
        <pt x="1186" y="348" on="0"/>
        <pt x="1216" y="348" on="1"/>
        <pt x="1272" y="348" on="0"/>
        <pt x="1381" y="143" on="0"/>
        <pt x="1400" y="143" on="1"/>
        <pt x="1410" y="143" on="0"/>
        <pt x="1600" y="256" on="0"/>
        <pt x="1615" y="256" on="1"/>
        <pt x="1629" y="256" on="0"/>
        <pt x="1673" y="224" on="1"/>
        <pt x="1735" y="182" on="0"/>
        <pt x="1745" y="176" on="1"/>
        <pt x="1767" y="164" on="0"/>
        <pt x="1835" y="164" on="1"/>
        <pt x="1948" y="164" on="0"/>
        <pt x="2015" y="211" on="1"/>
        <pt x="1996" y="266" on="0"/>
        <pt x="1782" y="266" on="1"/>
        <pt x="1780" y="268" on="0"/>
        <pt x="1780" y="269" on="1"/>
        <pt x="1769" y="279" on="0"/>
        <pt x="1769" y="297" on="1"/>
        <pt x="1769" y="364" on="0"/>
        <pt x="1912" y="464" on="1"/>
        <pt x="2007" y="531" on="0"/>
        <pt x="2089" y="569" on="1"/>
        <pt x="2097" y="573" on="0"/>
        <pt x="2230" y="605" on="1"/>
        <pt x="2332" y="631" on="0"/>
        <pt x="2370" y="674" on="1"/>
        <pt x="2374" y="700" on="0"/>
        <pt x="2386" y="744" on="1"/>
        <pt x="2414" y="816" on="0"/>
        <pt x="2457" y="859" on="1"/>
        <pt x="2466" y="864" on="0"/>
        <pt x="2481" y="864" on="1"/>
        <pt x="2532" y="864" on="0"/>
        <pt x="2680" y="753" on="0"/>
        <pt x="2680" y="717" on="1"/>
        <pt x="2680" y="635" on="0"/>
        <pt x="2586" y="589" on="1"/>
        <pt x="2556" y="574" on="0"/>
        <pt x="2430" y="539" on="1"/>
        <pt x="2265" y="492" on="0"/>
        <pt x="2238" y="483" on="1"/>
        <pt x="2126" y="447" on="0"/>
        <pt x="2055" y="403" on="1"/>
        <pt x="2053" y="398" on="0"/>
        <pt x="2063" y="391" on="1"/>
        <pt x="2260" y="335" on="0"/>
        <pt x="2707" y="313" on="1"/>
        <pt x="2713" y="309" on="0"/>
        <pt x="2731" y="293" on="1"/>
      </contour>
      <contour>
        <pt x="745" y="1285" on="1"/>
        <pt x="745" y="1266" on="0"/>
        <pt x="715" y="1229" on="0"/>
        <pt x="699" y="1229" on="1"/>
        <pt x="686" y="1229" on="0"/>
        <pt x="609" y="1259" on="0"/>
        <pt x="597" y="1259" on="1"/>
        <pt x="584" y="1259" on="0"/>
        <pt x="541" y="1210" on="1"/>
        <pt x="484" y="1144" on="0"/>
        <pt x="466" y="1127" on="1"/>
        <pt x="463" y="1125" on="0"/>
        <pt x="301" y="1025" on="1"/>
        <pt x="254" y="1025" on="1"/>
        <pt x="254" y="1058" on="1"/>
        <pt x="253" y="1071" on="0"/>
        <pt x="489" y="1277" on="0"/>
        <pt x="489" y="1290" on="1"/>
        <pt x="489" y="1301" on="0"/>
        <pt x="427" y="1394" on="0"/>
        <pt x="427" y="1407" on="1"/>
        <pt x="427" y="1448" on="0"/>
        <pt x="469" y="1512" on="1"/>
        <pt x="517" y="1587" on="0"/>
        <pt x="570" y="1587" on="1"/>
        <pt x="647" y="1587" on="0"/>
        <pt x="669" y="1511" on="1"/>
        <pt x="670" y="1511" on="0"/>
        <pt x="659" y="1399" on="1"/>
        <pt x="685" y="1370" on="0"/>
        <pt x="711" y="1340" on="1"/>
        <pt x="745" y="1300" on="0"/>
      </contour>
      <contour>
        <pt x="520" y="717" on="1"/>
        <pt x="520" y="679" on="0"/>
        <pt x="466" y="624" on="0"/>
        <pt x="443" y="624" on="1"/>
        <pt x="409" y="624" on="0"/>
        <pt x="381" y="655" on="1"/>
        <pt x="356" y="682" on="0"/>
        <pt x="356" y="706" on="1"/>
        <pt x="356" y="732" on="0"/>
        <pt x="371" y="765" on="1"/>
        <pt x="392" y="809" on="0"/>
        <pt x="422" y="809" on="1"/>
        <pt x="460" y="809" on="0"/>
        <pt x="492" y="773" on="1"/>
        <pt x="520" y="741" on="0"/>
      </contour>
      <contour>
        <pt x="847" y="220" on="1"/>
        <pt x="847" y="153" on="0"/>
        <pt x="843" y="135" on="1"/>
        <pt x="834" y="96" on="0"/>
        <pt x="748" y="-30" on="0"/>
        <pt x="639" y="-68" on="1"/>
        <pt x="485" y="-122" on="0"/>
        <pt x="433" y="-122" on="1"/>
        <pt x="308" y="-122" on="0"/>
        <pt x="232" y="-56" on="1"/>
        <pt x="151" y="14" on="0"/>
        <pt x="151" y="138" on="1"/>
        <pt x="151" y="197" on="0"/>
        <pt x="194" y="288" on="1"/>
        <pt x="246" y="397" on="0"/>
        <pt x="314" y="408" on="1"/>
        <pt x="314" y="362" on="1"/>
        <pt x="314" y="352" on="0"/>
        <pt x="253" y="235" on="0"/>
        <pt x="253" y="220" on="1"/>
        <pt x="253" y="134" on="0"/>
        <pt x="316" y="79" on="1"/>
        <pt x="373" y="30" on="0"/>
        <pt x="453" y="30" on="1"/>
        <pt x="525" y="30" on="0"/>
        <pt x="632" y="79" on="1"/>
        <pt x="755" y="135" on="0"/>
        <pt x="755" y="200" on="1"/>
        <pt x="755" y="212" on="0"/>
        <pt x="643" y="469" on="0"/>
        <pt x="643" y="481" on="1"/>
        <pt x="643" y="516" on="0"/>
        <pt x="686" y="603" on="1"/>
        <pt x="724" y="603" on="0"/>
        <pt x="741" y="570" on="1"/>
        <pt x="805" y="436" on="0"/>
        <pt x="817" y="402" on="1"/>
        <pt x="847" y="317" on="0"/>
      </contour>
      <contour>
        <pt x="1398" y="1434" on="1"/>
        <pt x="1398" y="1471" on="1"/>
        <pt x="1388" y="1483" on="0"/>
        <pt x="1361" y="1483" on="1"/>
        <pt x="1361" y="1466" on="0"/>
      </contour>
      <contour>
        <pt x="581" y="1439" on="1"/>
        <pt x="570" y="1448" on="0"/>
        <pt x="569" y="1462" on="1"/>
        <pt x="530" y="1462" on="1"/>
        <pt x="538" y="1447" on="0"/>
        <pt x="556" y="1439" on="1"/>
        <pt x="573" y="1430" on="0"/>
      </contour>
      <contour>
        <pt x="1218" y="153" on="1"/>
        <pt x="1182" y="178" on="1"/>
        <pt x="1173" y="164" on="1"/>
        <pt x="1209" y="139" on="1"/>
      </contour>
    </TTGlyph>
    <TTGlyph name="uniE000" xMin="0" yMin="0" xMax="1560" yMax="1560">
      <contour>
        <pt x="0" y="1560" on="1"/>
        <pt x="1560" y="1560" on="1"/>
        <pt x="1560" y="0" on="1"/>
        <pt x="0" y="0" on="1"/>
      </contour>
    </TTGlyph>
    <TTGlyph name="uniFB51" xMin="401" yMin="-367" xMax="3851" yMax="1616">
      <contour>
        <pt x="3370" y="1570" on="1"/>
        <pt x="3370" y="1547" on="0"/>
        <pt x="3189" y="1430" on="1"/>
        <pt x="2958" y="1281" on="0"/>
        <pt x="2957" y="1280" on="1"/>
        <pt x="2920" y="1280" on="1"/>
        <pt x="2920" y="1345" on="1"/>
        <pt x="2920" y="1362" on="0"/>
        <pt x="3090" y="1474" on="1"/>
        <pt x="3257" y="1582" on="0"/>
        <pt x="3333" y="1616" on="1"/>
        <pt x="3370" y="1616" on="1"/>
      </contour>
      <contour>
        <pt x="2714" y="1477" on="1"/>
        <pt x="2565" y="1379" on="0"/>
        <pt x="2261" y="1178" on="1"/>
        <pt x="2224" y="1178" on="1"/>
        <pt x="2224" y="1222" on="1"/>
        <pt x="2224" y="1274" on="0"/>
        <pt x="2420" y="1384" on="1"/>
        <pt x="2421" y="1384" on="0"/>
        <pt x="2558" y="1475" on="1"/>
        <pt x="2647" y="1534" on="0"/>
        <pt x="2702" y="1545" on="1"/>
      </contour>
      <contour>
        <pt x="3851" y="1475" on="1"/>
        <pt x="3851" y="1407" on="0"/>
        <pt x="3709" y="1330" on="1"/>
        <pt x="3620" y="1288" on="0"/>
        <pt x="3531" y="1246" on="1"/>
        <pt x="3380" y="1167" on="0"/>
        <pt x="3227" y="1087" on="1"/>
        <pt x="2950" y="929" on="0"/>
        <pt x="2950" y="854" on="1"/>
        <pt x="2950" y="845" on="0"/>
        <pt x="3054" y="751" on="1"/>
        <pt x="3170" y="646" on="0"/>
        <pt x="3202" y="602" on="1"/>
        <pt x="3370" y="367" on="0"/>
        <pt x="3370" y="200" on="1"/>
        <pt x="3370" y="90" on="0"/>
        <pt x="3356" y="54" on="1"/>
        <pt x="3313" y="-51" on="0"/>
        <pt x="3032" y="-51" on="1"/>
        <pt x="2924" y="-51" on="0"/>
        <pt x="2883" y="-31" on="1"/>
        <pt x="2815" y="1" on="0"/>
        <pt x="2750" y="124" on="1"/>
        <pt x="2721" y="124" on="1"/>
        <pt x="2669" y="34" on="0"/>
        <pt x="2531" y="-9" on="1"/>
        <pt x="2431" y="-40" on="0"/>
        <pt x="2326" y="-40" on="1"/>
        <pt x="2268" y="-40" on="0"/>
        <pt x="2193" y="11" on="1"/>
        <pt x="2194" y="36" on="0"/>
        <pt x="2207" y="77" on="1"/>
        <pt x="2218" y="110" on="0"/>
        <pt x="2214" y="141" on="1"/>
        <pt x="2227" y="153" on="0"/>
        <pt x="2244" y="153" on="1"/>
        <pt x="2254" y="153" on="0"/>
        <pt x="2330" y="112" on="0"/>
        <pt x="2347" y="112" on="1"/>
        <pt x="2456" y="112" on="0"/>
        <pt x="2562" y="147" on="1"/>
        <pt x="2705" y="194" on="0"/>
        <pt x="2705" y="276" on="1"/>
        <pt x="2705" y="272" on="0"/>
        <pt x="2643" y="535" on="0"/>
        <pt x="2643" y="568" on="1"/>
        <pt x="2643" y="641" on="0"/>
        <pt x="2655" y="675" on="1"/>
        <pt x="2692" y="675" on="1"/>
        <pt x="2723" y="620" on="0"/>
        <pt x="2802" y="274" on="0"/>
        <pt x="2844" y="205" on="1"/>
        <pt x="2910" y="92" on="0"/>
        <pt x="3032" y="92" on="1"/>
        <pt x="3115" y="92" on="0"/>
        <pt x="3264" y="134" on="0"/>
        <pt x="3278" y="158" on="1"/>
        <pt x="3274" y="310" on="0"/>
        <pt x="2995" y="590" on="1"/>
        <pt x="2827" y="590" on="0"/>
        <pt x="2827" y="737" on="1"/>
        <pt x="2827" y="855" on="0"/>
        <pt x="2892" y="949" on="1"/>
        <pt x="2974" y="1068" on="0"/>
        <pt x="3131" y="1168" on="1"/>
        <pt x="3229" y="1230" on="0"/>
        <pt x="3435" y="1327" on="1"/>
        <pt x="3645" y="1426" on="0"/>
        <pt x="3731" y="1479" on="1"/>
        <pt x="3743" y="1488" on="0"/>
        <pt x="3815" y="1515" on="1"/>
        <pt x="3851" y="1515" on="0"/>
      </contour>
      <contour>
        <pt x="2582" y="927" on="1"/>
        <pt x="2582" y="910" on="0"/>
        <pt x="2565" y="873" on="1"/>
        <pt x="2546" y="829" on="0"/>
        <pt x="2525" y="829" on="1"/>
        <pt x="2496" y="829" on="0"/>
        <pt x="2464" y="854" on="1"/>
        <pt x="2429" y="882" on="0"/>
        <pt x="2429" y="916" on="1"/>
        <pt x="2429" y="949" on="0"/>
        <pt x="2472" y="1013" on="1"/>
        <pt x="2514" y="1013" on="1"/>
        <pt x="2546" y="1013" on="0"/>
      </contour>
      <contour>
        <pt x="2326" y="527" on="1"/>
        <pt x="2326" y="504" on="0"/>
        <pt x="2299" y="445" on="1"/>
        <pt x="2274" y="389" on="0"/>
        <pt x="2263" y="379" on="1"/>
        <pt x="2258" y="445" on="0"/>
        <pt x="2220" y="565" on="1"/>
        <pt x="2218" y="569" on="0"/>
        <pt x="2162" y="634" on="1"/>
        <pt x="2121" y="682" on="0"/>
        <pt x="2121" y="711" on="1"/>
        <pt x="2121" y="727" on="0"/>
        <pt x="2156" y="768" on="0"/>
        <pt x="2172" y="768" on="1"/>
        <pt x="2228" y="768" on="0"/>
        <pt x="2282" y="653" on="1"/>
        <pt x="2326" y="559" on="0"/>
      </contour>
      <contour>
        <pt x="1393" y="1585" on="1"/>
        <pt x="1373" y="1499" on="0"/>
        <pt x="1258" y="1448" on="1"/>
        <pt x="1160" y="1408" on="0"/>
        <pt x="1064" y="1369" on="1"/>
        <pt x="964" y="1312" on="0"/>
        <pt x="865" y="1280" on="1"/>
        <pt x="857" y="1285" on="0"/>
        <pt x="841" y="1295" on="0"/>
        <pt x="841" y="1311" on="1"/>
        <pt x="841" y="1359" on="0"/>
        <pt x="943" y="1409" on="1"/>
        <pt x="1001" y="1433" on="0"/>
        <pt x="1059" y="1456" on="1"/>
        <pt x="1163" y="1506" on="0"/>
        <pt x="1368" y="1597" on="1"/>
        <pt x="1383" y="1585" on="0"/>
      </contour>
      <contour>
        <pt x="1917" y="215" on="1"/>
        <pt x="1906" y="137" on="0"/>
        <pt x="1896" y="59" on="1"/>
        <pt x="1867" y="-31" on="0"/>
        <pt x="1767" y="-31" on="1"/>
        <pt x="1726" y="-31" on="1"/>
        <pt x="1705" y="-31" on="0"/>
        <pt x="1648" y="-8" on="1"/>
        <pt x="1582" y="18" on="0"/>
        <pt x="1552" y="45" on="1"/>
        <pt x="1539" y="57" on="0"/>
        <pt x="1492" y="152" on="0"/>
        <pt x="1471" y="174" on="1"/>
        <pt x="1392" y="106" on="0"/>
        <pt x="1374" y="91" on="1"/>
        <pt x="1318" y="47" on="0"/>
        <pt x="1278" y="34" on="1"/>
        <pt x="993" y="-61" on="0"/>
        <pt x="918" y="-61" on="1"/>
        <pt x="770" y="-61" on="1"/>
        <pt x="666" y="-61" on="0"/>
        <pt x="542" y="23" on="1"/>
        <pt x="401" y="118" on="0"/>
        <pt x="401" y="230" on="1"/>
        <pt x="401" y="272" on="0"/>
        <pt x="444" y="352" on="1"/>
        <pt x="481" y="423" on="0"/>
        <pt x="506" y="446" on="1"/>
        <pt x="539" y="458" on="0"/>
        <pt x="552" y="470" on="1"/>
        <pt x="552" y="442" on="0"/>
        <pt x="513" y="306" on="0"/>
        <pt x="513" y="297" on="1"/>
        <pt x="513" y="248" on="0"/>
        <pt x="526" y="233" on="1"/>
        <pt x="576" y="170" on="0"/>
        <pt x="634" y="145" on="1"/>
        <pt x="756" y="92" on="0"/>
        <pt x="802" y="92" on="1"/>
        <pt x="932" y="92" on="1"/>
        <pt x="1030" y="92" on="0"/>
        <pt x="1195" y="138" on="0"/>
        <pt x="1303" y="188" on="1"/>
        <pt x="1466" y="264" on="0"/>
        <pt x="1466" y="317" on="1"/>
        <pt x="1394" y="1039" on="1"/>
        <pt x="1394" y="1141" on="0"/>
        <pt x="1450" y="1188" on="1"/>
        <pt x="1468" y="1174" on="1"/>
        <pt x="1489" y="1011" on="0"/>
        <pt x="1513" y="742" on="1"/>
        <pt x="1521" y="621" on="0"/>
        <pt x="1528" y="500" on="1"/>
        <pt x="1541" y="348" on="0"/>
        <pt x="1581" y="221" on="1"/>
        <pt x="1590" y="193" on="0"/>
        <pt x="1649" y="162" on="1"/>
        <pt x="1707" y="133" on="0"/>
        <pt x="1747" y="133" on="1"/>
        <pt x="1824" y="133" on="0"/>
        <pt x="1824" y="164" on="1"/>
        <pt x="1824" y="260" on="0"/>
        <pt x="1749" y="741" on="1"/>
        <pt x="1727" y="876" on="0"/>
        <pt x="1728" y="914" on="1"/>
        <pt x="1681" y="967" on="0"/>
        <pt x="1681" y="1024" on="1"/>
        <pt x="1681" y="1073" on="0"/>
        <pt x="1755" y="1197" on="1"/>
        <pt x="1785" y="1197" on="0"/>
        <pt x="1799" y="1173" on="1"/>
        <pt x="1794" y="1074" on="0"/>
        <pt x="1885" y="1022" on="1"/>
        <pt x="1885" y="987" on="0"/>
        <pt x="1841" y="851" on="0"/>
        <pt x="1841" y="818" on="1"/>
        <pt x="1841" y="803" on="0"/>
        <pt x="1844" y="789" on="1"/>
      </contour>
      <contour>
        <pt x="2070" y="-122" on="1"/>
        <pt x="2070" y="-172" on="0"/>
        <pt x="2036" y="-191" on="1"/>
        <pt x="1899" y="-267" on="0"/>
        <pt x="1615" y="-367" on="1"/>
        <pt x="1579" y="-367" on="1"/>
        <pt x="1579" y="-323" on="1"/>
        <pt x="1578" y="-282" on="0"/>
        <pt x="1827" y="-192" on="1"/>
        <pt x="1906" y="-157" on="0"/>
        <pt x="2056" y="-92" on="1"/>
        <pt x="2070" y="-106" on="0"/>
      </contour>
      <contour>
        <pt x="1179" y="501" on="1"/>
        <pt x="1179" y="423" on="0"/>
        <pt x="1085" y="341" on="1"/>
        <pt x="999" y="266" on="0"/>
        <pt x="943" y="266" on="1"/>
        <pt x="902" y="266" on="0"/>
        <pt x="791" y="366" on="0"/>
        <pt x="791" y="406" on="1"/>
        <pt x="791" y="410" on="0"/>
        <pt x="792" y="414" on="1"/>
        <pt x="828" y="411" on="0"/>
        <pt x="882" y="400" on="1"/>
        <pt x="932" y="389" on="0"/>
        <pt x="943" y="389" on="1"/>
        <pt x="991" y="389" on="0"/>
        <pt x="1025" y="415" on="1"/>
        <pt x="1023" y="422" on="0"/>
        <pt x="957" y="443" on="1"/>
        <pt x="902" y="460" on="0"/>
        <pt x="902" y="537" on="1"/>
        <pt x="902" y="617" on="0"/>
        <pt x="1051" y="798" on="0"/>
        <pt x="1124" y="798" on="1"/>
        <pt x="1148" y="774" on="0"/>
        <pt x="1148" y="763" on="1"/>
        <pt x="1148" y="714" on="0"/>
        <pt x="1084" y="659" on="1"/>
        <pt x="1069" y="657" on="0"/>
        <pt x="1043" y="652" on="1"/>
        <pt x="1031" y="644" on="0"/>
        <pt x="1015" y="628" on="1"/>
        <pt x="1031" y="581" on="0"/>
        <pt x="1109" y="566" on="1"/>
        <pt x="1179" y="553" on="0"/>
      </contour>
    </TTGlyph>
    <TTGlyph name="uniFB52" xMin="196" yMin="-27" xMax="1311" yMax="1529">
      <contour>
        <pt x="1311" y="1406" on="1"/>
        <pt x="1295" y="1331" on="0"/>
        <pt x="1220" y="1288" on="1"/>
        <pt x="1157" y="1258" on="0"/>
        <pt x="1095" y="1230" on="1"/>
        <pt x="1001" y="1175" on="0"/>
        <pt x="817" y="1069" on="1"/>
        <pt x="782" y="1069" on="1"/>
        <pt x="769" y="1071" on="0"/>
        <pt x="769" y="1094" on="1"/>
        <pt x="769" y="1149" on="0"/>
        <pt x="844" y="1195" on="1"/>
        <pt x="851" y="1199" on="0"/>
        <pt x="967" y="1255" on="1"/>
        <pt x="979" y="1261" on="0"/>
        <pt x="1244" y="1406" on="1"/>
      </contour>
      <contour>
        <pt x="810" y="1493" on="1"/>
        <pt x="796" y="1478" on="0"/>
        <pt x="785" y="1449" on="1"/>
        <pt x="757" y="1419" on="0"/>
        <pt x="684" y="1369" on="1"/>
        <pt x="518" y="1294" on="0"/>
        <pt x="452" y="1294" on="1"/>
        <pt x="441" y="1294" on="0"/>
        <pt x="337" y="1325" on="0"/>
        <pt x="324" y="1325" on="1"/>
        <pt x="319" y="1325" on="0"/>
        <pt x="218" y="1261" on="1"/>
        <pt x="196" y="1272" on="1"/>
        <pt x="266" y="1448" on="0"/>
        <pt x="344" y="1448" on="1"/>
        <pt x="357" y="1448" on="0"/>
        <pt x="470" y="1417" on="0"/>
        <pt x="483" y="1417" on="1"/>
        <pt x="596" y="1417" on="0"/>
        <pt x="796" y="1529" on="1"/>
      </contour>
      <contour>
        <pt x="1230" y="184" on="1"/>
        <pt x="1230" y="155" on="0"/>
        <pt x="1196" y="102" on="1"/>
        <pt x="1159" y="45" on="0"/>
        <pt x="1127" y="45" on="1"/>
        <pt x="1115" y="45" on="0"/>
        <pt x="915" y="106" on="0"/>
        <pt x="902" y="106" on="1"/>
        <pt x="896" y="106" on="0"/>
        <pt x="863" y="70" on="1"/>
        <pt x="826" y="29" on="0"/>
        <pt x="808" y="17" on="1"/>
        <pt x="737" y="-27" on="0"/>
        <pt x="656" y="-27" on="1"/>
        <pt x="562" y="-27" on="0"/>
        <pt x="515" y="49" on="1"/>
        <pt x="479" y="106" on="0"/>
        <pt x="467" y="212" on="1"/>
        <pt x="461" y="289" on="0"/>
        <pt x="455" y="367" on="1"/>
        <pt x="380" y="949" on="0"/>
        <pt x="380" y="1104" on="1"/>
        <pt x="380" y="1144" on="0"/>
        <pt x="447" y="1233" on="1"/>
        <pt x="475" y="1199" on="0"/>
        <pt x="479" y="1115" on="1"/>
        <pt x="510" y="859" on="1"/>
        <pt x="520" y="726" on="0"/>
        <pt x="537" y="460" on="1"/>
        <pt x="542" y="329" on="0"/>
        <pt x="567" y="205" on="1"/>
        <pt x="571" y="184" on="0"/>
        <pt x="594" y="157" on="1"/>
        <pt x="620" y="127" on="0"/>
        <pt x="647" y="127" on="1"/>
        <pt x="713" y="127" on="0"/>
        <pt x="783" y="150" on="1"/>
        <pt x="822" y="162" on="0"/>
        <pt x="848" y="206" on="1"/>
        <pt x="864" y="242" on="0"/>
        <pt x="896" y="308" on="1"/>
        <pt x="910" y="318" on="0"/>
        <pt x="941" y="350" on="1"/>
        <pt x="960" y="381" on="0"/>
        <pt x="980" y="411" on="1"/>
        <pt x="1021" y="464" on="0"/>
        <pt x="1061" y="464" on="1"/>
        <pt x="1118" y="464" on="0"/>
        <pt x="1179" y="328" on="1"/>
        <pt x="1230" y="216" on="0"/>
      </contour>
      <contour>
        <pt x="1076" y="230" on="1"/>
        <pt x="1057" y="288" on="0"/>
        <pt x="1031" y="301" on="1"/>
        <pt x="985" y="278" on="0"/>
        <pt x="985" y="253" on="1"/>
        <pt x="996" y="247" on="0"/>
        <pt x="1018" y="230" on="1"/>
      </contour>
    </TTGlyph>
    <TTGlyph name="uniFB53" xMin="435" yMin="-184" xMax="1817" yMax="1801">
      <contour>
        <pt x="1807" y="1766" on="1"/>
        <pt x="1807" y="1727" on="0"/>
        <pt x="1784" y="1713" on="1"/>
        <pt x="1705" y="1665" on="0"/>
        <pt x="1565" y="1605" on="1"/>
        <pt x="1388" y="1529" on="0"/>
        <pt x="1341" y="1505" on="1"/>
        <pt x="1325" y="1518" on="0"/>
        <pt x="1316" y="1518" on="1"/>
        <pt x="1324" y="1552" on="0"/>
        <pt x="1359" y="1602" on="1"/>
        <pt x="1452" y="1659" on="0"/>
        <pt x="1601" y="1730" on="1"/>
        <pt x="1747" y="1801" on="0"/>
        <pt x="1766" y="1801" on="1"/>
        <pt x="1807" y="1801" on="0"/>
      </contour>
      <contour>
        <pt x="1816" y="1280" on="1"/>
        <pt x="1722" y="1251" on="0"/>
        <pt x="1516" y="1180" on="1"/>
        <pt x="1497" y="1183" on="0"/>
        <pt x="1479" y="1192" on="1"/>
        <pt x="1500" y="1210" on="0"/>
        <pt x="1500" y="1239" on="1"/>
        <pt x="1500" y="1248" on="0"/>
        <pt x="1459" y="1301" on="0"/>
        <pt x="1459" y="1316" on="1"/>
        <pt x="1459" y="1359" on="0"/>
        <pt x="1532" y="1418" on="1"/>
        <pt x="1601" y="1475" on="0"/>
        <pt x="1638" y="1475" on="1"/>
        <pt x="1657" y="1475" on="0"/>
        <pt x="1682" y="1461" on="1"/>
        <pt x="1715" y="1444" on="0"/>
        <pt x="1715" y="1418" on="1"/>
        <pt x="1715" y="1393" on="0"/>
        <pt x="1692" y="1375" on="1"/>
        <pt x="1673" y="1362" on="0"/>
        <pt x="1653" y="1362" on="1"/>
        <pt x="1649" y="1362" on="0"/>
        <pt x="1621" y="1367" on="1"/>
        <pt x="1602" y="1371" on="0"/>
        <pt x="1582" y="1366" on="1"/>
        <pt x="1626" y="1321" on="0"/>
        <pt x="1694" y="1321" on="1"/>
        <pt x="1701" y="1321" on="0"/>
        <pt x="1762" y="1330" on="0"/>
        <pt x="1804" y="1330" on="1"/>
        <pt x="1816" y="1318" on="1"/>
      </contour>
      <contour>
        <pt x="1140" y="1620" on="1"/>
        <pt x="1084" y="1566" on="0"/>
        <pt x="945" y="1493" on="1"/>
        <pt x="748" y="1391" on="0"/>
        <pt x="717" y="1372" on="1"/>
        <pt x="702" y="1384" on="0"/>
        <pt x="691" y="1384" on="1"/>
        <pt x="691" y="1427" on="1"/>
        <pt x="691" y="1455" on="0"/>
        <pt x="880" y="1561" on="1"/>
        <pt x="987" y="1620" on="0"/>
        <pt x="1094" y="1678" on="1"/>
        <pt x="1140" y="1678" on="1"/>
      </contour>
      <contour>
        <pt x="1817" y="189" on="1"/>
        <pt x="1817" y="155" on="0"/>
        <pt x="1764" y="21" on="1"/>
        <pt x="1745" y="21" on="0"/>
        <pt x="1728" y="44" on="1"/>
        <pt x="1720" y="176" on="0"/>
        <pt x="1701" y="383" on="1"/>
        <pt x="1612" y="1027" on="0"/>
        <pt x="1612" y="1044" on="1"/>
        <pt x="1612" y="1076" on="0"/>
        <pt x="1666" y="1156" on="1"/>
        <pt x="1676" y="1156" on="0"/>
        <pt x="1710" y="1134" on="0"/>
        <pt x="1710" y="1121" on="1"/>
      </contour>
      <contour>
        <pt x="1264" y="1049" on="1"/>
        <pt x="1264" y="1019" on="0"/>
        <pt x="1206" y="952" on="0"/>
        <pt x="1182" y="952" on="1"/>
        <pt x="1171" y="952" on="0"/>
        <pt x="1110" y="993" on="0"/>
        <pt x="1095" y="993" on="1"/>
        <pt x="1082" y="993" on="0"/>
        <pt x="1021" y="942" on="0"/>
        <pt x="1008" y="942" on="1"/>
        <pt x="965" y="942" on="0"/>
        <pt x="895" y="1008" on="1"/>
        <pt x="919" y="1043" on="0"/>
        <pt x="943" y="1077" on="1"/>
        <pt x="971" y="1116" on="0"/>
        <pt x="988" y="1116" on="1"/>
        <pt x="999" y="1116" on="0"/>
        <pt x="1064" y="1075" on="0"/>
        <pt x="1075" y="1075" on="1"/>
        <pt x="1088" y="1075" on="0"/>
        <pt x="1154" y="1136" on="0"/>
        <pt x="1167" y="1136" on="1"/>
        <pt x="1199" y="1136" on="0"/>
        <pt x="1264" y="1075" on="0"/>
      </contour>
      <contour>
        <pt x="1530" y="205" on="1"/>
        <pt x="1530" y="20" on="0"/>
        <pt x="1217" y="-97" on="1"/>
        <pt x="984" y="-184" on="0"/>
        <pt x="819" y="-184" on="1"/>
        <pt x="808" y="-184" on="0"/>
        <pt x="733" y="-174" on="0"/>
        <pt x="722" y="-174" on="1"/>
        <pt x="624" y="-174" on="0"/>
        <pt x="435" y="-4" on="0"/>
        <pt x="435" y="87" on="1"/>
        <pt x="435" y="170" on="0"/>
        <pt x="486" y="285" on="1"/>
        <pt x="541" y="410" on="0"/>
        <pt x="605" y="440" on="1"/>
        <pt x="619" y="438" on="0"/>
        <pt x="619" y="415" on="1"/>
        <pt x="619" y="372" on="0"/>
        <pt x="529" y="229" on="1"/>
        <pt x="527" y="220" on="0"/>
        <pt x="527" y="189" on="1"/>
        <pt x="527" y="129" on="0"/>
        <pt x="570" y="74" on="1"/>
        <pt x="619" y="9" on="0"/>
        <pt x="708" y="-18" on="1"/>
        <pt x="748" y="-31" on="0"/>
        <pt x="865" y="-31" on="1"/>
        <pt x="993" y="-31" on="0"/>
        <pt x="1156" y="19" on="1"/>
        <pt x="1330" y="72" on="0"/>
        <pt x="1377" y="138" on="1"/>
        <pt x="1339" y="165" on="0"/>
        <pt x="1226" y="174" on="1"/>
        <pt x="1108" y="182" on="0"/>
        <pt x="1081" y="196" on="1"/>
        <pt x="1070" y="196" on="0"/>
        <pt x="1070" y="220" on="1"/>
        <pt x="1070" y="236" on="0"/>
        <pt x="1129" y="308" on="0"/>
        <pt x="1154" y="323" on="1"/>
        <pt x="1199" y="339" on="0"/>
        <pt x="1245" y="356" on="1"/>
        <pt x="1325" y="391" on="0"/>
        <pt x="1325" y="430" on="1"/>
        <pt x="1325" y="456" on="0"/>
        <pt x="1248" y="524" on="1"/>
        <pt x="1206" y="560" on="0"/>
        <pt x="1163" y="596" on="1"/>
        <pt x="1152" y="607" on="0"/>
        <pt x="1152" y="635" on="1"/>
        <pt x="1152" y="669" on="0"/>
        <pt x="1197" y="736" on="1"/>
        <pt x="1286" y="686" on="0"/>
        <pt x="1324" y="657" on="1"/>
        <pt x="1403" y="596" on="0"/>
        <pt x="1414" y="538" on="1"/>
        <pt x="1419" y="513" on="0"/>
        <pt x="1419" y="487" on="1"/>
        <pt x="1419" y="476" on="0"/>
        <pt x="1389" y="324" on="1"/>
        <pt x="1416" y="301" on="0"/>
        <pt x="1489" y="271" on="1"/>
        <pt x="1530" y="255" on="0"/>
      </contour>
    </TTGlyph>
    <TTGlyph name="uniFB54" xMin="468" yMin="-508" xMax="2987" yMax="1854">
      <contour>
        <pt x="2987" y="1456" on="1"/>
        <pt x="2987" y="1389" on="0"/>
        <pt x="2893" y="1312" on="1"/>
        <pt x="2807" y="1241" on="0"/>
        <pt x="2757" y="1241" on="1"/>
        <pt x="2745" y="1241" on="0"/>
        <pt x="2715" y="1251" on="0"/>
        <pt x="2700" y="1251" on="1"/>
        <pt x="2677" y="1251" on="0"/>
        <pt x="2615" y="1212" on="1"/>
        <pt x="2578" y="1212" on="1"/>
        <pt x="2593" y="1282" on="0"/>
        <pt x="2643" y="1341" on="1"/>
        <pt x="2669" y="1355" on="0"/>
        <pt x="2723" y="1386" on="1"/>
        <pt x="2761" y="1429" on="0"/>
        <pt x="2799" y="1470" on="1"/>
        <pt x="2859" y="1538" on="0"/>
        <pt x="2910" y="1538" on="1"/>
        <pt x="2941" y="1538" on="0"/>
        <pt x="2987" y="1488" on="0"/>
      </contour>
      <contour>
        <pt x="2465" y="1819" on="1"/>
        <pt x="2465" y="1779" on="0"/>
        <pt x="2441" y="1766" on="1"/>
        <pt x="2061" y="1547" on="0"/>
        <pt x="2018" y="1549" on="1"/>
        <pt x="1964" y="1549" on="1"/>
        <pt x="1964" y="1583" on="1"/>
        <pt x="1963" y="1598" on="0"/>
        <pt x="1984" y="1625" on="1"/>
        <pt x="2003" y="1650" on="0"/>
        <pt x="2017" y="1656" on="1"/>
        <pt x="2262" y="1773" on="0"/>
        <pt x="2452" y="1854" on="1"/>
        <pt x="2452" y="1851" on="0"/>
        <pt x="2465" y="1834" on="0"/>
      </contour>
      <contour>
        <pt x="2414" y="1471" on="1"/>
        <pt x="2414" y="1416" on="0"/>
        <pt x="2410" y="1407" on="1"/>
        <pt x="2380" y="1350" on="0"/>
        <pt x="2314" y="1324" on="1"/>
        <pt x="2265" y="1307" on="0"/>
        <pt x="2216" y="1289" on="1"/>
        <pt x="2201" y="1280" on="0"/>
        <pt x="2172" y="1253" on="1"/>
        <pt x="2157" y="1241" on="0"/>
        <pt x="2127" y="1241" on="1"/>
        <pt x="2065" y="1241" on="0"/>
        <pt x="2065" y="1317" on="1"/>
        <pt x="2065" y="1357" on="0"/>
        <pt x="2074" y="1373" on="1"/>
        <pt x="2075" y="1374" on="0"/>
        <pt x="2127" y="1446" on="1"/>
        <pt x="2136" y="1420" on="0"/>
        <pt x="2165" y="1363" on="1"/>
        <pt x="2194" y="1369" on="0"/>
        <pt x="2218" y="1412" on="1"/>
        <pt x="2235" y="1449" on="0"/>
        <pt x="2252" y="1485" on="1"/>
        <pt x="2290" y="1485" on="1"/>
        <pt x="2290" y="1452" on="0"/>
        <pt x="2308" y="1425" on="1"/>
        <pt x="2351" y="1434" on="0"/>
        <pt x="2363" y="1535" on="0"/>
        <pt x="2400" y="1547" on="1"/>
        <pt x="2414" y="1518" on="0"/>
      </contour>
      <contour>
        <pt x="2823" y="258" on="1"/>
        <pt x="2825" y="214" on="0"/>
        <pt x="2819" y="138" on="1"/>
        <pt x="2808" y="97" on="0"/>
        <pt x="2801" y="79" on="1"/>
        <pt x="2783" y="36" on="0"/>
        <pt x="2754" y="23" on="1"/>
        <pt x="2639" y="949" on="1"/>
        <pt x="2639" y="1071" on="0"/>
        <pt x="2708" y="1128" on="1"/>
      </contour>
      <contour>
        <pt x="1963" y="949" on="1"/>
        <pt x="1963" y="913" on="0"/>
        <pt x="1933" y="886" on="1"/>
        <pt x="1907" y="862" on="0"/>
        <pt x="1892" y="862" on="1"/>
        <pt x="1874" y="862" on="0"/>
        <pt x="1789" y="914" on="1"/>
        <pt x="1789" y="944" on="0"/>
        <pt x="1809" y="989" on="1"/>
        <pt x="1833" y="1046" on="0"/>
        <pt x="1866" y="1046" on="1"/>
        <pt x="1895" y="1046" on="0"/>
        <pt x="1930" y="1010" on="1"/>
        <pt x="1963" y="975" on="0"/>
      </contour>
      <contour>
        <pt x="2455" y="212" on="1"/>
        <pt x="2442" y="88" on="0"/>
        <pt x="2419" y="39" on="1"/>
        <pt x="2382" y="-39" on="0"/>
        <pt x="2291" y="-39" on="1"/>
        <pt x="2255" y="-39" on="1"/>
        <pt x="2184" y="-39" on="0"/>
        <pt x="2107" y="66" on="1"/>
        <pt x="2073" y="120" on="0"/>
        <pt x="2039" y="176" on="1"/>
        <pt x="1850" y="-18" on="0"/>
        <pt x="1630" y="-18" on="1"/>
        <pt x="1571" y="-18" on="0"/>
        <pt x="1526" y="5" on="1"/>
        <pt x="1472" y="33" on="0"/>
        <pt x="1472" y="84" on="1"/>
        <pt x="1472" y="131" on="0"/>
        <pt x="1516" y="175" on="1"/>
        <pt x="1519" y="175" on="0"/>
        <pt x="1558" y="149" on="0"/>
        <pt x="1570" y="147" on="1"/>
        <pt x="1659" y="135" on="0"/>
        <pt x="1687" y="135" on="1"/>
        <pt x="1754" y="135" on="0"/>
        <pt x="1863" y="176" on="1"/>
        <pt x="2004" y="229" on="0"/>
        <pt x="2004" y="304" on="1"/>
        <pt x="2004" y="317" on="0"/>
        <pt x="1953" y="557" on="0"/>
        <pt x="1953" y="570" on="1"/>
        <pt x="1953" y="656" on="0"/>
        <pt x="1990" y="698" on="1"/>
        <pt x="2026" y="600" on="0"/>
        <pt x="2082" y="407" on="1"/>
        <pt x="2111" y="269" on="0"/>
        <pt x="2148" y="208" on="1"/>
        <pt x="2203" y="115" on="0"/>
        <pt x="2306" y="115" on="1"/>
        <pt x="2322" y="115" on="0"/>
        <pt x="2344" y="126" on="1"/>
        <pt x="2373" y="141" on="0"/>
        <pt x="2373" y="161" on="1"/>
        <pt x="2373" y="172" on="0"/>
        <pt x="2359" y="219" on="1"/>
        <pt x="2342" y="272" on="0"/>
        <pt x="2338" y="292" on="1"/>
        <pt x="2305" y="464" on="0"/>
        <pt x="2246" y="826" on="1"/>
        <pt x="2243" y="850" on="0"/>
        <pt x="2215" y="911" on="1"/>
        <pt x="2188" y="969" on="0"/>
        <pt x="2188" y="980" on="1"/>
        <pt x="2188" y="1029" on="0"/>
        <pt x="2224" y="1099" on="1"/>
        <pt x="2260" y="1174" on="0"/>
        <pt x="2298" y="1189" on="1"/>
        <pt x="2309" y="1137" on="0"/>
        <pt x="2319" y="1085" on="1"/>
        <pt x="2338" y="1015" on="0"/>
        <pt x="2382" y="1014" on="1"/>
        <pt x="2382" y="1010" on="0"/>
        <pt x="2352" y="805" on="1"/>
      </contour>
      <contour>
        <pt x="1123" y="1481" on="1"/>
        <pt x="1123" y="1429" on="0"/>
        <pt x="1020" y="1372" on="1"/>
        <pt x="953" y="1340" on="0"/>
        <pt x="886" y="1309" on="1"/>
        <pt x="796" y="1261" on="0"/>
        <pt x="606" y="1180" on="1"/>
        <pt x="591" y="1194" on="0"/>
        <pt x="591" y="1210" on="1"/>
        <pt x="591" y="1259" on="0"/>
        <pt x="624" y="1277" on="1"/>
        <pt x="774" y="1351" on="0"/>
        <pt x="1077" y="1507" on="1"/>
        <pt x="1111" y="1507" on="1"/>
        <pt x="1123" y="1505" on="0"/>
      </contour>
      <contour>
        <pt x="2219" y="-281" on="1"/>
        <pt x="2197" y="-303" on="0"/>
        <pt x="2193" y="-311" on="1"/>
        <pt x="2052" y="-377" on="0"/>
        <pt x="1744" y="-508" on="1"/>
        <pt x="1708" y="-508" on="1"/>
        <pt x="1708" y="-505" on="0"/>
        <pt x="1697" y="-489" on="0"/>
        <pt x="1697" y="-474" on="1"/>
        <pt x="1697" y="-428" on="0"/>
        <pt x="1782" y="-387" on="1"/>
        <pt x="1839" y="-365" on="0"/>
        <pt x="1895" y="-344" on="1"/>
        <pt x="2033" y="-289" on="0"/>
        <pt x="2183" y="-224" on="1"/>
        <pt x="2219" y="-224" on="1"/>
      </contour>
      <contour>
        <pt x="846" y="620" on="1"/>
        <pt x="847" y="590" on="0"/>
        <pt x="792" y="534" on="1"/>
        <pt x="755" y="551" on="0"/>
        <pt x="718" y="567" on="1"/>
        <pt x="673" y="588" on="0"/>
        <pt x="673" y="616" on="1"/>
        <pt x="673" y="625" on="0"/>
        <pt x="738" y="718" on="1"/>
        <pt x="777" y="702" on="0"/>
        <pt x="846" y="676" on="1"/>
      </contour>
      <contour>
        <pt x="1492" y="473" on="1"/>
        <pt x="1492" y="365" on="0"/>
        <pt x="1446" y="310" on="1"/>
        <pt x="1426" y="287" on="0"/>
        <pt x="1374" y="272" on="1"/>
        <pt x="1310" y="253" on="0"/>
        <pt x="1295" y="244" on="1"/>
        <pt x="1275" y="233" on="0"/>
        <pt x="1265" y="181" on="1"/>
        <pt x="1259" y="140" on="0"/>
        <pt x="1253" y="98" on="1"/>
        <pt x="1227" y="-38" on="0"/>
        <pt x="1168" y="-77" on="1"/>
        <pt x="1005" y="-182" on="0"/>
        <pt x="822" y="-182" on="1"/>
        <pt x="704" y="-182" on="1"/>
        <pt x="590" y="-182" on="0"/>
        <pt x="522" y="-86" on="1"/>
        <pt x="468" y="-10" on="0"/>
        <pt x="468" y="74" on="1"/>
        <pt x="468" y="138" on="0"/>
        <pt x="495" y="208" on="1"/>
        <pt x="529" y="294" on="0"/>
        <pt x="586" y="329" on="1"/>
        <pt x="601" y="318" on="0"/>
        <pt x="611" y="318" on="1"/>
        <pt x="611" y="282" on="1"/>
        <pt x="611" y="270" on="0"/>
        <pt x="550" y="143" on="0"/>
        <pt x="550" y="130" on="1"/>
        <pt x="550" y="116" on="0"/>
        <pt x="638" y="5" on="0"/>
        <pt x="661" y="-6" on="1"/>
        <pt x="722" y="-39" on="0"/>
        <pt x="816" y="-39" on="1"/>
        <pt x="926" y="-39" on="0"/>
        <pt x="1034" y="0" on="1"/>
        <pt x="1175" y="50" on="0"/>
        <pt x="1175" y="135" on="1"/>
        <pt x="1175" y="202" on="0"/>
        <pt x="1161" y="230" on="1"/>
        <pt x="1150" y="254" on="0"/>
        <pt x="1106" y="317" on="1"/>
        <pt x="1073" y="367" on="0"/>
        <pt x="1073" y="381" on="1"/>
        <pt x="1073" y="416" on="0"/>
        <pt x="1094" y="482" on="1"/>
        <pt x="1101" y="483" on="0"/>
        <pt x="1118" y="493" on="1"/>
        <pt x="1150" y="457" on="0"/>
        <pt x="1213" y="403" on="1"/>
        <pt x="1217" y="401" on="0"/>
        <pt x="1277" y="401" on="1"/>
        <pt x="1337" y="401" on="0"/>
        <pt x="1380" y="428" on="1"/>
        <pt x="1375" y="455" on="0"/>
        <pt x="1350" y="511" on="1"/>
        <pt x="1328" y="563" on="0"/>
        <pt x="1328" y="575" on="1"/>
        <pt x="1328" y="626" on="0"/>
        <pt x="1363" y="677" on="1"/>
        <pt x="1410" y="659" on="0"/>
        <pt x="1453" y="587" on="1"/>
        <pt x="1492" y="520" on="0"/>
      </contour>
      <contour>
        <pt x="1584" y="-255" on="1"/>
        <pt x="1571" y="-376" on="0"/>
        <pt x="1512" y="-376" on="1"/>
        <pt x="1500" y="-376" on="0"/>
        <pt x="1418" y="-335" on="0"/>
        <pt x="1405" y="-335" on="1"/>
        <pt x="1392" y="-335" on="0"/>
        <pt x="1321" y="-397" on="0"/>
        <pt x="1308" y="-397" on="1"/>
        <pt x="1276" y="-397" on="0"/>
        <pt x="1239" y="-363" on="1"/>
        <pt x="1205" y="-332" on="0"/>
        <pt x="1205" y="-315" on="1"/>
        <pt x="1205" y="-279" on="0"/>
        <pt x="1250" y="-248" on="1"/>
        <pt x="1284" y="-223" on="0"/>
        <pt x="1298" y="-223" on="1"/>
        <pt x="1308" y="-223" on="0"/>
        <pt x="1361" y="-253" on="0"/>
        <pt x="1375" y="-253" on="1"/>
        <pt x="1387" y="-253" on="0"/>
        <pt x="1459" y="-192" on="0"/>
        <pt x="1472" y="-192" on="1"/>
        <pt x="1483" y="-192" on="0"/>
      </contour>
      <contour>
        <pt x="2873" y="1414" on="1"/>
        <pt x="2836" y="1414" on="1"/>
        <pt x="2814" y="1393" on="0"/>
        <pt x="2814" y="1375" on="1"/>
        <pt x="2851" y="1375" on="1"/>
        <pt x="2873" y="1396" on="0"/>
      </contour>
    </TTGlyph>
</ttFont>
